<svg width="244" height="150" viewBox="0 0 244 150" fill="none" xmlns="http://www.w3.org/2000/svg">
<path d="M242.51 87.277H97.984V115.851H242.51V87.277Z" fill="#1D2356"/>
<path d="M115.88 97.007C114.842 96.3531 113.637 96.0135 112.41 96.029C109.721 96.029 108.01 98.205 108.01 101.653C108.01 104.978 109.943 107.227 112.486 107.227C113.709 107.229 114.911 106.919 115.981 106.327L116.127 109.896C114.742 110.325 113.298 110.532 111.849 110.508C107.18 110.508 103.905 107.008 103.905 101.608C103.905 95.348 108.105 92.855 111.581 92.855C113.124 92.8016 114.659 93.0856 116.081 93.687L115.88 97.007Z" fill="white"/>
<path d="M128.939 106.396H123.581L122.411 110.21H118.549L124.221 93.145H128.621L134.097 110.21H129.99L128.939 106.396ZM126.396 96.422H126.347L124.317 103.512H128.157L126.396 96.422Z" fill="white"/>
<path d="M137.45 93.145H141.458V107.129H147.105V110.209H137.45V93.145Z" fill="white"/>
<path d="M152.585 103.681L147.404 93.145H152.004L154.742 99.745L157.284 93.145H161.784L156.6 103.755V110.209H152.59L152.585 103.681Z" fill="white"/>
<path d="M178.966 96.714H178.917L175.078 110.214H172.437L168.746 96.714H168.697V110.214H165.031V93.145H171.069L173.832 104.123H173.881L176.863 93.145H182.631V110.21H178.966V96.714Z" fill="white"/>
<path d="M85.422 32.819H0.301025V115.521H85.422V32.819Z" fill="#1D2356"/>
<path d="M85.423 67.323H35.822V115.522H85.423V67.323Z" fill="#0090CD"/>
<g opacity="0.92">
<path opacity="0.92" d="M49.017 32.819C49.047 33.427 49.079 34.154 49.079 34.557C49.079 59.678 28.053 80.124 2.20903 80.124C1.82803 80.124 1.03203 80.09 0.301025 80.061V100.21C0.988025 100.251 1.79403 100.272 2.20903 100.272C39.488 100.272 69.833 70.79 69.833 34.557C69.833 34.131 69.806 33.409 69.798 32.819H49.017Z" fill="#F2F9FE"/>
</g>
<path d="M85.423 48.055C84.53 48.025 83.57 48.003 83.123 48.003C45.841 48.003 15.506 77.482 15.506 113.712C15.506 114.06 15.536 114.823 15.552 115.521H36.278C36.268 114.801 36.254 114.037 36.254 113.712C36.254 88.6 57.277 68.161 83.122 68.161C83.579 68.161 84.546 68.193 85.422 68.233L85.423 48.055Z" fill="white"/>
<path d="M118.379 61.197L116.699 62.45C115.812 61.3094 114.668 60.3954 113.359 59.783C112.017 59.1679 110.555 58.8575 109.079 58.874C107.429 58.861 105.804 59.2703 104.357 60.063C102.956 60.7983 101.788 61.9086 100.982 63.2698C100.176 64.631 99.765 66.1894 99.794 67.771C99.7661 68.9537 99.99 70.1289 100.451 71.2185C100.912 72.3081 101.599 73.2872 102.467 74.091C103.369 74.936 104.429 75.5949 105.586 76.0299C106.742 76.4649 107.974 76.6674 109.209 76.626C110.632 76.6495 112.042 76.3561 113.338 75.767C114.633 75.1779 115.781 74.3079 116.699 73.22L118.379 74.458C117.314 75.7752 115.951 76.8203 114.402 77.507C112.725 78.2426 110.91 78.6099 109.079 78.584C107.433 78.6656 105.789 78.3836 104.265 77.7581C102.74 77.1326 101.372 76.179 100.257 74.965C98.4542 72.9371 97.4863 70.3017 97.548 67.589C97.5208 66.1541 97.7993 64.7298 98.365 63.4108C98.9307 62.0918 99.7707 60.9083 100.829 59.939C103.05 57.855 106.007 56.7382 109.051 56.834C110.91 56.8066 112.752 57.1983 114.439 57.98C115.998 58.7099 117.352 59.8153 118.379 61.197V61.197Z" fill="#0090CD" stroke="#0090CD" stroke-width="0.346"/>
<path d="M134.475 57.354L144.413 78.063H142.113L138.761 71.249H129.581L126.262 78.063H123.885L133.952 57.354H134.475ZM134.205 61.754L130.555 69.254H137.84L134.205 61.754Z" fill="#0090CD" stroke="#0090CD" stroke-width="0.346"/>
<path d="M151.983 57.354H156.227C157.836 57.301 159.446 57.3954 161.038 57.636C162.239 57.8797 163.324 58.5174 164.121 59.448C164.925 60.402 165.348 61.6191 165.31 62.866C165.332 63.9155 165.047 64.9487 164.491 65.839C163.928 66.7094 163.112 67.386 162.152 67.777C160.809 68.2707 159.382 68.4982 157.952 68.447L165.615 78.063H162.982L155.318 68.447H154.112V78.063H151.983V57.354ZM154.112 59.381V66.42L157.784 66.448C158.851 66.498 159.918 66.3647 160.94 66.054C161.594 65.8149 162.154 65.3735 162.54 64.794C162.921 64.2205 163.121 63.5456 163.114 62.857C163.119 62.1815 162.917 61.5208 162.534 60.964C162.164 60.4101 161.631 59.9848 161.009 59.747C159.992 59.4515 158.933 59.3277 157.876 59.381H154.112Z" fill="#0090CD" stroke="#0090CD" stroke-width="0.346"/>
<path d="M175.675 78.063V57.354H176.138L190.32 73.228V57.354H192.42V78.063H191.942L177.876 62.382V78.063H175.675Z" fill="#0090CD" stroke="#0090CD" stroke-width="0.346"/>
<path d="M213.538 56.832C215.029 56.7914 216.513 57.0482 217.904 57.5875C219.295 58.1268 220.564 58.9377 221.638 59.973C222.693 60.9602 223.529 62.1585 224.091 63.4899C224.653 64.8213 224.929 66.2561 224.9 67.701C224.924 69.1428 224.647 70.5737 224.086 71.9023C223.526 73.2309 222.694 74.428 221.645 75.417C220.602 76.4497 219.362 77.2623 217.998 77.8063C216.635 78.3504 215.176 78.6148 213.708 78.584C212.232 78.6182 210.763 78.3568 209.389 77.8152C208.016 77.2735 206.764 76.4625 205.708 75.43C204.661 74.4569 203.83 73.2751 203.268 71.9609C202.706 70.6466 202.426 69.2292 202.446 67.8C202.434 65.8557 202.948 63.9443 203.933 62.268C204.896 60.5948 206.297 59.2152 207.984 58.277C209.677 57.3177 211.592 56.8194 213.538 56.832V56.832ZM213.632 58.846C212.058 58.846 210.512 59.2598 209.149 60.046C207.766 60.808 206.617 61.9318 205.824 63.297C205.032 64.6623 204.625 66.2175 204.649 67.796C204.627 68.9612 204.85 70.118 205.304 71.1917C205.757 72.2653 206.431 73.2319 207.281 74.029C208.116 74.8549 209.109 75.5053 210.199 75.942C211.29 76.3787 212.456 76.5929 213.631 76.572C215.236 76.5844 216.818 76.182 218.222 75.404C219.593 74.6596 220.732 73.5525 221.516 72.204C222.309 70.8354 222.718 69.2778 222.699 67.696C222.72 66.1298 222.311 64.5878 221.516 63.238C220.715 61.8918 219.565 60.7867 218.188 60.039C216.798 59.2536 215.228 58.8425 213.632 58.846V58.846Z" fill="#0090CD" stroke="#0090CD" stroke-width="0.346"/>
<path d="M232.106 59.381V57.354H243.781V59.381H239.029V78.063H236.856V59.381H232.106Z" fill="#0090CD" stroke="#0090CD" stroke-width="0.346"/>
<path d="M100.404 32.629H102.267V50.742H100.404V32.629Z" fill="#0090CD" stroke="#0090CD" stroke-width="0.346"/>
<path d="M113.894 50.742V32.629H114.3L126.7 46.514V32.629H128.538V50.742H128.119L115.819 37.025V50.742H113.894Z" fill="#0090CD" stroke="#0090CD" stroke-width="0.346"/>
<path d="M138.494 47.368L140.08 46.444C141.195 48.4387 142.483 49.436 143.944 49.436C144.557 49.439 145.161 49.2931 145.705 49.011C146.222 48.7572 146.657 48.3632 146.96 47.874C147.241 47.4179 147.39 46.8928 147.391 46.357C147.377 45.7094 147.154 45.0836 146.757 44.572C145.838 43.4563 144.763 42.4795 143.564 41.672C142.503 40.9635 141.53 40.1324 140.664 39.196C140.03 38.4108 139.681 37.4334 139.675 36.424C139.666 35.6631 139.87 34.9149 140.263 34.2634C140.656 33.6119 141.223 33.0829 141.9 32.736C142.609 32.3624 143.399 32.1704 144.2 32.177C145.063 32.1728 145.912 32.3911 146.665 32.811C147.624 33.4155 148.449 34.2098 149.09 35.145L147.571 36.265C147.083 35.5686 146.476 34.9643 145.777 34.48C145.288 34.1926 144.73 34.0433 144.162 34.048C143.484 34.0206 142.822 34.2592 142.318 34.713C142.088 34.9188 141.905 35.1715 141.782 35.4541C141.658 35.7367 141.597 36.0426 141.602 36.351C141.603 36.7469 141.69 37.1378 141.856 37.497C142.089 37.9521 142.402 38.361 142.781 38.704C143.026 38.9327 143.828 39.536 145.189 40.514C146.463 41.3486 147.586 42.3938 148.51 43.605C149.075 44.4014 149.388 45.3488 149.41 46.325C149.411 46.9721 149.275 47.6121 149.009 48.2023C148.744 48.7925 148.356 49.3194 147.871 49.748C146.865 50.7105 145.519 51.2342 144.127 51.204C143.037 51.2156 141.966 50.9091 141.047 50.322C139.969 49.559 139.093 48.5452 138.494 47.368V47.368Z" fill="#0090CD" stroke="#0090CD" stroke-width="0.346"/>
<path d="M158.842 34.401V32.629H169.054V34.401H164.898V50.742H162.998V34.401H158.842Z" fill="#0090CD" stroke="#0090CD" stroke-width="0.346"/>
<path d="M178.82 32.629H180.683V50.742H178.82V32.629Z" fill="#0090CD" stroke="#0090CD" stroke-width="0.346"/>
<path d="M190.443 34.401V32.629H200.656V34.401H196.503V50.742H194.603V34.401H190.443Z" fill="#0090CD" stroke="#0090CD" stroke-width="0.346"/>
<path d="M210.754 32.629H212.617V43.564C212.598 44.3731 212.623 45.1826 212.692 45.989C212.758 46.6304 212.981 47.2457 213.34 47.781C213.744 48.3137 214.281 48.7301 214.898 48.988C215.56 49.3022 216.282 49.4677 217.014 49.473C217.626 49.474 218.231 49.3441 218.789 49.092C219.336 48.8505 219.822 48.4877 220.208 48.031C220.602 47.5529 220.887 46.9946 221.043 46.395C221.21 45.4605 221.274 44.5105 221.235 43.562V32.629H223.097V43.564C223.136 44.8883 222.972 46.2107 222.609 47.485C222.246 48.5349 221.564 49.4455 220.659 50.09C219.635 50.8445 218.388 51.2348 217.117 51.199C215.754 51.2368 214.409 50.8719 213.252 50.15C212.227 49.5133 211.463 48.5312 211.098 47.381C210.814 46.1294 210.699 44.8452 210.756 43.563L210.754 32.629Z" fill="#0090CD" stroke="#0090CD" stroke-width="0.346"/>
<path d="M233.178 34.401V32.629H243.391V34.401H239.235V50.742H237.335V34.401H233.178Z" fill="#0090CD" stroke="#0090CD" stroke-width="0.346"/>
<path d="M85.207 50.323C85.4357 51.7664 85.4847 53.2325 85.353 54.688L85.012 61.688C84.8378 63.2971 84.955 64.9245 85.358 66.492" stroke="white" stroke-miterlimit="10"/>
<path d="M85.5311 67.696H85.3051V68.217H85.5311V67.696Z" fill="white"/>
<path d="M85.681 48.066H85.334V49.605H85.681V48.066Z" fill="white"/>
<path d="M17.006 114.514L19.667 117.493C19.7093 117.556 19.7642 117.61 19.8282 117.651C19.8922 117.692 19.964 117.719 20.039 117.731C20.259 117.731 20.392 117.495 20.47 117.29C20.9146 116.142 21.252 114.955 21.478 113.745C21.4284 114.81 21.4437 115.876 21.524 116.939C21.573 117.567 21.847 118.38 22.476 118.339C22.932 118.311 23.197 117.826 23.376 117.407L24.667 114.39L26.282 116.504L27.641 115.364C27.8012 115.211 27.9897 115.09 28.196 115.008C28.4791 114.943 28.7738 114.947 29.055 115.02C30.8684 115.327 32.7132 115.405 34.546 115.252" stroke="white" stroke-miterlimit="10"/>
<path d="M19.527 115.378C19.5325 115.517 19.5665 115.653 19.627 115.778C19.6389 115.81 19.6606 115.838 19.689 115.858C19.7203 115.872 19.7549 115.877 19.789 115.873C20.5926 115.842 21.3938 115.766 22.189 115.646C22.4872 115.622 22.7756 115.529 23.031 115.373" stroke="white" stroke-miterlimit="10"/>
<path d="M16.291 115.408H15.55V115.697H16.291V115.408Z" fill="white"/>
<path d="M36.2741 115.397H35.1281V115.605H36.2741V115.397Z" fill="white"/>
<path d="M48.9709 32.657H69.7519" stroke="white" stroke-width="0.25" stroke-miterlimit="10"/>
<path d="M0.125 80.108V100.209" stroke="white" stroke-width="0.25" stroke-miterlimit="10"/>
</svg>
