<svg id="Composant_25_1" data-name="Composant 25 – 1" xmlns="http://www.w3.org/2000/svg" width="172.607" height="150" viewBox="0 0 172.607 150">
  <g id="Groupe_142" data-name="Groupe 142">
    <g id="Groupe_21" data-name="Groupe 21" transform="translate(39.99 53.925)">
      <path id="Tracé_74" data-name="Tracé 74" d="M603.229,176.356c0-4.579-.21-9.212-.426-13.794a12.92,12.92,0,0,0,5.223,0c-.216,4.582-.429,9.215-.429,13.794,0,8.948.111,15.229.159,20.449a106.857,106.857,0,0,0,14.7-.692,4.883,4.883,0,0,0,0,3.2c-3.251-.168-6.553-.261-9.805-.261-3.3,0-6.55.093-9.853.261.216-4.579.426-9.218.426-13.8Z" transform="translate(-602.803 -162.562)" fill="#101010"/>
      <path id="Tracé_75" data-name="Tracé 75" d="M614.934,200.1c1.451-2.757,2.748-5.517,3.914-8.256-2.451-6.395-9.161-22.154-10.656-25.514a11.273,11.273,0,0,0,4.9,0c2.184,6.713,5.01,13.368,7.941,20.461a169.783,169.783,0,0,0,7.935-20.461,6.568,6.568,0,0,0,1.756.27,6.642,6.642,0,0,0,1.759-.27c-1.57,3.188-10.593,22.814-15.028,33.763Z" transform="translate(-592.043 -155.041)" fill="#101010"/>
      <path id="Tracé_76" data-name="Tracé 76" d="M618.6,187.033a7.3,7.3,0,0,0,6.021,3.677c2.667,0,5.166-1.651,5.166-4.795,0-6.608-12.565-2.715-12.565-11.72,0-4.633,3.194-8.043,8.837-8.043,2.61,0,4.261.965,5.912,1.492a13.892,13.892,0,0,0-1.276,3.782h-.641a4.882,4.882,0,0,0-4.687-3.3,4.33,4.33,0,0,0-4.528,4.477c0,6.922,12.574,2.658,12.574,11.663,0,4.046-3.68,8.418-9.592,8.418a13.272,13.272,0,0,1-6.868-1.759,12.057,12.057,0,0,0,1.01-3.89Z" transform="translate(-574.545 -155.394)" fill="#101010"/>
    </g>
    <g id="Groupe_22" data-name="Groupe 22">
      <path id="Tracé_77" data-name="Tracé 77" d="M625.8,169.242a13.306,13.306,0,0,1,8.576-3.09c5.112,0,8.63,3.144,8.63,7.881,0,4-.21,7.935-.21,12.412,0,1.756,0,3.944,2.071,3.944a2.178,2.178,0,0,0,1.121-.216v1.172a8.922,8.922,0,0,1-3.407.746,3.483,3.483,0,0,1-3.674-3.305c-2.562,2.559-4.743,3.893-8.367,3.893-3.569,0-7.081-2.505-7.081-6.554,0-4.261,2.876-6.551,7.509-7.3,7.725-1.226,7.989-1.654,7.989-3.728,0-3.566-1.6-6.713-5.858-6.713a7.507,7.507,0,0,0-6.712,3.623H625.8Zm13.158,9.478c-3.674,1.229-11.132.854-11.132,6.662,0,3.353,2.292,5.055,4.633,5.055a7.691,7.691,0,0,0,6.284-3.722Z" transform="translate(-521.564 -101.469)" fill="#101010"/>
      <path id="Tracé_78" data-name="Tracé 78" d="M735.568,176.439c-23.146-19.586-47.017-29.107-71.3-31.747-5.781-.626-16.038.983-26.361,7.336-13.446,8.268-24.932,22.984-24.932,22.984s-26.751,27.743-23.185,51.006S618.6,270.2,618.6,270.2s20.6,18.846,52.363,24.255c47.817,2.934,87.154-50.4,90.309-68.423,2.407-13.689.768-28.957-25.7-49.589m7.111,38.426c-.251,4.615,2.026,15.07-22.852,47.98-23.928,29.23-68.707,27.357-103.2-1.247-31.959-26.506-16.607-59.643,7.638-88.611,20.389-24.36,87.037-2.077,102.925,12.119,15.208,13.146,15.918,21.947,15.49,29.76" transform="translate(-589.458 -144.567)" fill="#00266d"/>
    </g>
    <path id="Tracé_79" data-name="Tracé 79" d="M735.955,184.613a113.115,113.115,0,0,0-12.574-11.24c-15.846-13.41-32.034-22.1-48.462-27.1q2.855-.108,5.793-.111c.452,0,.9,0,1.358.006,1.432-.045,2.817-.069,4.165-.069,27.979,0,37.889,9.6,44.344,20.368,2.182,3.635,4.153,10.084,5.376,18.142m-74.46,96.247c-18.921,0-39.343-7.639-57.055-22.325q-1.178-.98-2.272-1.966c-7.42-16.518-6.491-38.117-6.491-38.117s-.994-16.359,2.826-30.093a167.081,167.081,0,0,1,13.578-18.435c6.563-7.842,17.923-10.851,30.838-10.851a102.019,102.019,0,0,1,13.473.956c-24.389,8.355-54.356,26.3-53.789,47.186.935,34.878,10.533,67.479,48.635,67.479h.075c41.189-.051,73.181-25.175,71.859-60.074-1-13.065-2.586-22.364-4.351-29.079,11.513,11.246,12.062,19.161,11.672,26.26-.252,4.618,2.025,15.07-22.853,47.983C696,274,679.42,280.86,661.495,280.86" transform="translate(-577.274 -141.501)" fill="#bce4ec"/>
    <path id="Tracé_80" data-name="Tracé 80" d="M657.8,283.459c-.95,0-1.463-.024-1.463-.024h-.009c-.549,0-30.653-.066-47.329-14.543a35.458,35.458,0,0,1-8.795-12.442q1.092.989,2.271,1.966c17.71,14.687,38.135,22.328,57.056,22.328,17.926,0,34.5-6.859,46.145-21.081,24.878-32.909,22.6-43.362,22.852-47.98.39-7.1-.161-15.013-11.672-26.26-3.378-12.862-7.4-16.26-9.134-18.516-4.462-5.8-10.309-11.636-28.795-11.99-.288-.012-.582-.015-.887-.015-5.676,0-14.231,1.795-23.614,5.007a102.582,102.582,0,0,0-13.476-.956c-12.912,0-24.275,3.012-30.838,10.851a168.026,168.026,0,0,0-13.574,18.436c.123-.45.254-.9.389-1.339,3.284-10.743,9.443-18.034,13.862-21.043,16.973-11.537,37.251-18.735,62.162-19.7,16.43,5,32.618,13.686,48.464,27.1a113.042,113.042,0,0,1,12.574,11.237c3.773,24.875.384,65.073-26.167,85.084a103.182,103.182,0,0,1-50.025,13.88" transform="translate(-575.311 -141.385)" fill="#1e5f90"/>
  </g>
</svg>
