<?xml version="1.0" encoding="utf-8"?>
<!-- Generator: Adobe Illustrator 26.0.1, SVG Export Plug-In . SVG Version: 6.00 Build 0)  -->
<svg version="1.1" id="Layer_1" xmlns="http://www.w3.org/2000/svg" xmlns:xlink="http://www.w3.org/1999/xlink" x="0px" y="0px"
	 viewBox="0 0 497.6 255.6" style="enable-background:new 0 0 497.6 255.6;" xml:space="preserve">
<style type="text/css">
	.st0{fill:none;stroke:#FCB74E;stroke-width:0.6727;stroke-miterlimit:10;}
	.st1{fill:#343375;}
	.st2{fill:#FCB74E;}
	.st3{fill:#00A995;}
	.st4{fill:#0098A2;}
</style>
<path class="st0" d="M0.5,31.3c-6.2,146.1,211.7,265.1,340,121c39.9-42.5,34.3-117,88.5-152.2"/>
<g id="supa_00000032648040910957798330000009460498907319259047_">
	<circle class="st1" cx="376.9" cy="80.1" r="6.5"/>
	<g>
		<g>
			<path class="st1" d="M392,82c-0.3,0-0.5,0-0.7,0c-0.2,0-0.4-0.1-0.6-0.1c-0.2-0.1-0.4-0.1-0.6-0.2v-1.4c0.3,0.2,0.6,0.4,0.9,0.5
				s0.6,0.1,0.9,0.1c0.2,0,0.4,0,0.5-0.1c0.1-0.1,0.2-0.2,0.2-0.4c0-0.1-0.1-0.2-0.2-0.3s-0.3-0.1-0.5-0.2c-0.2-0.1-0.4-0.1-0.7-0.2
				c-0.1-0.1-0.3-0.1-0.4-0.2c-0.1-0.1-0.3-0.2-0.4-0.3c-0.1-0.1-0.2-0.2-0.3-0.4s-0.1-0.4-0.1-0.6c0-0.2,0-0.5,0.1-0.7
				c0.1-0.2,0.2-0.4,0.4-0.6c0.2-0.2,0.4-0.3,0.7-0.4c0.3-0.1,0.6-0.1,0.9-0.1c0.2,0,0.4,0,0.6,0c0.2,0,0.3,0.1,0.5,0.1
				s0.3,0.1,0.5,0.2v1.4c-0.1-0.1-0.3-0.2-0.4-0.3c-0.2-0.1-0.3-0.2-0.5-0.2c-0.2-0.1-0.3-0.1-0.5-0.1c-0.1,0-0.3,0-0.4,0
				c-0.1,0-0.2,0.1-0.3,0.2s-0.1,0.2-0.1,0.3c0,0.1,0,0.2,0.1,0.3s0.2,0.1,0.4,0.2s0.3,0.1,0.5,0.2c0.2,0.1,0.4,0.1,0.6,0.2
				c0.2,0.1,0.3,0.2,0.5,0.3c0.1,0.1,0.2,0.3,0.3,0.4c0.1,0.2,0.1,0.4,0.1,0.6c0,0.3-0.1,0.6-0.2,0.9c-0.2,0.3-0.4,0.5-0.7,0.6
				S392.4,82,392,82z"/>
			<path class="st1" d="M396.7,82c-0.4,0-0.7-0.1-1-0.2c-0.3-0.1-0.5-0.3-0.7-0.5s-0.2-0.6-0.2-1v-2.5h1.3v2.4c0,0.2,0,0.4,0.2,0.5
				c0.1,0.1,0.3,0.2,0.5,0.2s0.4-0.1,0.5-0.2c0.1-0.1,0.2-0.3,0.2-0.5v-2.4h1.2v2.5c0,0.6-0.2,1-0.5,1.3
				C397.7,81.8,397.3,82,396.7,82z"/>
			<path class="st1" d="M401.9,82c-0.1,0-0.2,0-0.3,0s-0.3,0-0.5-0.1c-0.2-0.1-0.3-0.2-0.4-0.3l0.2-0.4v2.1h-1.3v-4.5
				c0-0.2,0-0.3,0.2-0.5c0.1-0.1,0.2-0.2,0.4-0.3s0.4-0.1,0.6-0.2s0.5-0.1,0.8-0.1c0.4,0,0.8,0.1,1.1,0.2c0.3,0.1,0.6,0.4,0.7,0.7
				c0.2,0.3,0.3,0.8,0.3,1.3c0,0.4-0.1,0.8-0.2,1.1c-0.1,0.3-0.3,0.6-0.6,0.7C402.5,81.9,402.2,82,401.9,82z M401.4,80.9
				c0.2,0,0.4,0,0.5-0.1c0.1-0.1,0.2-0.2,0.3-0.3c0.1-0.2,0.1-0.4,0.1-0.7c0-0.2,0-0.4-0.1-0.6s-0.1-0.3-0.3-0.3
				c-0.1-0.1-0.3-0.1-0.5-0.1c-0.2,0-0.4,0-0.5,0.1c-0.1,0-0.1,0.1-0.1,0.2v1.8c0.1,0,0.2,0.1,0.3,0.1
				C401.2,80.9,401.3,80.9,401.4,80.9z"/>
			<path class="st1" d="M406.2,82c-0.4,0-0.8-0.1-1.1-0.2c-0.3-0.2-0.6-0.4-0.7-0.7c-0.2-0.3-0.3-0.7-0.3-1.1c0-0.7,0.2-1.3,0.5-1.6
				c0.4-0.4,0.9-0.6,1.5-0.6c0.4,0,0.8,0.1,1.1,0.3c0.3,0.2,0.5,0.5,0.6,0.8c0.1,0.4,0.2,0.8,0.2,1.4h-3l-0.2-0.8h2.1l-0.2,0.4
				c0-0.4-0.1-0.7-0.2-0.9c-0.1-0.2-0.3-0.3-0.5-0.3c-0.1,0-0.2,0-0.3,0.1c-0.1,0.1-0.2,0.2-0.3,0.3c-0.1,0.2-0.1,0.4-0.1,0.6
				c0,0.4,0.1,0.6,0.3,0.8c0.2,0.2,0.5,0.3,0.9,0.3c0.1,0,0.3,0,0.4-0.1c0.1,0,0.3-0.1,0.4-0.1c0.1,0,0.2-0.1,0.3-0.1v1.1
				c-0.2,0.1-0.4,0.1-0.6,0.2C406.8,81.9,406.6,82,406.2,82z"/>
			<path class="st1" d="M408.9,81.8v-3.6c0.1-0.1,0.2-0.2,0.4-0.2c0.2-0.1,0.4-0.2,0.7-0.2c0.2-0.1,0.5-0.1,0.7-0.1
				c0.3,0,0.5,0,0.7,0.1c0.2,0,0.3,0.1,0.4,0.2v0.9c-0.1,0-0.2,0-0.3-0.1s-0.3,0-0.4,0c-0.2,0-0.3,0-0.4,0c-0.1,0-0.2,0-0.3,0v3.1
				H408.9z"/>
			<path class="st1" d="M413.7,81.8l-1.7-4h1.4l1.2,3h-0.3l1-3h1.4l-1.7,4H413.7z"/>
			<path class="st1" d="M417.4,77.3v-1h1.4v1H417.4z M417.4,81.8v-4h1.3l0,4H417.4z"/>
			<path class="st1" d="M420.9,82c-0.3,0-0.5,0-0.7-0.1c-0.2-0.1-0.4-0.1-0.6-0.2v-1.1c0.1,0.1,0.2,0.1,0.4,0.2
				c0.1,0.1,0.3,0.1,0.5,0.2s0.4,0.1,0.6,0.1c0.2,0,0.3,0,0.3-0.1s0.1-0.1,0.1-0.2s0-0.1-0.1-0.2c-0.1,0-0.2-0.1-0.3-0.1
				c-0.1,0-0.3-0.1-0.4-0.1c-0.1,0-0.2-0.1-0.4-0.1s-0.2-0.1-0.3-0.2c-0.1-0.1-0.2-0.2-0.2-0.4c-0.1-0.1-0.1-0.3-0.1-0.5
				c0-0.3,0.1-0.5,0.2-0.7c0.1-0.2,0.2-0.3,0.4-0.4s0.4-0.2,0.6-0.2c0.2,0,0.4-0.1,0.6-0.1c0.3,0,0.6,0,0.8,0.1
				c0.2,0.1,0.4,0.1,0.5,0.2l0,1c-0.2-0.1-0.4-0.2-0.5-0.3s-0.4-0.1-0.6-0.1c-0.2,0-0.3,0-0.4,0.1c-0.1,0.1-0.1,0.1-0.1,0.2
				s0,0.2,0.1,0.2c0.1,0,0.1,0.1,0.2,0.1s0.2,0.1,0.3,0.1c0.1,0,0.3,0.1,0.4,0.1c0.1,0,0.3,0.1,0.4,0.2c0.1,0.1,0.2,0.2,0.3,0.3
				c0.1,0.1,0.1,0.3,0.1,0.6c0,0.3-0.1,0.6-0.3,0.8s-0.4,0.3-0.7,0.4C421.6,81.9,421.3,82,420.9,82z"/>
			<path class="st1" d="M425.4,82c-0.7,0-1.2-0.2-1.6-0.5c-0.3-0.4-0.5-0.9-0.5-1.6c0-0.8,0.2-1.3,0.5-1.6c0.3-0.3,0.9-0.5,1.6-0.5
				c0.5,0,0.8,0.1,1.2,0.2c0.3,0.1,0.5,0.4,0.7,0.7c0.2,0.3,0.2,0.7,0.2,1.2c0,0.7-0.2,1.3-0.5,1.6C426.6,81.8,426.1,82,425.4,82z
				 M425.4,80.9c0.2,0,0.3,0,0.4-0.1s0.2-0.2,0.3-0.4s0.1-0.4,0.1-0.6c0-0.3,0-0.5-0.1-0.7c-0.1-0.2-0.2-0.3-0.3-0.3
				s-0.3-0.1-0.4-0.1c-0.2,0-0.3,0-0.4,0.1c-0.1,0.1-0.2,0.2-0.3,0.3c-0.1,0.2-0.1,0.4-0.1,0.7c0,0.4,0.1,0.7,0.2,0.9
				S425.2,80.9,425.4,80.9z"/>
			<path class="st1" d="M428.3,81.8v-3.6c0.1-0.1,0.2-0.2,0.4-0.2c0.2-0.1,0.4-0.2,0.7-0.2c0.2-0.1,0.5-0.1,0.7-0.1
				c0.3,0,0.5,0,0.7,0.1c0.2,0,0.3,0.1,0.4,0.2v0.9c-0.1,0-0.2,0-0.3-0.1s-0.3,0-0.4,0c-0.2,0-0.3,0-0.4,0c-0.1,0-0.2,0-0.3,0v3.1
				H428.3z"/>
		</g>
			</g>
</g>
<g id="cont_00000101799924550968910800000016171953388731397556_">
	<circle class="st2" cx="333" cy="160.3" r="6.5"/>
	<g>
		<g>
			<path class="st2" d="M346.5,167.7v-5.3h2.7c0.6,0,1.1,0.1,1.5,0.4c0.4,0.3,0.5,0.7,0.5,1.3c0,0.2,0,0.4-0.1,0.7
				c-0.1,0.2-0.2,0.4-0.4,0.6c-0.2,0.2-0.4,0.3-0.7,0.3l-0.2-0.5l1.6,2.5h-1.8l-1.3-2.3l0.6,0.5h-1v1.8H346.5z M347.9,164.9h1
				c0.2,0,0.3-0.1,0.5-0.2s0.2-0.3,0.2-0.6c0-0.2-0.1-0.4-0.2-0.5s-0.3-0.2-0.4-0.2h-1.1V164.9z"/>
			<path class="st2" d="M354.1,167.8c-0.4,0-0.8-0.1-1.1-0.2c-0.3-0.2-0.6-0.4-0.7-0.7c-0.2-0.3-0.3-0.7-0.3-1.1
				c0-0.7,0.2-1.3,0.5-1.6c0.4-0.4,0.9-0.6,1.5-0.6c0.4,0,0.8,0.1,1.1,0.3c0.3,0.2,0.5,0.5,0.6,0.8c0.1,0.4,0.2,0.8,0.2,1.4h-3
				l-0.2-0.8h2.1l-0.2,0.4c0-0.4-0.1-0.7-0.2-0.9c-0.1-0.2-0.3-0.3-0.5-0.3c-0.1,0-0.2,0-0.3,0.1c-0.1,0.1-0.2,0.2-0.3,0.3
				c-0.1,0.2-0.1,0.4-0.1,0.6c0,0.4,0.1,0.6,0.3,0.8c0.2,0.2,0.5,0.3,0.9,0.3c0.1,0,0.3,0,0.4-0.1c0.1,0,0.3-0.1,0.4-0.1
				c0.1,0,0.2-0.1,0.3-0.1v1.1c-0.2,0.1-0.4,0.1-0.6,0.2C354.7,167.8,354.4,167.8,354.1,167.8z"/>
			<path class="st2" d="M357.8,167.7l-1.7-4h1.4l1.2,3h-0.3l1-3h1.4l-1.7,4H357.8z"/>
			<path class="st2" d="M361.5,163.2v-1h1.4v1H361.5z M361.5,167.7v-4h1.3l0,4H361.5z"/>
			<path class="st2" d="M365.7,167.8c-0.4,0-0.8-0.1-1.1-0.2c-0.3-0.2-0.6-0.4-0.7-0.7c-0.2-0.3-0.3-0.7-0.3-1.1
				c0-0.7,0.2-1.3,0.5-1.6c0.4-0.4,0.9-0.6,1.5-0.6c0.4,0,0.8,0.1,1.1,0.3c0.3,0.2,0.5,0.5,0.6,0.8c0.1,0.4,0.2,0.8,0.2,1.4h-3
				l-0.2-0.8h2.1l-0.2,0.4c0-0.4-0.1-0.7-0.2-0.9c-0.1-0.2-0.3-0.3-0.5-0.3c-0.1,0-0.2,0-0.3,0.1c-0.1,0.1-0.2,0.2-0.3,0.3
				c-0.1,0.2-0.1,0.4-0.1,0.6c0,0.4,0.1,0.6,0.3,0.8c0.2,0.2,0.5,0.3,0.9,0.3c0.1,0,0.3,0,0.4-0.1c0.1,0,0.3-0.1,0.4-0.1
				c0.1,0,0.2-0.1,0.3-0.1v1.1c-0.2,0.1-0.4,0.1-0.6,0.2C366.3,167.8,366,167.8,365.7,167.8z"/>
			<path class="st2" d="M369.4,167.7l-1.4-4h1.4l0.9,3.2l-0.4,0l0.8-3.2h0.9l0.8,3.1h-0.3l0.8-3.1h1.4l-1.3,4h-1.2l-0.7-2.4l0.2,0
				l-0.7,2.4H369.4z"/>
			<path class="st2" d="M376.5,167.8c-0.4,0-0.8-0.1-1.1-0.2c-0.3-0.2-0.6-0.4-0.7-0.7c-0.2-0.3-0.3-0.7-0.3-1.1
				c0-0.7,0.2-1.3,0.5-1.6c0.4-0.4,0.9-0.6,1.5-0.6c0.4,0,0.8,0.1,1.1,0.3c0.3,0.2,0.5,0.5,0.6,0.8c0.1,0.4,0.2,0.8,0.2,1.4h-3
				l-0.2-0.8h2.1l-0.2,0.4c0-0.4-0.1-0.7-0.2-0.9c-0.1-0.2-0.3-0.3-0.5-0.3c-0.1,0-0.2,0-0.3,0.1c-0.1,0.1-0.2,0.2-0.3,0.3
				c-0.1,0.2-0.1,0.4-0.1,0.6c0,0.4,0.1,0.6,0.3,0.8c0.2,0.2,0.5,0.3,0.9,0.3c0.1,0,0.3,0,0.4-0.1c0.1,0,0.3-0.1,0.4-0.1
				c0.1,0,0.2-0.1,0.3-0.1v1.1c-0.2,0.1-0.4,0.1-0.6,0.2C377.1,167.8,376.9,167.8,376.5,167.8z"/>
			<path class="st2" d="M379.2,167.7v-3.6c0.1-0.1,0.2-0.2,0.4-0.2c0.2-0.1,0.4-0.2,0.7-0.2c0.2-0.1,0.5-0.1,0.7-0.1
				c0.3,0,0.5,0,0.7,0.1c0.2,0,0.3,0.1,0.4,0.2v0.9c-0.1,0-0.2,0-0.3-0.1s-0.3,0-0.4,0c-0.2,0-0.3,0-0.4,0c-0.1,0-0.2,0-0.3,0v3.1
				H379.2z"/>
		</g>
	</g>
</g>
<g id="rev_00000056390967341412102800000002851062745059291063_">
	<circle class="st3" cx="243.6" cy="212.1" r="6.5"/>
	<g>
		<g>
			<path class="st3" d="M253.1,229.3c-0.9,0-1.5-0.2-2-0.7c-0.5-0.4-0.7-1.1-0.7-2.1c0-0.9,0.2-1.6,0.6-2.1s1.1-0.7,2-0.7
				c0.3,0,0.6,0,0.9,0.1c0.3,0.1,0.6,0.2,0.8,0.3v1.2c-0.3-0.2-0.6-0.3-0.8-0.4c-0.3-0.1-0.5-0.1-0.7-0.1c-0.3,0-0.5,0.1-0.7,0.2
				c-0.2,0.1-0.4,0.3-0.5,0.5c-0.1,0.2-0.2,0.6-0.2,1c0,0.4,0.1,0.8,0.2,1c0.1,0.2,0.3,0.4,0.5,0.5c0.2,0.1,0.5,0.1,0.8,0.1
				c0.2,0,0.4,0,0.6-0.1c0.2-0.1,0.5-0.2,0.8-0.4v1.2c-0.1,0.1-0.3,0.1-0.5,0.2s-0.4,0.1-0.6,0.1
				C253.5,229.3,253.3,229.3,253.1,229.3z"/>
			<path class="st3" d="M257.6,229.3c-0.7,0-1.2-0.2-1.6-0.5c-0.3-0.4-0.5-0.9-0.5-1.6c0-0.8,0.2-1.3,0.5-1.6
				c0.3-0.3,0.9-0.5,1.6-0.5c0.5,0,0.8,0.1,1.2,0.2c0.3,0.1,0.5,0.4,0.7,0.7c0.2,0.3,0.2,0.7,0.2,1.2c0,0.7-0.2,1.3-0.5,1.6
				C258.8,229.2,258.3,229.3,257.6,229.3z M257.6,228.3c0.2,0,0.3,0,0.4-0.1c0.1-0.1,0.2-0.2,0.3-0.4s0.1-0.4,0.1-0.6
				c0-0.3,0-0.5-0.1-0.7c-0.1-0.2-0.2-0.3-0.3-0.3c-0.1-0.1-0.3-0.1-0.4-0.1c-0.2,0-0.3,0-0.4,0.1c-0.1,0.1-0.2,0.2-0.3,0.3
				c-0.1,0.2-0.1,0.4-0.1,0.7c0,0.4,0.1,0.7,0.2,0.9S257.3,228.3,257.6,228.3z"/>
			<path class="st3" d="M260.5,225.5c0.1-0.1,0.2-0.1,0.4-0.2c0.2-0.1,0.4-0.1,0.6-0.1c0.2,0,0.4-0.1,0.6-0.1c0.2,0,0.4,0,0.6,0
				c0.4,0,0.7,0,0.9,0.1c0.3,0.1,0.5,0.2,0.6,0.4c0.1,0.2,0.2,0.5,0.2,0.8v2.7h-1.3v-2.4c0-0.1,0-0.2,0-0.3s-0.1-0.1-0.1-0.2
				c-0.1-0.1-0.1-0.1-0.2-0.1s-0.2,0-0.3,0c-0.1,0-0.2,0-0.3,0c-0.1,0-0.2,0.1-0.2,0.1v2.9h-1.3V225.5z"/>
			<path class="st3" d="M267.1,229.4c-0.5,0-0.9-0.1-1.1-0.3s-0.4-0.6-0.4-1v-1.9h-0.6v-1h0.6v-1.1h1.4v1.1h0.9v1H267v1.8
				c0,0.1,0,0.2,0.1,0.3c0.1,0.1,0.1,0.1,0.3,0.1c0.1,0,0.2,0,0.3-0.1c0.1,0,0.2-0.1,0.2-0.1v1.1c-0.1,0.1-0.3,0.1-0.4,0.1
				C267.3,229.4,267.2,229.4,267.1,229.4z"/>
			<path class="st3" d="M268.7,229.2v-3.6c0.1-0.1,0.2-0.2,0.4-0.2c0.2-0.1,0.4-0.2,0.7-0.2c0.2-0.1,0.5-0.1,0.7-0.1
				c0.3,0,0.5,0,0.7,0.1c0.2,0,0.3,0.1,0.4,0.2v0.9c-0.1,0-0.2,0-0.3-0.1s-0.3,0-0.4,0c-0.2,0-0.3,0-0.4,0c-0.1,0-0.2,0-0.3,0v3.1
				H268.7z"/>
			<path class="st3" d="M274,229.3c-0.7,0-1.2-0.2-1.6-0.5c-0.3-0.4-0.5-0.9-0.5-1.6c0-0.8,0.2-1.3,0.5-1.6c0.3-0.3,0.9-0.5,1.6-0.5
				c0.5,0,0.8,0.1,1.2,0.2c0.3,0.1,0.5,0.4,0.7,0.7c0.2,0.3,0.2,0.7,0.2,1.2c0,0.7-0.2,1.3-0.5,1.6
				C275.2,229.2,274.6,229.3,274,229.3z M274,228.3c0.2,0,0.3,0,0.4-0.1s0.2-0.2,0.3-0.4s0.1-0.4,0.1-0.6c0-0.3,0-0.5-0.1-0.7
				c-0.1-0.2-0.2-0.3-0.3-0.3s-0.3-0.1-0.4-0.1c-0.2,0-0.3,0-0.4,0.1c-0.1,0.1-0.2,0.2-0.3,0.3c-0.1,0.2-0.1,0.4-0.1,0.7
				c0,0.4,0.1,0.7,0.2,0.9S273.7,228.3,274,228.3z"/>
			<path class="st3" d="M278.1,229.2h-1.3v-5.5h1.3V229.2z"/>
			<path class="st3" d="M280.4,229.2h-1.3v-5.5h1.3V229.2z"/>
			<path class="st3" d="M283.3,229.3c-0.4,0-0.8-0.1-1.1-0.2c-0.3-0.2-0.6-0.4-0.7-0.7c-0.2-0.3-0.3-0.7-0.3-1.1
				c0-0.7,0.2-1.3,0.5-1.6c0.4-0.4,0.9-0.6,1.5-0.6c0.4,0,0.8,0.1,1.1,0.3c0.3,0.2,0.5,0.5,0.6,0.8c0.1,0.4,0.2,0.8,0.2,1.4h-3
				l-0.2-0.8h2.1l-0.2,0.4c0-0.4-0.1-0.7-0.2-0.9c-0.1-0.2-0.3-0.3-0.5-0.3c-0.1,0-0.2,0-0.3,0.1c-0.1,0.1-0.2,0.2-0.3,0.3
				c-0.1,0.2-0.1,0.4-0.1,0.6c0,0.4,0.1,0.6,0.3,0.8c0.2,0.2,0.5,0.3,0.9,0.3c0.1,0,0.3,0,0.4-0.1c0.1,0,0.3-0.1,0.4-0.1
				c0.1,0,0.2-0.1,0.3-0.1v1.1c-0.2,0.1-0.4,0.1-0.6,0.2C283.9,229.3,283.6,229.3,283.3,229.3z"/>
			<path class="st3" d="M285.9,229.2v-3.6c0.1-0.1,0.2-0.2,0.4-0.2c0.2-0.1,0.4-0.2,0.7-0.2c0.2-0.1,0.5-0.1,0.7-0.1
				c0.3,0,0.5,0,0.7,0.1c0.2,0,0.3,0.1,0.4,0.2v0.9c-0.1,0-0.2,0-0.3-0.1s-0.3,0-0.4,0c-0.2,0-0.3,0-0.4,0c-0.1,0-0.2,0-0.3,0v3.1
				H285.9z"/>
		</g>
		
	</g>
</g>
<g id="inves_00000116922964888135004620000010252995607236025986_">
	<circle class="st4" cx="123.4" cy="202.9" r="6.5"/>
	<g>
		<g>
			<path class="st4" d="M120.7,224.3V219h1.4v5.3H120.7z"/>
			<path class="st4" d="M123.2,220.6c0.1-0.1,0.2-0.1,0.4-0.2c0.2-0.1,0.4-0.1,0.6-0.1c0.2,0,0.4-0.1,0.6-0.1c0.2,0,0.4,0,0.6,0
				c0.4,0,0.7,0,0.9,0.1c0.3,0.1,0.5,0.2,0.6,0.4c0.1,0.2,0.2,0.5,0.2,0.8v2.7h-1.3v-2.4c0-0.1,0-0.2,0-0.3s-0.1-0.1-0.1-0.2
				c-0.1-0.1-0.1-0.1-0.2-0.1s-0.2,0-0.3,0c-0.1,0-0.2,0-0.3,0c-0.1,0-0.2,0.1-0.2,0.1v2.9h-1.3V220.6z"/>
			<path class="st4" d="M129.3,224.3l-1.7-4h1.4l1.2,3h-0.3l1-3h1.4l-1.7,4H129.3z"/>
			<path class="st4" d="M134.6,224.4c-0.4,0-0.8-0.1-1.1-0.2c-0.3-0.2-0.6-0.4-0.7-0.7c-0.2-0.3-0.3-0.7-0.3-1.1
				c0-0.7,0.2-1.3,0.5-1.6c0.4-0.4,0.9-0.6,1.5-0.6c0.4,0,0.8,0.1,1.1,0.3c0.3,0.2,0.5,0.5,0.6,0.8c0.1,0.4,0.2,0.8,0.2,1.4h-3
				l-0.2-0.8h2.1l-0.2,0.4c0-0.4-0.1-0.7-0.2-0.9c-0.1-0.2-0.3-0.3-0.5-0.3c-0.1,0-0.2,0-0.3,0.1c-0.1,0.1-0.2,0.2-0.3,0.3
				c-0.1,0.2-0.1,0.4-0.1,0.6c0,0.4,0.1,0.6,0.3,0.8c0.2,0.2,0.5,0.3,0.9,0.3c0.1,0,0.3,0,0.4-0.1c0.1,0,0.3-0.1,0.4-0.1
				c0.1,0,0.2-0.1,0.3-0.1v1.1c-0.2,0.1-0.4,0.1-0.6,0.2C135.2,224.4,134.9,224.4,134.6,224.4z"/>
			<path class="st4" d="M138.4,224.4c-0.3,0-0.5,0-0.7-0.1c-0.2-0.1-0.4-0.1-0.6-0.2V223c0.1,0.1,0.2,0.1,0.4,0.2
				c0.1,0.1,0.3,0.1,0.5,0.2s0.4,0.1,0.6,0.1c0.2,0,0.3,0,0.3-0.1s0.1-0.1,0.1-0.2s0-0.1-0.1-0.2c-0.1,0-0.2-0.1-0.3-0.1
				c-0.1,0-0.3-0.1-0.4-0.1c-0.1,0-0.2-0.1-0.4-0.1s-0.2-0.1-0.3-0.2c-0.1-0.1-0.2-0.2-0.2-0.4c-0.1-0.1-0.1-0.3-0.1-0.5
				c0-0.3,0.1-0.5,0.2-0.7c0.1-0.2,0.2-0.3,0.4-0.4s0.4-0.2,0.6-0.2c0.2,0,0.4-0.1,0.6-0.1c0.3,0,0.6,0,0.8,0.1
				c0.2,0.1,0.4,0.1,0.5,0.2l0,1c-0.2-0.1-0.4-0.2-0.5-0.3s-0.4-0.1-0.6-0.1c-0.2,0-0.3,0-0.4,0.1c-0.1,0.1-0.1,0.1-0.1,0.2
				s0,0.2,0.1,0.2c0.1,0,0.1,0.1,0.2,0.1s0.2,0.1,0.3,0.1c0.1,0,0.3,0.1,0.4,0.1c0.1,0,0.3,0.1,0.4,0.2c0.1,0.1,0.2,0.2,0.3,0.3
				c0.1,0.1,0.1,0.3,0.1,0.6c0,0.3-0.1,0.6-0.3,0.8s-0.4,0.3-0.7,0.4C139,224.4,138.7,224.4,138.4,224.4z"/>
			<path class="st4" d="M142.8,224.5c-0.5,0-0.9-0.1-1.1-0.3s-0.4-0.6-0.4-1v-1.9h-0.6v-1h0.6v-1.1h1.4v1.1h0.9v1h-0.9v1.8
				c0,0.1,0,0.2,0.1,0.3c0.1,0.1,0.1,0.1,0.3,0.1c0.1,0,0.2,0,0.3-0.1c0.1,0,0.2-0.1,0.2-0.1v1.1c-0.1,0.1-0.3,0.1-0.4,0.1
				C143,224.5,142.9,224.5,142.8,224.5z"/>
			<path class="st4" d="M144.4,219.8v-1h1.4v1H144.4z M144.4,224.3v-4h1.3l0,4H144.4z"/>
			<path class="st4" d="M148.3,224.4c-0.4,0-0.7-0.1-0.9-0.2c-0.3-0.1-0.5-0.4-0.6-0.7c-0.1-0.3-0.2-0.7-0.2-1.1
				c0-0.4,0.1-0.8,0.2-1.1c0.1-0.3,0.3-0.5,0.5-0.7c0.2-0.2,0.4-0.3,0.7-0.4c0.3-0.1,0.6-0.1,1-0.1c0.4,0,0.7,0,0.9,0.1
				c0.3,0.1,0.4,0.2,0.6,0.4s0.2,0.4,0.2,0.6v3.1c0,0.3,0,0.6-0.1,0.8s-0.2,0.4-0.4,0.6c-0.2,0.1-0.4,0.3-0.7,0.3s-0.6,0.1-0.9,0.1
				c-0.4,0-0.7,0-1-0.1c-0.3-0.1-0.5-0.1-0.6-0.2v-1.2c0.1,0,0.2,0.1,0.4,0.1c0.2,0.1,0.3,0.1,0.5,0.1c0.2,0,0.4,0.1,0.6,0.1
				c0.2,0,0.4,0,0.5-0.1c0.1-0.1,0.2-0.2,0.3-0.3s0.1-0.2,0.1-0.4v-0.7l0.2,0.2c-0.1,0.1-0.2,0.2-0.3,0.3c-0.1,0.1-0.2,0.2-0.4,0.2
				S148.5,224.4,148.3,224.4z M148.7,223.5c0.1,0,0.2,0,0.3,0s0.2-0.1,0.3-0.1v-1.7c0-0.1,0-0.2-0.1-0.2s-0.1-0.1-0.2-0.1
				c-0.1,0-0.2,0-0.3,0c-0.2,0-0.4,0-0.5,0.1s-0.2,0.2-0.3,0.4c-0.1,0.2-0.1,0.4-0.1,0.6c0,0.3,0.1,0.6,0.2,0.8
				C148.2,223.4,148.4,223.5,148.7,223.5z"/>
			<path class="st4" d="M153.1,224.4c-0.3,0-0.5,0-0.7-0.1s-0.4-0.1-0.6-0.2c-0.2-0.1-0.3-0.3-0.4-0.4c-0.1-0.2-0.1-0.4-0.1-0.7
				c0-0.2,0-0.4,0.2-0.6c0.1-0.2,0.3-0.3,0.5-0.4c0.2-0.1,0.5-0.2,0.8-0.2c0.2,0,0.3,0,0.5,0.1c0.2,0,0.3,0.1,0.5,0.2
				s0.2,0.1,0.3,0.2l0,0.6c-0.1-0.1-0.2-0.1-0.4-0.1c-0.1,0-0.3-0.1-0.4-0.1c-0.2,0-0.4,0-0.5,0.1c-0.1,0.1-0.2,0.2-0.2,0.3
				c0,0.1,0,0.2,0.1,0.2c0.1,0.1,0.1,0.1,0.2,0.2c0.1,0,0.2,0.1,0.3,0.1c0.3,0,0.4,0,0.5,0c0.1,0,0.1-0.1,0.1-0.2v-1.4
				c0-0.2-0.1-0.4-0.2-0.5c-0.2-0.1-0.4-0.2-0.6-0.2c-0.2,0-0.5,0-0.7,0.1c-0.2,0.1-0.4,0.2-0.6,0.3v-1.2c0.1-0.1,0.3-0.2,0.6-0.2
				s0.6-0.1,1-0.1c0.1,0,0.2,0,0.4,0c0.2,0,0.3,0.1,0.5,0.1c0.2,0.1,0.3,0.1,0.5,0.2c0.1,0.1,0.3,0.2,0.3,0.4
				c0.1,0.2,0.1,0.4,0.1,0.6l0,1.9c0,0.2-0.1,0.4-0.2,0.5c-0.2,0.1-0.4,0.2-0.7,0.3C153.9,224.4,153.5,224.4,153.1,224.4z"/>
			<path class="st4" d="M157.8,224.5c-0.5,0-0.9-0.1-1.1-0.3s-0.4-0.6-0.4-1v-1.9h-0.6v-1h0.6v-1.1h1.4v1.1h0.9v1h-0.9v1.8
				c0,0.1,0,0.2,0.1,0.3c0.1,0.1,0.1,0.1,0.3,0.1c0.1,0,0.2,0,0.3-0.1c0.1,0,0.2-0.1,0.2-0.1v1.1c-0.1,0.1-0.3,0.1-0.4,0.1
				C158.1,224.5,157.9,224.5,157.8,224.5z"/>
			<path class="st4" d="M161.3,224.4c-0.7,0-1.2-0.2-1.6-0.5c-0.3-0.4-0.5-0.9-0.5-1.6c0-0.8,0.2-1.3,0.5-1.6
				c0.3-0.3,0.9-0.5,1.6-0.5c0.5,0,0.8,0.1,1.2,0.2c0.3,0.1,0.5,0.4,0.7,0.7c0.2,0.3,0.2,0.7,0.2,1.2c0,0.7-0.2,1.3-0.5,1.6
				C162.5,224.2,162,224.4,161.3,224.4z M161.3,223.4c0.2,0,0.3,0,0.4-0.1s0.2-0.2,0.3-0.4s0.1-0.4,0.1-0.6c0-0.3,0-0.5-0.1-0.7
				c-0.1-0.2-0.2-0.3-0.3-0.3s-0.3-0.1-0.4-0.1c-0.2,0-0.3,0-0.4,0.1c-0.1,0.1-0.2,0.2-0.3,0.3c-0.1,0.2-0.1,0.4-0.1,0.7
				c0,0.4,0.1,0.7,0.2,0.9S161,223.4,161.3,223.4z"/>
			<path class="st4" d="M164.2,224.3v-3.6c0.1-0.1,0.2-0.2,0.4-0.2c0.2-0.1,0.4-0.2,0.7-0.2c0.2-0.1,0.5-0.1,0.7-0.1
				c0.3,0,0.5,0,0.7,0.1c0.2,0,0.3,0.1,0.4,0.2v0.9c-0.1,0-0.2,0-0.3-0.1s-0.3,0-0.4,0c-0.2,0-0.3,0-0.4,0c-0.1,0-0.2,0-0.3,0v3.1
				H164.2z"/>
		</g>
		
	</g>
</g>
</svg>
