<?xml version="1.0" encoding="utf-8"?>
<!-- Generator: Adobe Illustrator 26.0.1, SVG Export Plug-In . SVG Version: 6.00 Build 0)  -->
<svg version="1.1" id="Layer_1" xmlns="http://www.w3.org/2000/svg" xmlns:xlink="http://www.w3.org/1999/xlink" x="0px" y="0px"
	 viewBox="0 0 370.3 56.3" style="enable-background:new 0 0 370.3 56.3;" xml:space="preserve">
<style type="text/css">
	.st0{fill:#00A995;}
	.st1{fill:#FFFFFF;}
	.st2{fill:#253E53;}
	.st3{fill:#FCB74E;}
	.st4{fill:#343375;}
	.st5{fill:#0098A2;}
</style>
<g>
	<g>
		<path class="st0" d="M342.1,56.3h-314C12.7,56.3,0,43.6,0,28.1v0C0,12.7,12.7,0,28.1,0l314,0c15.5,0,28.1,12.7,28.1,28.1v0
			C370.3,43.6,357.6,56.3,342.1,56.3z"/>
		<g>
			<path class="st1" d="M314.4,30.8c-0.9,0-1.6-0.2-2.1-0.7c-0.5-0.5-0.7-1.2-0.7-2.2c0-1,0.2-1.7,0.7-2.2s1.2-0.7,2.1-0.7
				c0.3,0,0.6,0,0.9,0.1c0.3,0.1,0.6,0.2,0.9,0.3v1.3c-0.3-0.2-0.6-0.3-0.9-0.4c-0.3-0.1-0.5-0.1-0.7-0.1c-0.3,0-0.6,0.1-0.8,0.2
				s-0.4,0.3-0.5,0.5c-0.1,0.3-0.2,0.6-0.2,1.1c0,0.4,0.1,0.8,0.2,1c0.1,0.3,0.3,0.4,0.5,0.5c0.2,0.1,0.5,0.2,0.8,0.2
				c0.2,0,0.4,0,0.7-0.1s0.5-0.2,0.8-0.4v1.3c-0.2,0.1-0.3,0.1-0.5,0.2s-0.4,0.1-0.6,0.1C314.8,30.8,314.6,30.8,314.4,30.8z"/>
			<path class="st1" d="M319.1,30.9c-0.7,0-1.3-0.2-1.7-0.6c-0.4-0.4-0.5-1-0.5-1.7c0-0.8,0.2-1.4,0.6-1.7c0.4-0.3,0.9-0.5,1.6-0.5
				c0.5,0,0.9,0.1,1.2,0.2c0.3,0.2,0.6,0.4,0.8,0.7s0.3,0.8,0.3,1.3c0,0.8-0.2,1.3-0.6,1.7C320.3,30.7,319.8,30.9,319.1,30.9z
				 M319.1,29.8c0.2,0,0.3,0,0.5-0.1c0.1-0.1,0.2-0.2,0.3-0.4c0.1-0.2,0.1-0.4,0.1-0.7c0-0.3,0-0.5-0.1-0.7
				c-0.1-0.2-0.2-0.3-0.3-0.4s-0.3-0.1-0.5-0.1c-0.2,0-0.3,0-0.5,0.1c-0.1,0.1-0.2,0.2-0.3,0.4c-0.1,0.2-0.1,0.4-0.1,0.7
				c0,0.4,0.1,0.7,0.2,0.9C318.6,29.7,318.8,29.8,319.1,29.8z"/>
			<path class="st1" d="M322.1,26.8c0.1-0.1,0.2-0.1,0.4-0.2c0.2-0.1,0.4-0.1,0.6-0.2c0.2,0,0.4-0.1,0.7-0.1c0.2,0,0.4,0,0.6,0
				c0.4,0,0.7,0,1,0.1s0.5,0.2,0.6,0.5c0.1,0.2,0.2,0.5,0.2,0.9v2.9h-1.4v-2.6c0-0.1,0-0.2,0-0.3c0-0.1-0.1-0.2-0.1-0.2
				s-0.1-0.1-0.2-0.1c-0.1,0-0.2,0-0.3,0c-0.1,0-0.2,0-0.3,0c-0.1,0-0.2,0.1-0.2,0.1v3.1h-1.4V26.8z"/>
			<path class="st1" d="M329.3,30.8c-0.3,0-0.6,0-0.9-0.1c-0.3-0.1-0.5-0.2-0.7-0.4s-0.4-0.4-0.5-0.7c-0.1-0.3-0.2-0.6-0.2-0.9
				c0-0.4,0.1-0.7,0.2-1c0.1-0.3,0.3-0.5,0.5-0.7c0.2-0.2,0.4-0.3,0.7-0.4c0.3-0.1,0.6-0.2,0.9-0.2c0.2,0,0.5,0,0.7,0.1
				c0.2,0,0.5,0.1,0.6,0.2v1.2c-0.2-0.1-0.4-0.2-0.6-0.2s-0.4-0.1-0.6-0.1c-0.3,0-0.6,0.1-0.8,0.2c-0.2,0.2-0.3,0.4-0.3,0.8
				c0,0.4,0.1,0.7,0.3,0.9c0.2,0.2,0.5,0.3,0.9,0.3c0.2,0,0.4,0,0.6-0.1s0.4-0.2,0.5-0.2v1.2c-0.2,0.1-0.4,0.2-0.6,0.3
				C329.9,30.8,329.6,30.8,329.3,30.8z"/>
			<path class="st1" d="M332.9,30.7h-1.4v-5.9h1.4V30.7z"/>
			<path class="st1" d="M336,30.9c-0.4,0-0.8-0.1-1.1-0.2s-0.5-0.3-0.7-0.6c-0.2-0.3-0.3-0.6-0.3-1v-2.6h1.4V29
				c0,0.2,0.1,0.4,0.2,0.5s0.3,0.2,0.5,0.2c0.2,0,0.4-0.1,0.5-0.2s0.2-0.3,0.2-0.5v-2.5h1.3v2.6c0,0.6-0.2,1.1-0.5,1.3
				C337.1,30.7,336.6,30.9,336,30.9z"/>
			<path class="st1" d="M340.3,30.9c-0.3,0-0.6,0-0.8-0.1c-0.2-0.1-0.4-0.1-0.6-0.2v-1.2c0.1,0.1,0.2,0.1,0.4,0.2s0.3,0.1,0.5,0.2
				c0.2,0.1,0.4,0.1,0.6,0.1c0.2,0,0.3,0,0.4-0.1c0.1-0.1,0.1-0.1,0.1-0.2s0-0.1-0.1-0.2c-0.1-0.1-0.2-0.1-0.3-0.1
				c-0.1,0-0.3-0.1-0.4-0.1c-0.1,0-0.3-0.1-0.4-0.1s-0.2-0.1-0.3-0.2s-0.2-0.2-0.2-0.4c-0.1-0.2-0.1-0.3-0.1-0.5
				c0-0.3,0.1-0.5,0.2-0.7c0.1-0.2,0.3-0.3,0.4-0.5c0.2-0.1,0.4-0.2,0.6-0.2c0.2,0,0.4-0.1,0.6-0.1c0.4,0,0.7,0,0.9,0.1
				s0.4,0.2,0.6,0.3l0,1c-0.2-0.1-0.4-0.2-0.6-0.3c-0.2-0.1-0.4-0.1-0.7-0.1c-0.2,0-0.4,0-0.4,0.1s-0.1,0.1-0.1,0.2
				c0,0.1,0,0.2,0.1,0.2c0.1,0.1,0.1,0.1,0.2,0.1c0.1,0,0.2,0.1,0.3,0.1c0.1,0,0.3,0.1,0.4,0.1c0.2,0,0.3,0.1,0.4,0.2
				c0.1,0.1,0.2,0.2,0.3,0.4c0.1,0.2,0.1,0.4,0.1,0.6c0,0.4-0.1,0.6-0.3,0.8c-0.2,0.2-0.4,0.3-0.7,0.4
				C341,30.8,340.7,30.9,340.3,30.9z"/>
			<path class="st1" d="M343.1,25.9v-1h1.4v1H343.1z M343.2,30.7v-4.2h1.4l0,4.2H343.2z"/>
			<path class="st1" d="M347.6,30.9c-0.7,0-1.3-0.2-1.7-0.6c-0.4-0.4-0.5-1-0.5-1.7c0-0.8,0.2-1.4,0.6-1.7c0.4-0.3,0.9-0.5,1.6-0.5
				c0.5,0,0.9,0.1,1.2,0.2c0.3,0.2,0.6,0.4,0.8,0.7s0.3,0.8,0.3,1.3c0,0.8-0.2,1.3-0.6,1.7C348.8,30.7,348.3,30.9,347.6,30.9z
				 M347.6,29.8c0.2,0,0.3,0,0.5-0.1c0.1-0.1,0.2-0.2,0.3-0.4c0.1-0.2,0.1-0.4,0.1-0.7c0-0.3,0-0.5-0.1-0.7
				c-0.1-0.2-0.2-0.3-0.3-0.4s-0.3-0.1-0.5-0.1c-0.2,0-0.3,0-0.5,0.1c-0.1,0.1-0.2,0.2-0.3,0.4c-0.1,0.2-0.1,0.4-0.1,0.7
				c0,0.4,0.1,0.7,0.2,0.9C347.1,29.7,347.3,29.8,347.6,29.8z"/>
			<path class="st1" d="M350.6,26.8c0.1-0.1,0.2-0.1,0.4-0.2c0.2-0.1,0.4-0.1,0.6-0.2c0.2,0,0.4-0.1,0.7-0.1c0.2,0,0.4,0,0.6,0
				c0.4,0,0.7,0,1,0.1s0.5,0.2,0.6,0.5c0.1,0.2,0.2,0.5,0.2,0.9v2.9h-1.4v-2.6c0-0.1,0-0.2,0-0.3c0-0.1-0.1-0.2-0.1-0.2
				s-0.1-0.1-0.2-0.1c-0.1,0-0.2,0-0.3,0c-0.1,0-0.2,0-0.3,0c-0.1,0-0.2,0.1-0.2,0.1v3.1h-1.4V26.8z"/>
		</g>
	</g>
	<g>
		<path class="st2" d="M267.5,56.3H28.1C12.7,56.3,0,43.6,0,28.1v0C0,12.7,12.7,0,28.1,0l239.4,0c15.5,0,28.1,12.7,28.1,28.1v0
			C295.7,43.6,283,56.3,267.5,56.3z"/>
		<g>
			<g>
				<path class="st1" d="M234.2,23.8v-5.6h1.3l2.8,3.7l-0.5,1v-4.6h1.4v5.6H238l-2.8-3.6l0.3-0.7v4.2H234.2z"/>
				<path class="st1" d="M240.4,21.7v-0.9h2.6v0.9H240.4z"/>
				<path class="st1" d="M244.2,23.8v-5.6h2.8c0.6,0,1.2,0.1,1.5,0.4c0.4,0.3,0.6,0.8,0.6,1.4c0,0.2,0,0.5-0.1,0.7
					c-0.1,0.2-0.2,0.4-0.4,0.6c-0.2,0.2-0.4,0.3-0.7,0.4l-0.2-0.5l1.7,2.6h-1.9l-1.4-2.4l0.7,0.6h-1.1v1.9H244.2z M245.7,20.9h1.1
					c0.2,0,0.3-0.1,0.5-0.2c0.1-0.1,0.2-0.3,0.2-0.6c0-0.2-0.1-0.4-0.2-0.5c-0.1-0.1-0.3-0.2-0.5-0.2h-1.1V20.9z"/>
				<path class="st1" d="M252.2,23.9c-0.4,0-0.8-0.1-1.2-0.3c-0.3-0.2-0.6-0.4-0.8-0.8c-0.2-0.3-0.3-0.7-0.3-1.2
					c0-0.7,0.2-1.3,0.6-1.7s0.9-0.6,1.6-0.6c0.5,0,0.9,0.1,1.1,0.3c0.3,0.2,0.5,0.5,0.6,0.9c0.1,0.4,0.2,0.9,0.2,1.5H251l-0.2-0.8
					h2.2l-0.2,0.5c0-0.5-0.1-0.8-0.2-1c-0.1-0.2-0.3-0.3-0.5-0.3c-0.1,0-0.3,0-0.4,0.1c-0.1,0.1-0.2,0.2-0.3,0.4s-0.1,0.4-0.1,0.7
					c0,0.4,0.1,0.7,0.3,0.9c0.2,0.2,0.5,0.3,0.9,0.3c0.2,0,0.3,0,0.5-0.1c0.2,0,0.3-0.1,0.4-0.1c0.1-0.1,0.2-0.1,0.3-0.1v1.2
					c-0.2,0.1-0.4,0.1-0.7,0.2S252.5,23.9,252.2,23.9z"/>
				<path class="st1" d="M256.1,23.8l-1.8-4.3h1.5l1.2,3.2h-0.3l1.1-3.2h1.5l-1.8,4.3H256.1z"/>
				<path class="st1" d="M260,19v-1h1.4v1H260z M260,23.8v-4.2h1.4l0,4.2H260z"/>
				<path class="st1" d="M264.5,23.9c-0.4,0-0.8-0.1-1.2-0.3c-0.3-0.2-0.6-0.4-0.8-0.8c-0.2-0.3-0.3-0.7-0.3-1.2
					c0-0.7,0.2-1.3,0.6-1.7s0.9-0.6,1.6-0.6c0.5,0,0.9,0.1,1.1,0.3c0.3,0.2,0.5,0.5,0.6,0.9c0.1,0.4,0.2,0.9,0.2,1.5h-3.2l-0.2-0.8
					h2.2l-0.2,0.5c0-0.5-0.1-0.8-0.2-1c-0.1-0.2-0.3-0.3-0.5-0.3c-0.1,0-0.3,0-0.4,0.1c-0.1,0.1-0.2,0.2-0.3,0.4s-0.1,0.4-0.1,0.7
					c0,0.4,0.1,0.7,0.3,0.9c0.2,0.2,0.5,0.3,0.9,0.3c0.2,0,0.3,0,0.5-0.1c0.2,0,0.3-0.1,0.4-0.1c0.1-0.1,0.2-0.1,0.3-0.1v1.2
					c-0.2,0.1-0.4,0.1-0.7,0.2S264.8,23.9,264.5,23.9z"/>
				<path class="st1" d="M268.3,23.8l-1.4-4.3h1.5l0.9,3.4l-0.4,0l0.9-3.4h1l0.8,3.3h-0.4l0.9-3.3h1.5l-1.4,4.3h-1.2l-0.8-2.5l0.2,0
					l-0.7,2.5H268.3z"/>
				<path class="st1" d="M275.5,23.9c-0.3,0-0.6,0-0.8-0.1c-0.2-0.1-0.4-0.1-0.6-0.2v-1.2c0.1,0.1,0.2,0.1,0.4,0.2s0.3,0.1,0.5,0.2
					c0.2,0.1,0.4,0.1,0.6,0.1c0.2,0,0.3,0,0.4-0.1c0.1-0.1,0.1-0.1,0.1-0.2s0-0.1-0.1-0.2c-0.1-0.1-0.2-0.1-0.3-0.1
					c-0.1,0-0.3-0.1-0.4-0.1c-0.1,0-0.3-0.1-0.4-0.1s-0.2-0.1-0.3-0.2s-0.2-0.2-0.2-0.4c-0.1-0.2-0.1-0.3-0.1-0.5
					c0-0.3,0.1-0.5,0.2-0.7c0.1-0.2,0.3-0.3,0.4-0.5c0.2-0.1,0.4-0.2,0.6-0.2c0.2,0,0.4-0.1,0.6-0.1c0.4,0,0.7,0,0.9,0.1
					s0.4,0.2,0.6,0.3l0,1c-0.2-0.1-0.4-0.2-0.6-0.3c-0.2-0.1-0.4-0.1-0.7-0.1c-0.2,0-0.4,0-0.4,0.1s-0.1,0.1-0.1,0.2
					c0,0.1,0,0.2,0.1,0.2c0.1,0.1,0.1,0.1,0.2,0.1c0.1,0,0.2,0.1,0.3,0.1c0.1,0,0.3,0.1,0.4,0.1c0.2,0,0.3,0.1,0.4,0.2
					c0.1,0.1,0.2,0.2,0.3,0.4c0.1,0.2,0.1,0.4,0.1,0.6c0,0.4-0.1,0.6-0.3,0.8c-0.2,0.2-0.4,0.3-0.7,0.4
					C276.2,23.9,275.9,23.9,275.5,23.9z"/>
			</g>
			<g>
				<path class="st1" d="M234.6,31.5v-3.7h1.2c0.8,0,1.2,0.3,1.2,1c0,0.1,0,0.2,0,0.3s-0.1,0.2-0.1,0.2s-0.1,0.1-0.1,0.1
					s-0.1,0.1-0.1,0.1l0,0c0,0,0,0,0.1,0s0.1,0,0.1,0.1c0.1,0,0.1,0.1,0.2,0.2s0.1,0.2,0.1,0.3s0.1,0.2,0.1,0.4
					c0,0.7-0.4,1.1-1.3,1.1H234.6z M235,29.4h0.9c0.2,0,0.4,0,0.5-0.1c0.1-0.1,0.2-0.2,0.2-0.5c0-0.2-0.1-0.4-0.2-0.5
					s-0.3-0.1-0.6-0.1H235V29.4z M235,31.1h1c0.3,0,0.5,0,0.7-0.1c0.2-0.1,0.2-0.3,0.2-0.5c0-0.1,0-0.2-0.1-0.3s-0.1-0.1-0.1-0.2
					s-0.1-0.1-0.2-0.1s-0.2,0-0.2,0c-0.1,0-0.2,0-0.3,0h-1V31.1z"/>
				<path class="st1" d="M238,31.5v-3.8h0.4v3.8H238z"/>
				<path class="st1" d="M239.3,28.3v-0.4h0.4v0.4H239.3z M239.3,31.5h0.4v-2.8h-0.4V31.5z"/>
				<path class="st1" d="M240.6,31.5V29c0.4-0.2,0.8-0.3,1.2-0.3c0.3,0,0.6,0.1,0.8,0.3s0.3,0.4,0.3,0.7v1.8h-0.4v-1.8
					c0-0.1,0-0.1,0-0.2c0-0.1,0-0.1-0.1-0.2c0-0.1-0.1-0.1-0.2-0.2s-0.2-0.1-0.4-0.1c-0.2,0-0.5,0-0.7,0.1v2.3H240.6z"/>
				<path class="st1" d="M243.6,30.1c0-0.3,0-0.5,0.1-0.7s0.2-0.3,0.3-0.4c0.1-0.1,0.3-0.2,0.4-0.2s0.3-0.1,0.4-0.1
					c0.2,0,0.5,0,0.7,0.1v-1.1h0.4v3c0,0.1,0,0.2,0,0.2c0,0.1-0.1,0.2-0.1,0.3c-0.1,0.1-0.2,0.2-0.4,0.3c-0.2,0.1-0.4,0.1-0.6,0.1
					c-0.1,0-0.2,0-0.3,0c-0.1,0-0.2-0.1-0.3-0.1c-0.1-0.1-0.2-0.1-0.3-0.2s-0.2-0.2-0.2-0.4S243.6,30.3,243.6,30.1z M244,30.1
					c0,0.2,0,0.4,0.1,0.6s0.1,0.3,0.2,0.3c0.1,0.1,0.2,0.1,0.3,0.1c0.1,0,0.2,0,0.3,0c0.5,0,0.7-0.2,0.7-0.5v-1.5
					c-0.2-0.1-0.5-0.1-0.7-0.1c-0.3,0-0.5,0.1-0.7,0.2C244,29.5,244,29.7,244,30.1z"/>
				<path class="st1" d="M246.6,30.2C246.6,30.2,246.6,30.2,246.6,30.2C246.6,30.1,246.6,30.1,246.6,30.2c0-1,0.4-1.5,1.2-1.5
					c0.2,0,0.3,0,0.5,0.1c0.1,0.1,0.2,0.1,0.3,0.2s0.2,0.2,0.2,0.3c0.1,0.1,0.1,0.2,0.1,0.3c0,0.1,0,0.2,0.1,0.3c0,0.1,0,0.2,0,0.2
					v0.1l0,0.2h-2c0,0.3,0.1,0.5,0.3,0.6c0.1,0.1,0.4,0.2,0.6,0.2c0.4,0,0.7-0.1,0.9-0.2v0.4c-0.3,0.1-0.6,0.2-1,0.2c0,0,0,0,0,0
					c-0.2,0-0.3,0-0.4-0.1c-0.1,0-0.3-0.1-0.4-0.2s-0.2-0.2-0.3-0.4C246.6,30.7,246.6,30.4,246.6,30.2z M247,30h1.6
					c0-0.1,0-0.1,0-0.2c0-0.1,0-0.2-0.1-0.3c0-0.1-0.1-0.2-0.2-0.3c-0.1-0.1-0.3-0.1-0.4-0.1c-0.3,0-0.5,0.1-0.6,0.2
					C247.1,29.4,247,29.7,247,30z"/>
				<path class="st1" d="M249.6,30.1c0-0.3,0-0.5,0.1-0.7s0.2-0.3,0.3-0.4c0.1-0.1,0.3-0.2,0.4-0.2s0.3-0.1,0.4-0.1
					c0.2,0,0.5,0,0.7,0.1v-1.1h0.4v3c0,0.1,0,0.2,0,0.2c0,0.1-0.1,0.2-0.1,0.3c-0.1,0.1-0.2,0.2-0.4,0.3c-0.2,0.1-0.4,0.1-0.6,0.1
					c-0.1,0-0.2,0-0.3,0c-0.1,0-0.2-0.1-0.3-0.1c-0.1-0.1-0.2-0.1-0.3-0.2s-0.2-0.2-0.2-0.4S249.6,30.3,249.6,30.1z M250,30.1
					c0,0.2,0,0.4,0.1,0.6s0.1,0.3,0.2,0.3c0.1,0.1,0.2,0.1,0.3,0.1c0.1,0,0.2,0,0.3,0c0.5,0,0.7-0.2,0.7-0.5v-1.5
					c-0.2-0.1-0.5-0.1-0.7-0.1c-0.3,0-0.5,0.1-0.7,0.2C250,29.5,250,29.7,250,30.1z"/>
				<path class="st1" d="M254.7,31.5V29c0.4-0.2,0.9-0.3,1.3-0.3v0.4c-0.3,0-0.6,0.1-0.9,0.1v2.3H254.7z"/>
				<path class="st1" d="M256.4,30.2C256.4,30.2,256.4,30.2,256.4,30.2C256.4,30.1,256.4,30.1,256.4,30.2c0-1,0.4-1.5,1.2-1.5
					c0.2,0,0.3,0,0.5,0.1c0.1,0.1,0.2,0.1,0.3,0.2s0.2,0.2,0.2,0.3c0.1,0.1,0.1,0.2,0.1,0.3c0,0.1,0,0.2,0.1,0.3c0,0.1,0,0.2,0,0.2
					v0.1l0,0.2h-2c0,0.3,0.1,0.5,0.3,0.6c0.1,0.1,0.4,0.2,0.6,0.2c0.4,0,0.7-0.1,0.9-0.2v0.4c-0.3,0.1-0.6,0.2-1,0.2c0,0,0,0,0,0
					c-0.2,0-0.3,0-0.4-0.1c-0.1,0-0.3-0.1-0.4-0.2s-0.2-0.2-0.3-0.4C256.4,30.7,256.4,30.4,256.4,30.2z M256.8,30h1.6
					c0-0.1,0-0.1,0-0.2c0-0.1,0-0.2-0.1-0.3c0-0.1-0.1-0.2-0.2-0.3c-0.1-0.1-0.3-0.1-0.4-0.1c-0.3,0-0.5,0.1-0.6,0.2
					C256.9,29.4,256.8,29.7,256.8,30z"/>
				<path class="st1" d="M259.1,28.7h0.4l0.8,2.3l0.8-2.3h0.4l-1.1,2.8h-0.4L259.1,28.7z"/>
				<path class="st1" d="M262.3,28.3v-0.4h0.4v0.4H262.3z M262.3,31.5h0.4v-2.8h-0.4V31.5z"/>
				<path class="st1" d="M263.4,30.2C263.4,30.2,263.4,30.2,263.4,30.2C263.4,30.1,263.4,30.1,263.4,30.2c0-1,0.4-1.5,1.2-1.5
					c0.2,0,0.3,0,0.5,0.1c0.1,0.1,0.2,0.1,0.3,0.2s0.2,0.2,0.2,0.3c0.1,0.1,0.1,0.2,0.1,0.3c0,0.1,0,0.2,0.1,0.3c0,0.1,0,0.2,0,0.2
					v0.1l0,0.2h-2c0,0.3,0.1,0.5,0.3,0.6c0.1,0.1,0.4,0.2,0.6,0.2c0.4,0,0.7-0.1,0.9-0.2v0.4c-0.3,0.1-0.6,0.2-1,0.2c0,0,0,0,0,0
					c-0.2,0-0.3,0-0.4-0.1c-0.1,0-0.3-0.1-0.4-0.2s-0.2-0.2-0.3-0.4C263.5,30.7,263.4,30.4,263.4,30.2z M263.8,30h1.6
					c0-0.1,0-0.1,0-0.2c0-0.1,0-0.2-0.1-0.3c0-0.1-0.1-0.2-0.2-0.3c-0.1-0.1-0.3-0.1-0.4-0.1c-0.3,0-0.5,0.1-0.6,0.2
					C263.9,29.4,263.9,29.7,263.8,30z"/>
				<path class="st1" d="M266.3,28.7h0.4l0.7,2.1l0.6-2.1h0.4l0.6,2.1l0.7-2.1h0.4l-0.9,2.8h-0.4l-0.6-2.1l-0.6,2.1h-0.4L266.3,28.7
					z"/>
				<path class="st1" d="M234.2,38.3l1.5-3.7h0.4l1.5,3.7h-0.4l-0.4-1.2h-1.6l-0.4,1.2H234.2z M235.2,36.8h1.3l-0.6-1.7L235.2,36.8z
					"/>
				<path class="st1" d="M237.9,36.9c0-0.3,0-0.5,0.1-0.7s0.2-0.3,0.3-0.4c0.1-0.1,0.3-0.2,0.4-0.2s0.3-0.1,0.4-0.1
					c0.2,0,0.5,0,0.7,0.1v-1.1h0.4v3c0,0.1,0,0.2,0,0.2c0,0.1-0.1,0.2-0.1,0.3c-0.1,0.1-0.2,0.2-0.4,0.3c-0.2,0.1-0.4,0.1-0.6,0.1
					c-0.1,0-0.2,0-0.3,0c-0.1,0-0.2-0.1-0.3-0.1c-0.1-0.1-0.2-0.1-0.3-0.2s-0.2-0.2-0.2-0.4S237.9,37.1,237.9,36.9z M238.3,36.9
					c0,0.2,0,0.4,0.1,0.6s0.1,0.3,0.2,0.3c0.1,0.1,0.2,0.1,0.3,0.1c0.1,0,0.2,0,0.3,0c0.5,0,0.7-0.2,0.7-0.5V36
					c-0.2-0.1-0.5-0.1-0.7-0.1c-0.3,0-0.5,0.1-0.7,0.2C238.4,36.3,238.3,36.5,238.3,36.9z"/>
				<path class="st1" d="M240.6,39c0.2,0,0.4,0,0.5-0.1c0.1-0.1,0.1-0.2,0.1-0.4v-2.9h0.4v2.9c0,0.6-0.3,0.9-1,0.9V39z M241.1,35
					v-0.4h0.4V35H241.1z"/>
				<path class="st1" d="M242.3,37.1v-1.6h0.4v1.6c0,0.3,0.1,0.5,0.2,0.6c0.1,0.1,0.3,0.2,0.6,0.2c0.3,0,0.4-0.1,0.6-0.2
					c0.1-0.1,0.2-0.3,0.2-0.6v-1.6h0.4v1.6c0,0.4-0.1,0.7-0.3,0.9c-0.2,0.2-0.5,0.3-0.9,0.3c-0.4,0-0.7-0.1-0.9-0.3
					C242.4,37.8,242.3,37.5,242.3,37.1z"/>
				<path class="st1" d="M245.4,36.9c0-0.3,0-0.5,0.1-0.7s0.2-0.3,0.3-0.4c0.1-0.1,0.3-0.2,0.4-0.2s0.3-0.1,0.4-0.1
					c0.2,0,0.5,0,0.7,0.1v-1.1h0.4v3c0,0.1,0,0.2,0,0.2c0,0.1-0.1,0.2-0.1,0.3c-0.1,0.1-0.2,0.2-0.4,0.3c-0.2,0.1-0.4,0.1-0.6,0.1
					c-0.1,0-0.2,0-0.3,0c-0.1,0-0.2-0.1-0.3-0.1c-0.1-0.1-0.2-0.1-0.3-0.2s-0.2-0.2-0.2-0.4S245.4,37.1,245.4,36.9z M245.8,36.9
					c0,0.2,0,0.4,0.1,0.6s0.1,0.3,0.2,0.3c0.1,0.1,0.2,0.1,0.3,0.1c0.1,0,0.2,0,0.3,0c0.5,0,0.7-0.2,0.7-0.5V36
					c-0.2-0.1-0.5-0.1-0.7-0.1c-0.3,0-0.5,0.1-0.7,0.2C245.9,36.3,245.8,36.5,245.8,36.9z"/>
				<path class="st1" d="M248.6,35v-0.4h0.4V35H248.6z M248.6,38.3h0.4v-2.8h-0.4V38.3z"/>
				<path class="st1" d="M249.7,36.9c0-0.3,0-0.5,0.1-0.7c0.1-0.2,0.2-0.3,0.3-0.4c0.1-0.1,0.3-0.2,0.4-0.2c0.1,0,0.3-0.1,0.5-0.1
					c0.3,0,0.6,0.1,0.8,0.2V36c-0.3-0.1-0.5-0.2-0.8-0.2c-0.3,0-0.6,0.1-0.7,0.2s-0.2,0.4-0.2,0.8c0,0.4,0.1,0.6,0.2,0.8
					s0.4,0.2,0.7,0.2c0.3,0,0.5-0.1,0.8-0.2v0.4c-0.3,0.1-0.5,0.1-0.8,0.1c-0.1,0-0.3,0-0.4,0s-0.2-0.1-0.3-0.1
					c-0.1-0.1-0.2-0.1-0.3-0.3s-0.2-0.2-0.2-0.4S249.7,37.1,249.7,36.9z"/>
				<path class="st1" d="M252.3,37.4c0-0.1,0-0.2,0.1-0.3s0.1-0.2,0.2-0.2c0.1-0.1,0.2-0.1,0.3-0.2c0.1,0,0.2-0.1,0.3-0.1
					c0.1,0,0.2,0,0.3,0s0.2,0,0.2,0c0,0,0.1,0,0.2,0l0.4,0c0-0.3-0.1-0.4-0.2-0.5c-0.1-0.1-0.3-0.2-0.6-0.2c-0.3,0-0.6,0-0.8,0.1
					v-0.4c0.3-0.1,0.5-0.1,0.8-0.1c0.4,0,0.7,0.1,0.9,0.3s0.3,0.5,0.3,0.9v0.8c0,0.2,0,0.3-0.1,0.5c-0.1,0.1-0.2,0.2-0.3,0.3
					c-0.1,0.1-0.3,0.1-0.4,0.1c-0.1,0-0.2,0-0.3,0c-0.1,0-0.2,0-0.3,0s-0.2,0-0.3-0.1c-0.1,0-0.2-0.1-0.3-0.1s-0.2-0.1-0.2-0.3
					C252.3,37.7,252.3,37.6,252.3,37.4z M252.7,37.4c0,0.3,0.3,0.5,0.8,0.5c0,0,0,0,0,0c0.5,0,0.7-0.2,0.7-0.5v-0.5
					c-0.1,0-0.3,0-0.5,0C253.1,36.9,252.7,37.1,252.7,37.4z"/>
				<path class="st1" d="M255,35.9v-0.4h0.5v-0.8h0.4v0.8h0.7v0.4h-0.7v1.7c0,0.1,0,0.2,0.1,0.3c0.1,0.1,0.2,0.1,0.3,0.1
					c0.1,0,0.2,0,0.3-0.1v0.4c-0.1,0-0.2,0.1-0.4,0.1c0,0,0,0,0,0c-0.1,0-0.1,0-0.2,0c-0.1,0-0.1,0-0.2-0.1s-0.2-0.1-0.2-0.2
					c-0.1-0.1-0.1-0.3-0.1-0.4v-1.7H255z"/>
				<path class="st1" d="M257.3,35v-0.4h0.4V35H257.3z M257.3,38.3h0.4v-2.8h-0.4V38.3z"/>
				<path class="st1" d="M258.5,37.6c-0.1-0.2-0.1-0.4-0.1-0.7s0-0.5,0.1-0.7s0.2-0.3,0.3-0.4s0.3-0.2,0.4-0.2
					c0.1,0,0.3-0.1,0.5-0.1c0.2,0,0.3,0,0.5,0.1c0.1,0,0.3,0.1,0.4,0.2s0.2,0.2,0.3,0.4s0.1,0.4,0.1,0.7s0,0.5-0.1,0.7
					c-0.1,0.2-0.2,0.3-0.3,0.4c-0.1,0.1-0.3,0.2-0.4,0.2c-0.1,0-0.3,0.1-0.5,0.1c-0.2,0-0.3,0-0.5-0.1s-0.3-0.1-0.4-0.2
					C258.7,38,258.6,37.8,258.5,37.6z M259,36.1c-0.1,0.2-0.2,0.4-0.2,0.8c0,0.4,0.1,0.6,0.2,0.8c0.1,0.2,0.4,0.3,0.7,0.3
					s0.5-0.1,0.7-0.3s0.2-0.4,0.2-0.8s-0.1-0.6-0.2-0.8s-0.4-0.3-0.7-0.3S259.2,35.9,259,36.1z"/>
				<path class="st1" d="M261.6,38.3v-2.5c0.4-0.2,0.8-0.3,1.2-0.3c0.3,0,0.6,0.1,0.8,0.3s0.3,0.4,0.3,0.7v1.8h-0.4v-1.8
					c0-0.1,0-0.1,0-0.2c0-0.1,0-0.1-0.1-0.2c0-0.1-0.1-0.1-0.2-0.2s-0.2-0.1-0.4-0.1c-0.2,0-0.5,0-0.7,0.1v2.3H261.6z"/>
			</g>
		</g>
	</g>
	<g>
		<path class="st3" d="M188.6,56.3H28.1C12.7,56.3,0,43.6,0,28.1v0C0,12.7,12.7,0,28.1,0l160.5,0c15.5,0,28.1,12.7,28.1,28.1v0
			C216.8,43.6,204.1,56.3,188.6,56.3z"/>
		<g>
			<g>
				<path class="st1" d="M153.7,24.3v-5.6h1.3l2.8,3.7l-0.5,1v-4.6h1.4v5.6h-1.1l-2.8-3.6l0.3-0.7v4.2H153.7z"/>
				<path class="st1" d="M159.9,22.1v-0.9h2.6v0.9H159.9z"/>
				<path class="st1" d="M165.3,24.3l-2.1-5.6h1.8l1.5,4.7H166l1.5-4.7h1.6l-2.2,5.6H165.3z"/>
				<path class="st1" d="M169.8,19.5v-1h1.4v1H169.8z M169.8,24.3v-4.2h1.4l0,4.2H169.8z"/>
				<path class="st1" d="M173.6,24.4c-0.3,0-0.6,0-0.8-0.1c-0.2-0.1-0.4-0.1-0.6-0.2v-1.2c0.1,0.1,0.2,0.1,0.4,0.2s0.3,0.1,0.5,0.2
					c0.2,0.1,0.4,0.1,0.6,0.1c0.2,0,0.3,0,0.4-0.1c0.1-0.1,0.1-0.1,0.1-0.2s0-0.1-0.1-0.2c-0.1-0.1-0.2-0.1-0.3-0.1
					c-0.1,0-0.3-0.1-0.4-0.1c-0.1,0-0.3-0.1-0.4-0.1s-0.2-0.1-0.3-0.2s-0.2-0.2-0.2-0.4c-0.1-0.2-0.1-0.3-0.1-0.5
					c0-0.3,0.1-0.5,0.2-0.7c0.1-0.2,0.3-0.3,0.4-0.5c0.2-0.1,0.4-0.2,0.6-0.2c0.2,0,0.4-0.1,0.6-0.1c0.4,0,0.7,0,0.9,0.1
					s0.4,0.2,0.6,0.3l0,1c-0.2-0.1-0.4-0.2-0.6-0.3c-0.2-0.1-0.4-0.1-0.7-0.1c-0.2,0-0.4,0-0.4,0.1s-0.1,0.1-0.1,0.2
					c0,0.1,0,0.2,0.1,0.2c0.1,0.1,0.1,0.1,0.2,0.1c0.1,0,0.2,0.1,0.3,0.1c0.1,0,0.3,0.1,0.4,0.1c0.2,0,0.3,0.1,0.4,0.2
					c0.1,0.1,0.2,0.2,0.3,0.4c0.1,0.2,0.1,0.4,0.1,0.6c0,0.4-0.1,0.6-0.3,0.8c-0.2,0.2-0.4,0.3-0.7,0.4
					C174.2,24.4,173.9,24.4,173.6,24.4z"/>
				<path class="st1" d="M176.4,19.5v-1h1.4v1H176.4z M176.4,24.3v-4.2h1.4l0,4.2H176.4z"/>
				<path class="st1" d="M180.7,24.5c-0.5,0-0.9-0.1-1.2-0.4c-0.3-0.2-0.4-0.6-0.4-1v-2h-0.6v-1h0.6v-1.2h1.5V20h0.9v1h-0.9v1.9
					c0,0.1,0,0.2,0.1,0.3s0.2,0.1,0.3,0.1c0.1,0,0.2,0,0.3-0.1c0.1,0,0.2-0.1,0.3-0.1v1.2c-0.1,0.1-0.3,0.1-0.4,0.1
					C181,24.4,180.8,24.5,180.7,24.5z"/>
				<path class="st1" d="M183.7,24.4c-0.3,0-0.6,0-0.8-0.1c-0.2-0.1-0.4-0.1-0.6-0.2v-1.2c0.1,0.1,0.2,0.1,0.4,0.2s0.3,0.1,0.5,0.2
					c0.2,0.1,0.4,0.1,0.6,0.1c0.2,0,0.3,0,0.4-0.1c0.1-0.1,0.1-0.1,0.1-0.2s0-0.1-0.1-0.2c-0.1-0.1-0.2-0.1-0.3-0.1
					c-0.1,0-0.3-0.1-0.4-0.1c-0.1,0-0.3-0.1-0.4-0.1s-0.2-0.1-0.3-0.2s-0.2-0.2-0.2-0.4c-0.1-0.2-0.1-0.3-0.1-0.5
					c0-0.3,0.1-0.5,0.2-0.7c0.1-0.2,0.3-0.3,0.4-0.5c0.2-0.1,0.4-0.2,0.6-0.2c0.2,0,0.4-0.1,0.6-0.1c0.4,0,0.7,0,0.9,0.1
					s0.4,0.2,0.6,0.3l0,1c-0.2-0.1-0.4-0.2-0.6-0.3c-0.2-0.1-0.4-0.1-0.7-0.1c-0.2,0-0.4,0-0.4,0.1s-0.1,0.1-0.1,0.2
					c0,0.1,0,0.2,0.1,0.2c0.1,0.1,0.1,0.1,0.2,0.1c0.1,0,0.2,0.1,0.3,0.1c0.1,0,0.3,0.1,0.4,0.1c0.2,0,0.3,0.1,0.4,0.2
					c0.1,0.1,0.2,0.2,0.3,0.4c0.1,0.2,0.1,0.4,0.1,0.6c0,0.4-0.1,0.6-0.3,0.8c-0.2,0.2-0.4,0.3-0.7,0.4
					C184.4,24.4,184,24.4,183.7,24.4z"/>
			</g>
			<g>
				<path class="st1" d="M154.3,31.1v-3.7h1.2c1.2,0,1.7,0.6,1.7,1.9c0,1.2-0.6,1.9-1.7,1.9H154.3z M154.7,30.7h0.7
					c0.5,0,0.8-0.1,1-0.4s0.3-0.6,0.3-1.1s-0.1-0.9-0.3-1.1s-0.6-0.4-1-0.4h-0.7V30.7z"/>
				<path class="st1" d="M158,27.8v-0.4h0.4v0.4H158z M158,31.1h0.4v-2.8H158V31.1z"/>
				<path class="st1" d="M159.1,29.7c0-0.3,0-0.5,0.1-0.7c0.1-0.2,0.2-0.3,0.3-0.4c0.1-0.1,0.3-0.2,0.4-0.2c0.1,0,0.3-0.1,0.5-0.1
					c0.3,0,0.6,0.1,0.8,0.2v0.4c-0.3-0.1-0.5-0.2-0.8-0.2c-0.3,0-0.6,0.1-0.7,0.2s-0.2,0.4-0.2,0.8c0,0.4,0.1,0.6,0.2,0.8
					s0.4,0.2,0.7,0.2c0.3,0,0.5-0.1,0.8-0.2V31c-0.3,0.1-0.5,0.1-0.8,0.1c-0.1,0-0.3,0-0.4,0s-0.2-0.1-0.3-0.1
					c-0.1-0.1-0.2-0.1-0.3-0.3s-0.2-0.2-0.2-0.4S159.1,29.9,159.1,29.7z"/>
				<path class="st1" d="M161.8,30.4c-0.1-0.2-0.1-0.4-0.1-0.7s0-0.5,0.1-0.7s0.2-0.3,0.3-0.4s0.3-0.2,0.4-0.2
					c0.1,0,0.3-0.1,0.5-0.1c0.2,0,0.3,0,0.5,0.1c0.1,0,0.3,0.1,0.4,0.2s0.2,0.2,0.3,0.4s0.1,0.4,0.1,0.7s0,0.5-0.1,0.7
					c-0.1,0.2-0.2,0.3-0.3,0.4c-0.1,0.1-0.3,0.2-0.4,0.2c-0.1,0-0.3,0.1-0.5,0.1c-0.2,0-0.3,0-0.5-0.1s-0.3-0.1-0.4-0.2
					C162,30.7,161.9,30.6,161.8,30.4z M162.3,28.9c-0.1,0.2-0.2,0.4-0.2,0.8c0,0.4,0.1,0.6,0.2,0.8c0.1,0.2,0.4,0.3,0.7,0.3
					s0.5-0.1,0.7-0.3s0.2-0.4,0.2-0.8s-0.1-0.6-0.2-0.8s-0.4-0.3-0.7-0.3S162.4,28.7,162.3,28.9z"/>
				<path class="st1" d="M165,31.1v-2.6c0.4-0.2,0.7-0.3,1.1-0.3c0.3,0,0.5,0.1,0.7,0.2c0.4-0.2,0.7-0.2,1-0.2
					c0.3,0,0.6,0.1,0.8,0.3s0.3,0.4,0.3,0.7v1.8h-0.4v-1.8c0-0.1,0-0.1,0-0.2c0-0.1,0-0.1-0.1-0.2c0-0.1-0.1-0.1-0.2-0.2
					c-0.1,0-0.2-0.1-0.4-0.1c-0.2,0-0.5,0-0.8,0.1c0.1,0.1,0.1,0.3,0.1,0.5v1.8h-0.4v-1.8c0-0.1,0-0.2,0-0.2c0-0.1,0-0.1-0.1-0.2
					c0-0.1-0.1-0.1-0.2-0.2c-0.1,0-0.2-0.1-0.4-0.1c-0.2,0-0.4,0-0.7,0.1v2.3H165z"/>
				<path class="st1" d="M169.6,29c0-0.2,0.1-0.4,0.2-0.6c0.2-0.2,0.4-0.2,0.7-0.2c0.2,0,0.5,0.1,0.7,0.2v0.4
					c-0.2-0.1-0.4-0.2-0.7-0.2c-0.4,0-0.6,0.1-0.6,0.4c0,0.1,0.1,0.2,0.2,0.2c0.1,0.1,0.2,0.1,0.4,0.1s0.3,0.1,0.4,0.1
					s0.3,0.1,0.4,0.3c0.1,0.1,0.2,0.3,0.2,0.5c0,0.2-0.1,0.4-0.3,0.6c-0.2,0.1-0.4,0.2-0.7,0.2c-0.3,0-0.6-0.1-0.8-0.2v-0.4
					c0.3,0.2,0.5,0.2,0.8,0.2c0.4,0,0.6-0.1,0.6-0.4c0-0.1-0.1-0.2-0.2-0.3c-0.1-0.1-0.2-0.1-0.4-0.2s-0.3-0.1-0.4-0.1
					s-0.3-0.1-0.4-0.2C169.7,29.4,169.6,29.2,169.6,29z"/>
				<path class="st1" d="M174.1,31.1v-3.7h0.4v3.7H174.1z"/>
				<path class="st1" d="M175.5,31.1v-2.6c0.4-0.2,0.7-0.3,1.1-0.3c0.3,0,0.5,0.1,0.7,0.2c0.4-0.2,0.7-0.2,1-0.2
					c0.3,0,0.6,0.1,0.8,0.3s0.3,0.4,0.3,0.7v1.8H179v-1.8c0-0.1,0-0.1,0-0.2c0-0.1,0-0.1-0.1-0.2c0-0.1-0.1-0.1-0.2-0.2
					c-0.1,0-0.2-0.1-0.4-0.1c-0.2,0-0.5,0-0.8,0.1c0.1,0.1,0.1,0.3,0.1,0.5v1.8h-0.4v-1.8c0-0.1,0-0.2,0-0.2c0-0.1,0-0.1-0.1-0.2
					c0-0.1-0.1-0.1-0.2-0.2c-0.1,0-0.2-0.1-0.4-0.1c-0.2,0-0.4,0-0.7,0.1v2.3H175.5z"/>
				<path class="st1" d="M180.1,30.2c0-0.1,0-0.2,0.1-0.3s0.1-0.2,0.2-0.2c0.1-0.1,0.2-0.1,0.3-0.2c0.1,0,0.2-0.1,0.3-0.1
					c0.1,0,0.2,0,0.3,0s0.2,0,0.2,0c0,0,0.1,0,0.2,0l0.4,0c0-0.3-0.1-0.4-0.2-0.5c-0.1-0.1-0.3-0.2-0.6-0.2c-0.3,0-0.6,0-0.8,0.1
					v-0.4c0.3-0.1,0.5-0.1,0.8-0.1c0.4,0,0.7,0.1,0.9,0.3s0.3,0.5,0.3,0.9v0.8c0,0.2,0,0.3-0.1,0.5c-0.1,0.1-0.2,0.2-0.3,0.3
					c-0.1,0.1-0.3,0.1-0.4,0.1c-0.1,0-0.2,0-0.3,0c-0.1,0-0.2,0-0.3,0s-0.2,0-0.3-0.1c-0.1,0-0.2-0.1-0.3-0.1s-0.2-0.1-0.2-0.3
					C180.1,30.5,180.1,30.4,180.1,30.2z M180.5,30.2c0,0.3,0.3,0.5,0.8,0.5c0,0,0,0,0,0c0.5,0,0.7-0.2,0.7-0.5v-0.5
					c-0.1,0-0.3,0-0.5,0C180.8,29.7,180.5,29.8,180.5,30.2z"/>
				<path class="st1" d="M183,29.7c0-0.3,0-0.5,0.1-0.7c0.1-0.2,0.2-0.3,0.3-0.4c0.1-0.1,0.3-0.2,0.4-0.2c0.1,0,0.2-0.1,0.4-0.1
					c0.2,0,0.4,0,0.6,0.1c0.2,0.1,0.3,0.2,0.3,0.3c0.1,0.1,0.1,0.2,0.1,0.3c0,0.1,0,0.2,0,0.2v2.1c0,0.1,0,0.2-0.1,0.3
					c0,0.1-0.1,0.2-0.2,0.3c-0.1,0.1-0.2,0.2-0.4,0.2c-0.2,0.1-0.4,0.1-0.6,0.1c-0.3,0-0.5,0-0.8-0.1v-0.4c0.2,0.1,0.5,0.1,0.7,0.1
					c0.2,0,0.3,0,0.4,0c0.1,0,0.2-0.1,0.3-0.1c0.1-0.1,0.1-0.1,0.1-0.2s0-0.1,0-0.2v-0.3c-0.2,0.1-0.4,0.1-0.6,0.1
					c-0.1,0-0.2,0-0.3,0s-0.2-0.1-0.3-0.1s-0.2-0.1-0.3-0.2c-0.1-0.1-0.1-0.2-0.2-0.4C183,30.1,183,29.9,183,29.7z M183.4,29.7
					c0,0.2,0,0.4,0.1,0.5c0,0.1,0.1,0.2,0.2,0.3c0.1,0.1,0.2,0.1,0.3,0.1c0.1,0,0.2,0,0.3,0c0.2,0,0.4,0,0.6-0.1v-1.4
					c0-0.3-0.2-0.5-0.7-0.5c-0.1,0-0.2,0-0.3,0c-0.1,0-0.2,0.1-0.2,0.1c-0.1,0.1-0.2,0.2-0.2,0.3S183.4,29.4,183.4,29.7z"/>
				<path class="st1" d="M185.9,29.7C185.9,29.7,185.9,29.7,185.9,29.7C185.9,29.7,185.9,29.7,185.9,29.7c0-1,0.4-1.5,1.2-1.5
					c0.2,0,0.3,0,0.5,0.1c0.1,0.1,0.2,0.1,0.3,0.2s0.2,0.2,0.2,0.3c0.1,0.1,0.1,0.2,0.1,0.3c0,0.1,0,0.2,0.1,0.3c0,0.1,0,0.2,0,0.2
					v0.1l0,0.2h-2c0,0.3,0.1,0.5,0.3,0.6c0.1,0.1,0.4,0.2,0.6,0.2c0.4,0,0.7-0.1,0.9-0.2v0.4c-0.3,0.1-0.6,0.2-1,0.2c0,0,0,0,0,0
					c-0.2,0-0.3,0-0.4-0.1c-0.1,0-0.3-0.1-0.4-0.2s-0.2-0.2-0.3-0.4C185.9,30.2,185.9,30,185.9,29.7z M186.3,29.6h1.6
					c0-0.1,0-0.1,0-0.2c0-0.1,0-0.2-0.1-0.3c0-0.1-0.1-0.2-0.2-0.3c-0.1-0.1-0.3-0.1-0.4-0.1c-0.3,0-0.5,0.1-0.6,0.2
					C186.4,29,186.3,29.2,186.3,29.6z"/>
				<path class="st1" d="M188.9,29c0-0.2,0.1-0.4,0.2-0.6c0.2-0.2,0.4-0.2,0.7-0.2c0.2,0,0.5,0.1,0.7,0.2v0.4
					c-0.2-0.1-0.4-0.2-0.7-0.2c-0.4,0-0.6,0.1-0.6,0.4c0,0.1,0.1,0.2,0.2,0.2c0.1,0.1,0.2,0.1,0.4,0.1s0.3,0.1,0.4,0.1
					s0.3,0.1,0.4,0.3c0.1,0.1,0.2,0.3,0.2,0.5c0,0.2-0.1,0.4-0.3,0.6c-0.2,0.1-0.4,0.2-0.7,0.2c-0.3,0-0.6-0.1-0.8-0.2v-0.4
					c0.3,0.2,0.5,0.2,0.8,0.2c0.4,0,0.6-0.1,0.6-0.4c0-0.1-0.1-0.2-0.2-0.3c-0.1-0.1-0.2-0.1-0.4-0.2s-0.3-0.1-0.4-0.1
					s-0.3-0.1-0.4-0.2C188.9,29.4,188.9,29.2,188.9,29z"/>
				<path class="st1" d="M154.3,37.8v-3.7h0.4v3.7H154.3z"/>
				<path class="st1" d="M155.6,37.8v-2.5c0.4-0.2,0.8-0.3,1.2-0.3c0.3,0,0.6,0.1,0.8,0.3s0.3,0.4,0.3,0.7v1.8h-0.4V36
					c0-0.1,0-0.1,0-0.2c0-0.1,0-0.1-0.1-0.2c0-0.1-0.1-0.1-0.2-0.2s-0.2-0.1-0.4-0.1c-0.2,0-0.5,0-0.7,0.1v2.3H155.6z"/>
				<path class="st1" d="M158.4,35.1h0.4l0.8,2.3l0.8-2.3h0.4l-1.1,2.8h-0.4L158.4,35.1z"/>
				<path class="st1" d="M161.3,36.5C161.3,36.5,161.3,36.5,161.3,36.5C161.3,36.5,161.3,36.5,161.3,36.5c0-1,0.4-1.5,1.2-1.5
					c0.2,0,0.3,0,0.5,0.1c0.1,0.1,0.2,0.1,0.3,0.2s0.2,0.2,0.2,0.3c0.1,0.1,0.1,0.2,0.1,0.3c0,0.1,0,0.2,0.1,0.3c0,0.1,0,0.2,0,0.2
					v0.1l0,0.2h-2c0,0.3,0.1,0.5,0.3,0.6c0.1,0.1,0.4,0.2,0.6,0.2c0.4,0,0.7-0.1,0.9-0.2v0.4c-0.3,0.1-0.6,0.2-1,0.2c0,0,0,0,0,0
					c-0.2,0-0.3,0-0.4-0.1c-0.1,0-0.3-0.1-0.4-0.2s-0.2-0.2-0.3-0.4C161.3,37,161.3,36.8,161.3,36.5z M161.7,36.3h1.6
					c0-0.1,0-0.1,0-0.2c0-0.1,0-0.2-0.1-0.3c0-0.1-0.1-0.2-0.2-0.3c-0.1-0.1-0.3-0.1-0.4-0.1c-0.3,0-0.5,0.1-0.6,0.2
					C161.8,35.8,161.7,36,161.7,36.3z"/>
				<path class="st1" d="M164.2,35.8c0-0.2,0.1-0.4,0.2-0.6c0.2-0.2,0.4-0.2,0.7-0.2c0.2,0,0.5,0.1,0.7,0.2v0.4
					c-0.2-0.1-0.4-0.2-0.7-0.2c-0.4,0-0.6,0.1-0.6,0.4c0,0.1,0.1,0.2,0.2,0.2c0.1,0.1,0.2,0.1,0.4,0.1s0.3,0.1,0.4,0.1
					s0.3,0.1,0.4,0.3c0.1,0.1,0.2,0.3,0.2,0.5c0,0.2-0.1,0.4-0.3,0.6c-0.2,0.1-0.4,0.2-0.7,0.2c-0.3,0-0.6-0.1-0.8-0.2v-0.4
					c0.3,0.2,0.5,0.2,0.8,0.2c0.4,0,0.6-0.1,0.6-0.4c0-0.1-0.1-0.2-0.2-0.3c-0.1-0.1-0.2-0.1-0.4-0.2s-0.3-0.1-0.4-0.1
					s-0.3-0.1-0.4-0.2C164.3,36.2,164.2,36,164.2,35.8z"/>
				<path class="st1" d="M166.5,35.4v-0.4h0.5v-0.8h0.4v0.8h0.7v0.4h-0.7v1.7c0,0.1,0,0.2,0.1,0.3c0.1,0.1,0.2,0.1,0.3,0.1
					c0.1,0,0.2,0,0.3-0.1v0.4c-0.1,0-0.2,0.1-0.4,0.1c0,0,0,0,0,0c-0.1,0-0.1,0-0.2,0c-0.1,0-0.1,0-0.2-0.1s-0.2-0.1-0.2-0.2
					c-0.1-0.1-0.1-0.3-0.1-0.4v-1.7H166.5z"/>
				<path class="st1" d="M168.7,34.6v-0.4h0.4v0.4H168.7z M168.8,37.8h0.4v-2.8h-0.4V37.8z"/>
				<path class="st1" d="M169.9,36.5c0-0.3,0-0.5,0.1-0.7c0.1-0.2,0.2-0.3,0.3-0.4c0.1-0.1,0.3-0.2,0.4-0.2c0.1,0,0.2-0.1,0.4-0.1
					c0.2,0,0.4,0,0.6,0.1c0.2,0.1,0.3,0.2,0.3,0.3c0.1,0.1,0.1,0.2,0.1,0.3c0,0.1,0,0.2,0,0.2V38c0,0.1,0,0.2-0.1,0.3
					c0,0.1-0.1,0.2-0.2,0.3c-0.1,0.1-0.2,0.2-0.4,0.2c-0.2,0.1-0.4,0.1-0.6,0.1c-0.3,0-0.5,0-0.8-0.1v-0.4c0.2,0.1,0.5,0.1,0.7,0.1
					c0.2,0,0.3,0,0.4,0c0.1,0,0.2-0.1,0.3-0.1c0.1-0.1,0.1-0.1,0.1-0.2s0-0.1,0-0.2v-0.3c-0.2,0.1-0.4,0.1-0.6,0.1
					c-0.1,0-0.2,0-0.3,0s-0.2-0.1-0.3-0.1s-0.2-0.1-0.3-0.2c-0.1-0.1-0.1-0.2-0.2-0.4C169.9,36.9,169.9,36.7,169.9,36.5z
					 M170.3,36.5c0,0.2,0,0.4,0.1,0.5c0,0.1,0.1,0.2,0.2,0.3c0.1,0.1,0.2,0.1,0.3,0.1c0.1,0,0.2,0,0.3,0c0.2,0,0.4,0,0.6-0.1v-1.4
					c0-0.3-0.2-0.5-0.7-0.5c-0.1,0-0.2,0-0.3,0c-0.1,0-0.2,0.1-0.2,0.1c-0.1,0.1-0.2,0.2-0.2,0.3S170.3,36.2,170.3,36.5z"/>
				<path class="st1" d="M172.8,37c0-0.1,0-0.2,0.1-0.3s0.1-0.2,0.2-0.2c0.1-0.1,0.2-0.1,0.3-0.2c0.1,0,0.2-0.1,0.3-0.1
					c0.1,0,0.2,0,0.3,0s0.2,0,0.2,0c0,0,0.1,0,0.2,0l0.4,0c0-0.3-0.1-0.4-0.2-0.5c-0.1-0.1-0.3-0.2-0.6-0.2c-0.3,0-0.6,0-0.8,0.1
					v-0.4c0.3-0.1,0.5-0.1,0.8-0.1c0.4,0,0.7,0.1,0.9,0.3s0.3,0.5,0.3,0.9V37c0,0.2,0,0.3-0.1,0.5c-0.1,0.1-0.2,0.2-0.3,0.3
					c-0.1,0.1-0.3,0.1-0.4,0.1c-0.1,0-0.2,0-0.3,0c-0.1,0-0.2,0-0.3,0s-0.2,0-0.3-0.1c-0.1,0-0.2-0.1-0.3-0.1s-0.2-0.1-0.2-0.3
					C172.8,37.3,172.8,37.1,172.8,37z M173.2,37c0,0.3,0.3,0.5,0.8,0.5c0,0,0,0,0,0c0.5,0,0.7-0.2,0.7-0.5v-0.5c-0.1,0-0.3,0-0.5,0
					C173.5,36.5,173.2,36.6,173.2,37z"/>
				<path class="st1" d="M175.5,35.4v-0.4h0.5v-0.8h0.4v0.8h0.7v0.4h-0.7v1.7c0,0.1,0,0.2,0.1,0.3c0.1,0.1,0.2,0.1,0.3,0.1
					c0.1,0,0.2,0,0.3-0.1v0.4c-0.1,0-0.2,0.1-0.4,0.1c0,0,0,0,0,0c-0.1,0-0.1,0-0.2,0c-0.1,0-0.1,0-0.2-0.1s-0.2-0.1-0.2-0.2
					c-0.1-0.1-0.1-0.3-0.1-0.4v-1.7H175.5z"/>
				<path class="st1" d="M177.7,37.2c-0.1-0.2-0.1-0.4-0.1-0.7s0-0.5,0.1-0.7s0.2-0.3,0.3-0.4s0.3-0.2,0.4-0.2
					c0.1,0,0.3-0.1,0.5-0.1c0.2,0,0.3,0,0.5,0.1c0.1,0,0.3,0.1,0.4,0.2s0.2,0.2,0.3,0.4s0.1,0.4,0.1,0.7s0,0.5-0.1,0.7
					c-0.1,0.2-0.2,0.3-0.3,0.4c-0.1,0.1-0.3,0.2-0.4,0.2c-0.1,0-0.3,0.1-0.5,0.1c-0.2,0-0.3,0-0.5-0.1s-0.3-0.1-0.4-0.2
					C177.9,37.5,177.8,37.4,177.7,37.2z M178.2,35.7c-0.1,0.2-0.2,0.4-0.2,0.8c0,0.4,0.1,0.6,0.2,0.8c0.1,0.2,0.4,0.3,0.7,0.3
					s0.5-0.1,0.7-0.3s0.2-0.4,0.2-0.8s-0.1-0.6-0.2-0.8s-0.4-0.3-0.7-0.3S178.3,35.5,178.2,35.7z"/>
				<path class="st1" d="M180.9,37.8v-2.6c0.4-0.2,0.9-0.3,1.3-0.3v0.4c-0.3,0-0.6,0.1-0.9,0.1v2.3H180.9z"/>
				<path class="st1" d="M184.4,35.4v-0.4h0.5v-0.1c0-0.2,0-0.4,0.1-0.5c0-0.1,0.1-0.2,0.2-0.3c0.1-0.1,0.1-0.1,0.2-0.2
					s0.2-0.1,0.2-0.1c0.1,0,0.1,0,0.2,0c0.1,0,0.2,0,0.3,0v0.4c-0.1,0-0.1,0-0.2,0c-0.1,0-0.2,0-0.2,0c0,0-0.1,0-0.2,0.1
					s-0.1,0.1-0.1,0.2c0,0.1,0,0.2,0,0.4v0.2h0.8v0.4h-0.8v2.4h-0.4v-2.4H184.4z"/>
				<path class="st1" d="M186.4,37.2c-0.1-0.2-0.1-0.4-0.1-0.7s0-0.5,0.1-0.7s0.2-0.3,0.3-0.4s0.3-0.2,0.4-0.2
					c0.1,0,0.3-0.1,0.5-0.1c0.2,0,0.3,0,0.5,0.1c0.1,0,0.3,0.1,0.4,0.2s0.2,0.2,0.3,0.4s0.1,0.4,0.1,0.7s0,0.5-0.1,0.7
					c-0.1,0.2-0.2,0.3-0.3,0.4c-0.1,0.1-0.3,0.2-0.4,0.2c-0.1,0-0.3,0.1-0.5,0.1c-0.2,0-0.3,0-0.5-0.1s-0.3-0.1-0.4-0.2
					C186.6,37.5,186.5,37.4,186.4,37.2z M186.9,35.7c-0.1,0.2-0.2,0.4-0.2,0.8c0,0.4,0.1,0.6,0.2,0.8c0.1,0.2,0.4,0.3,0.7,0.3
					s0.5-0.1,0.7-0.3s0.2-0.4,0.2-0.8s-0.1-0.6-0.2-0.8s-0.4-0.3-0.7-0.3S187.1,35.5,186.9,35.7z"/>
				<path class="st1" d="M189.6,37.8v-2.6c0.4-0.2,0.9-0.3,1.3-0.3v0.4c-0.3,0-0.6,0.1-0.9,0.1v2.3H189.6z"/>
				<path class="st1" d="M191.5,37.8v-2.6c0.4-0.2,0.7-0.3,1.1-0.3c0.3,0,0.5,0.1,0.7,0.2c0.4-0.2,0.7-0.2,1-0.2
					c0.3,0,0.6,0.1,0.8,0.3s0.3,0.4,0.3,0.7v1.8h-0.4V36c0-0.1,0-0.1,0-0.2c0-0.1,0-0.1-0.1-0.2c0-0.1-0.1-0.1-0.2-0.2
					c-0.1,0-0.2-0.1-0.4-0.1c-0.2,0-0.5,0-0.8,0.1c0.1,0.1,0.1,0.3,0.1,0.5v1.8h-0.4V36c0-0.1,0-0.2,0-0.2c0-0.1,0-0.1-0.1-0.2
					c0-0.1-0.1-0.1-0.2-0.2c-0.1,0-0.2-0.1-0.4-0.1c-0.2,0-0.4,0-0.7,0.1v2.3H191.5z"/>
			</g>
		</g>
	</g>
	<g>
		<path class="st4" d="M106.8,56.3H28.1C12.7,56.3,0,43.6,0,28.1v0C0,12.7,12.7,0,28.1,0l78.7,0C122.3,0,135,12.7,135,28.1v0
			C135,43.6,122.3,56.3,106.8,56.3z"/>
		<g>
			<path class="st1" d="M76.3,30.7v-5.6h1.3l2.8,3.7l-0.5,1v-4.6h1.4v5.6h-1.1l-2.8-3.6l0.3-0.7v4.2H76.3z"/>
			<path class="st1" d="M82.5,28.6v-0.9h2.6v0.9H82.5z"/>
			<path class="st1" d="M87.8,29v1.8h-1.5v-5.6H89c0.7,0,1.2,0.1,1.6,0.4c0.4,0.3,0.6,0.8,0.6,1.4c0,0.6-0.2,1.1-0.6,1.5
				C90.1,28.8,89.6,29,89,29H87.8z M87.8,27.8h0.9c0.1,0,0.2,0,0.3,0c0.1,0,0.2-0.1,0.2-0.1s0.1-0.1,0.1-0.2c0-0.1,0-0.2,0-0.3
				c0-0.1,0-0.2,0-0.3c0-0.1-0.1-0.2-0.1-0.2c-0.1-0.1-0.1-0.1-0.2-0.2c-0.1,0-0.2-0.1-0.3-0.1h-0.9V27.8z"/>
			<path class="st1" d="M93.6,30.9c-0.3,0-0.5,0-0.8-0.1s-0.4-0.1-0.6-0.2c-0.2-0.1-0.3-0.3-0.4-0.5c-0.1-0.2-0.1-0.4-0.1-0.7
				c0-0.2,0.1-0.5,0.2-0.7c0.1-0.2,0.3-0.3,0.5-0.5s0.5-0.2,0.9-0.2c0.2,0,0.4,0,0.5,0.1c0.2,0,0.3,0.1,0.5,0.2
				c0.1,0.1,0.3,0.1,0.3,0.2l0,0.6c-0.1-0.1-0.2-0.1-0.4-0.1C94.1,29,94,29,93.8,29c-0.3,0-0.4,0-0.6,0.1c-0.1,0.1-0.2,0.2-0.2,0.3
				c0,0.1,0,0.2,0.1,0.2c0.1,0.1,0.1,0.1,0.2,0.2s0.2,0.1,0.3,0.1c0.3,0,0.5,0,0.5-0.1c0.1,0,0.1-0.1,0.1-0.2v-1.5
				c0-0.2-0.1-0.4-0.2-0.5c-0.2-0.1-0.4-0.2-0.7-0.2c-0.3,0-0.5,0-0.8,0.1c-0.3,0.1-0.5,0.2-0.6,0.3v-1.2c0.1-0.1,0.4-0.2,0.7-0.3
				s0.7-0.1,1.1-0.1c0.1,0,0.3,0,0.4,0s0.3,0.1,0.5,0.1s0.3,0.1,0.5,0.2c0.1,0.1,0.3,0.3,0.4,0.4c0.1,0.2,0.1,0.4,0.1,0.7l0,2
				c0,0.2-0.1,0.4-0.2,0.6c-0.2,0.2-0.4,0.3-0.7,0.3C94.5,30.8,94.1,30.9,93.6,30.9z"/>
			<path class="st1" d="M98.6,30.9c-0.5,0-0.9-0.1-1.2-0.4c-0.3-0.2-0.4-0.6-0.4-1v-2h-0.6v-1h0.6v-1.2h1.5v1.2h0.9v1h-0.9v1.9
				c0,0.1,0,0.2,0.1,0.3s0.2,0.1,0.3,0.1c0.1,0,0.2,0,0.3-0.1c0.1,0,0.2-0.1,0.3-0.1v1.2c-0.1,0.1-0.3,0.1-0.4,0.1
				C98.9,30.9,98.7,30.9,98.6,30.9z"/>
			<path class="st1" d="M100.3,25.9v-1h1.4v1H100.3z M100.3,30.7v-4.2h1.4l0,4.2H100.3z"/>
			<path class="st1" d="M104.8,30.9c-0.4,0-0.8-0.1-1.2-0.3c-0.3-0.2-0.6-0.4-0.8-0.8c-0.2-0.3-0.3-0.7-0.3-1.2
				c0-0.7,0.2-1.3,0.6-1.7s0.9-0.6,1.6-0.6c0.5,0,0.9,0.1,1.1,0.3c0.3,0.2,0.5,0.5,0.6,0.9c0.1,0.4,0.2,0.9,0.2,1.5h-3.2l-0.2-0.8
				h2.2l-0.2,0.5c0-0.5-0.1-0.8-0.2-1c-0.1-0.2-0.3-0.3-0.5-0.3c-0.1,0-0.3,0-0.4,0.1c-0.1,0.1-0.2,0.2-0.3,0.4s-0.1,0.4-0.1,0.7
				c0,0.4,0.1,0.7,0.3,0.9c0.2,0.2,0.5,0.3,0.9,0.3c0.2,0,0.3,0,0.5-0.1c0.2,0,0.3-0.1,0.4-0.1c0.1-0.1,0.2-0.1,0.3-0.1v1.2
				c-0.2,0.1-0.4,0.1-0.7,0.2S105.1,30.9,104.8,30.9z"/>
			<path class="st1" d="M107.6,26.8c0.1-0.1,0.2-0.1,0.4-0.2c0.2-0.1,0.4-0.1,0.6-0.2c0.2,0,0.4-0.1,0.7-0.1c0.2,0,0.4,0,0.6,0
				c0.4,0,0.7,0,1,0.1s0.5,0.2,0.6,0.5c0.1,0.2,0.2,0.5,0.2,0.9v2.9h-1.4v-2.6c0-0.1,0-0.2,0-0.3c0-0.1-0.1-0.2-0.1-0.2
				s-0.1-0.1-0.2-0.1c-0.1,0-0.2,0-0.3,0c-0.1,0-0.2,0-0.3,0c-0.1,0-0.2,0.1-0.2,0.1v3.1h-1.4V26.8z"/>
			<path class="st1" d="M114.6,30.9c-0.5,0-0.9-0.1-1.2-0.4c-0.3-0.2-0.4-0.6-0.4-1v-2h-0.6v-1h0.6v-1.2h1.5v1.2h0.9v1h-0.9v1.9
				c0,0.1,0,0.2,0.1,0.3s0.2,0.1,0.3,0.1c0.1,0,0.2,0,0.3-0.1c0.1,0,0.2-0.1,0.3-0.1v1.2c-0.1,0.1-0.3,0.1-0.4,0.1
				C114.8,30.9,114.7,30.9,114.6,30.9z"/>
			<path class="st1" d="M117.6,30.9c-0.3,0-0.6,0-0.8-0.1c-0.2-0.1-0.4-0.1-0.6-0.2v-1.2c0.1,0.1,0.2,0.1,0.4,0.2s0.3,0.1,0.5,0.2
				c0.2,0.1,0.4,0.1,0.6,0.1c0.2,0,0.3,0,0.4-0.1c0.1-0.1,0.1-0.1,0.1-0.2s0-0.1-0.1-0.2c-0.1-0.1-0.2-0.1-0.3-0.1
				c-0.1,0-0.3-0.1-0.4-0.1c-0.1,0-0.3-0.1-0.4-0.1s-0.2-0.1-0.3-0.2s-0.2-0.2-0.2-0.4c-0.1-0.2-0.1-0.3-0.1-0.5
				c0-0.3,0.1-0.5,0.2-0.7c0.1-0.2,0.3-0.3,0.4-0.5c0.2-0.1,0.4-0.2,0.6-0.2c0.2,0,0.4-0.1,0.6-0.1c0.4,0,0.7,0,0.9,0.1
				s0.4,0.2,0.6,0.3l0,1c-0.2-0.1-0.4-0.2-0.6-0.3c-0.2-0.1-0.4-0.1-0.7-0.1c-0.2,0-0.4,0-0.4,0.1s-0.1,0.1-0.1,0.2
				c0,0.1,0,0.2,0.1,0.2c0.1,0.1,0.1,0.1,0.2,0.1c0.1,0,0.2,0.1,0.3,0.1c0.1,0,0.3,0.1,0.4,0.1c0.2,0,0.3,0.1,0.4,0.2
				c0.1,0.1,0.2,0.2,0.3,0.4c0.1,0.2,0.1,0.4,0.1,0.6c0,0.4-0.1,0.6-0.3,0.8c-0.2,0.2-0.4,0.3-0.7,0.4
				C118.2,30.8,117.9,30.9,117.6,30.9z"/>
		</g>
	</g>
	<g>
		<path class="st5" d="M33.8,56.3h-5.7C12.7,56.3,0,43.6,0,28.1v0C0,12.7,12.7,0,28.1,0l5.7,0C49.3,0,62,12.7,62,28.1v0
			C62,43.6,49.3,56.3,33.8,56.3z"/>
		<g>
			<path class="st1" d="M21.6,30.8c-0.3,0-0.5,0-0.8,0s-0.5-0.1-0.7-0.1c-0.2-0.1-0.4-0.1-0.6-0.2v-1.4c0.3,0.2,0.6,0.4,0.9,0.5
				c0.3,0.1,0.6,0.2,0.9,0.2c0.2,0,0.4,0,0.5-0.1c0.1-0.1,0.2-0.2,0.2-0.4c0-0.1-0.1-0.2-0.2-0.3s-0.3-0.2-0.5-0.2s-0.4-0.1-0.7-0.2
				c-0.2-0.1-0.3-0.1-0.5-0.2s-0.3-0.2-0.4-0.3s-0.2-0.3-0.3-0.4s-0.1-0.4-0.1-0.6s0-0.5,0.1-0.7c0.1-0.2,0.2-0.4,0.4-0.6
				c0.2-0.2,0.4-0.3,0.7-0.4c0.3-0.1,0.6-0.1,1-0.1c0.2,0,0.4,0,0.6,0s0.4,0.1,0.5,0.1c0.2,0.1,0.3,0.1,0.5,0.2v1.4
				c-0.1-0.1-0.3-0.2-0.4-0.3c-0.2-0.1-0.3-0.2-0.5-0.2c-0.2-0.1-0.4-0.1-0.5-0.1c-0.2,0-0.3,0-0.4,0c-0.1,0-0.2,0.1-0.3,0.2
				C21,26.4,21,26.5,21,26.7c0,0.1,0,0.2,0.1,0.3c0.1,0.1,0.2,0.1,0.4,0.2c0.2,0.1,0.3,0.1,0.5,0.2c0.2,0.1,0.4,0.1,0.6,0.2
				s0.4,0.2,0.5,0.3c0.1,0.1,0.2,0.3,0.3,0.4c0.1,0.2,0.1,0.4,0.1,0.6c0,0.4-0.1,0.7-0.3,1c-0.2,0.3-0.4,0.5-0.7,0.7
				C22.4,30.8,22,30.8,21.6,30.8z"/>
			<path class="st1" d="M26.3,30.9c-0.5,0-0.9-0.1-1.2-0.4c-0.3-0.2-0.4-0.6-0.4-1v-2h-0.6v-1h0.6v-1.2h1.5v1.2h0.9v1h-0.9v1.9
				c0,0.1,0,0.2,0.1,0.3s0.2,0.1,0.3,0.1c0.1,0,0.2,0,0.3-0.1c0.1,0,0.2-0.1,0.3-0.1v1.2c-0.1,0.1-0.3,0.1-0.4,0.1
				C26.6,30.9,26.5,30.9,26.3,30.9z"/>
			<path class="st1" d="M30.1,30.9c-0.4,0-0.8-0.1-1.1-0.2s-0.5-0.3-0.7-0.6c-0.2-0.3-0.3-0.6-0.3-1v-2.6h1.4V29
				c0,0.2,0.1,0.4,0.2,0.5s0.3,0.2,0.5,0.2c0.2,0,0.4-0.1,0.5-0.2s0.2-0.3,0.2-0.5v-2.5h1.3v2.6c0,0.6-0.2,1.1-0.5,1.3
				C31.2,30.7,30.7,30.9,30.1,30.9z"/>
			<path class="st1" d="M35.2,30.9c-0.4,0-0.7,0-1-0.1s-0.5-0.2-0.7-0.4c-0.2-0.2-0.4-0.4-0.5-0.7c-0.1-0.3-0.2-0.7-0.2-1.1
				c0-0.7,0.2-1.2,0.5-1.6c0.3-0.4,0.9-0.6,1.5-0.6c0.1,0,0.2,0,0.3,0c0.1,0,0.3,0,0.4,0.1c0.2,0.1,0.3,0.2,0.4,0.3l-0.3,0.4v-2.5
				h1.4v4.8c0,0.2-0.1,0.4-0.2,0.6s-0.3,0.3-0.4,0.4s-0.4,0.2-0.7,0.3S35.5,30.9,35.2,30.9z M35.3,29.7c0.2,0,0.3,0,0.4-0.1
				c0.1-0.1,0.2-0.1,0.2-0.2v-1.8c-0.1-0.1-0.2-0.1-0.3-0.1c-0.1,0-0.2,0-0.3,0c-0.2,0-0.4,0-0.6,0.1c-0.2,0.1-0.3,0.2-0.4,0.4
				c-0.1,0.2-0.1,0.4-0.1,0.7c0,0.2,0,0.4,0.1,0.6c0.1,0.2,0.2,0.3,0.3,0.4C34.9,29.7,35,29.7,35.3,29.7z"/>
			<path class="st1" d="M39.3,32.4c-0.2,0-0.3,0-0.4,0c-0.1,0-0.3-0.1-0.4-0.1v-1.1c0.1,0,0.2,0.1,0.3,0.1c0.1,0,0.2,0,0.2,0
				c0.1,0,0.2,0,0.3-0.1s0.2-0.2,0.3-0.3s0.1-0.4,0.1-0.6l0,0.8L38,26.5h1.6l0.9,2.9h-0.1l0.9-2.9h1.5L41,30.7
				c-0.2,0.4-0.3,0.7-0.5,1c-0.2,0.2-0.4,0.4-0.6,0.5C39.8,32.3,39.5,32.4,39.3,32.4z"/>
		</g>
	</g>
</g>
</svg>
