<svg id="Groupe_141" data-name="Groupe 141" xmlns="http://www.w3.org/2000/svg" width="172.607" height="150" viewBox="0 0 172.607 150">
  <path id="Tracé_81" data-name="Tracé 81" d="M735.713,176.441c-23.142-19.582-47.015-29.107-71.3-31.748-5.779-.626-16.034.986-26.36,7.339-13.443,8.267-24.933,22.976-24.933,22.976s-26.746,27.747-23.185,51.013,28.82,44.17,28.82,44.17,20.6,18.849,52.363,24.261c47.813,2.925,87.151-50.409,90.307-68.425,2.4-13.686.764-28.956-25.71-49.586m7.114,38.419c-.253,4.627,2.022,15.079-22.853,47.986-23.929,29.23-68.706,27.356-103.2-1.248-31.958-26.5-16.6-59.64,7.641-88.608,20.386-24.36,87.033-2.074,102.92,12.123,15.211,13.137,15.917,21.943,15.489,29.748" transform="translate(-589.606 -144.567)" fill="#891b51"/>
  <path id="Tracé_82" data-name="Tracé 82" d="M735.929,184.567a113.083,113.083,0,0,0-12.573-11.238c-15.846-13.408-32.032-22.1-48.461-27.094q2.853-.111,5.786-.111c.453,0,.906,0,1.362.006q2.15-.069,4.167-.068c27.979,0,37.892,9.6,44.342,20.365,2.183,3.634,4.155,10.079,5.376,18.14m-74.458,96.246c-18.919,0-39.34-7.638-57.054-22.328q-1.18-.976-2.272-1.967c-7.419-16.515-6.488-38.11-6.488-38.11s-1-16.361,2.826-30.1a167.466,167.466,0,0,1,13.575-18.436c6.563-7.841,17.921-10.85,30.836-10.85a101.74,101.74,0,0,1,13.476.959c-24.391,8.356-54.357,26.3-53.793,47.182.94,34.88,10.536,67.479,48.649,67.479h.068c41.183-.059,73.175-25.174,71.856-60.078-1-13.06-2.589-22.356-4.352-29.073,11.513,11.244,12.058,19.16,11.67,26.252-.25,4.63,2.025,15.079-22.849,47.989-11.642,14.219-28.219,21.077-46.146,21.077" transform="translate(-577.25 -141.455)" fill="#ccb6c9"/>
  <path id="Tracé_83" data-name="Tracé 83" d="M657.769,283.411c-.959,0-1.476-.025-1.476-.025h-.01c-.542,0-30.651-.065-47.329-14.539a35.551,35.551,0,0,1-8.8-12.447q1.1.989,2.275,1.97c17.711,14.687,38.134,22.325,57.054,22.325,17.924,0,34.5-6.858,46.143-21.077,24.875-32.91,22.6-43.359,22.852-47.986.388-7.092-.157-15.008-11.673-26.252-3.375-12.863-7.395-16.262-9.13-18.519-4.46-5.8-10.314-11.636-28.8-11.99-.286-.009-.579-.015-.881-.015-5.677,0-14.234,1.8-23.62,5.012a102.17,102.17,0,0,0-13.473-.955c-12.915,0-24.274,3.008-30.836,10.85A167.605,167.605,0,0,0,596.5,188.2c.127-.45.256-.9.391-1.341,3.283-10.745,9.444-18.038,13.862-21.04,16.972-11.543,37.25-18.738,62.162-19.7,16.426,5,32.614,13.689,48.458,27.094a112.818,112.818,0,0,1,12.576,11.238c3.772,24.875.382,65.075-26.169,85.079a103.057,103.057,0,0,1-50.005,13.883" transform="translate(-575.262 -141.341)" fill="#964b70"/>
  <path id="Tracé_84" data-name="Tracé 84" d="M602.6,174.813c0-3.536-.163-7.1-.326-10.637a10.048,10.048,0,0,0,4.022,0c-.163,3.532-.327,7.1-.327,10.637,0,6.9.081,11.741.124,15.769a81.956,81.956,0,0,0,11.333-.536,3.787,3.787,0,0,0,0,2.466c-2.506-.123-5.052-.207-7.558-.207-2.546,0-5.052.083-7.595.207.163-3.536.326-7.1.326-10.637Z" transform="translate(-563.221 -103.736)" fill="#1a171c"/>
  <path id="Tracé_85" data-name="Tracé 85" d="M614.156,182.966A5.621,5.621,0,0,0,618.8,185.8a3.7,3.7,0,0,0,3.982-3.7c0-5.092-9.688-2.1-9.688-9.038,0-3.566,2.46-6.2,6.816-6.2a12.659,12.659,0,0,1,4.558,1.153,10.5,10.5,0,0,0-.987,2.913h-.493a3.766,3.766,0,0,0-3.616-2.546,3.337,3.337,0,0,0-3.486,3.449c0,5.339,9.691,2.053,9.691,8.994,0,3.119-2.835,6.491-7.394,6.491a10.186,10.186,0,0,1-5.3-1.356,9.283,9.283,0,0,0,.777-3Z" transform="translate(-541.136 -98.132)" fill="#1a171c"/>
  <path id="Tracé_86" data-name="Tracé 86" d="M619.565,169.253a10.249,10.249,0,0,1,6.611-2.386c3.942,0,6.655,2.426,6.655,6.081,0,3.079-.166,6.118-.166,9.565,0,1.356,0,3.042,1.6,3.042a1.665,1.665,0,0,0,.86-.166v.9a6.928,6.928,0,0,1-2.626.573,2.683,2.683,0,0,1-2.836-2.543c-1.97,1.97-3.655,3-6.445,3a5.216,5.216,0,0,1-5.462-5.052c0-3.292,2.219-5.052,5.788-5.628,5.955-.943,6.162-1.273,6.162-2.876,0-2.753-1.23-5.169-4.519-5.169a5.784,5.784,0,0,0-5.172,2.786h-.453Zm10.144,7.308c-2.833.946-8.585.657-8.585,5.129A3.59,3.59,0,0,0,624.7,185.6a5.935,5.935,0,0,0,4.842-2.876Z" transform="translate(-530.982 -98.132)" fill="#1a171c"/>
  <path id="Tracé_87" data-name="Tracé 87" d="M633.94,170.646a3.156,3.156,0,0,0-2.01-.657c-2.629,0-4.189,2.506-4.189,5.709,0,7.151,0,9.321.163,11.211a7.438,7.438,0,0,0-1.643-.2,8.532,8.532,0,0,0-1.723.2c.163-2.013.163-5.218.163-9.817v-1.313c0-2.136,0-4.966-.163-8.5a8.55,8.55,0,0,0,1.723.206,7.449,7.449,0,0,0,1.643-.206,33.21,33.21,0,0,0-.2,3.982l.08.04c1.56-2.956,3.53-4.435,5.422-4.435a3.1,3.1,0,0,1,1.316.25,11.27,11.27,0,0,0-.29,3.323Z" transform="translate(-516.864 -98.132)" fill="#1a171c"/>
  <path id="Tracé_88" data-name="Tracé 88" d="M638.5,166.867c3,0,5.585.863,6.615,1.806a12.88,12.88,0,0,0-.906,2.709h-.327a6.273,6.273,0,0,0-5.259-3.2c-4.969,0-6.981,3.816-6.981,8.868,0,5.625,2.549,8.541,7.1,8.541a8.924,8.924,0,0,0,6.159-2.916l.21.123a16.084,16.084,0,0,0-.25,2.013,11.758,11.758,0,0,1-6.855,2.509c-4.769,0-9.981-2.879-9.981-10.23,0-7.1,5.212-10.224,10.471-10.224" transform="translate(-509.594 -98.132)" fill="#1a171c"/>
  <path id="Tracé_89" data-name="Tracé 89" d="M611.5,192.849c1.11-2.105,2.1-4.217,2.993-6.313-1.877-4.9-7.009-16.962-8.15-19.527a8.593,8.593,0,0,0,3.745,0c1.674,5.138,3.834,10.236,6.075,15.649a128.061,128.061,0,0,0,6.072-15.649,4.488,4.488,0,0,0,2.691,0c-1.2,2.438-8.1,17.452-11.494,25.836Z" transform="translate(-554.744 -97.834)" fill="#1a171c"/>
</svg>
