<?xml version="1.0" encoding="utf-8"?>
<!-- Generator: Adobe Illustrator 26.0.1, SVG Export Plug-In . SVG Version: 6.00 Build 0)  -->
<svg version="1.1" id="Layer_1" xmlns="http://www.w3.org/2000/svg" xmlns:xlink="http://www.w3.org/1999/xlink" x="0px" y="0px"
	 viewBox="0 0 497.6 255.6" style="enable-background:new 0 0 497.6 255.6;" xml:space="preserve">
<style type="text/css">
	.st0{fill:none;stroke:#FCB74E;stroke-width:0.6727;stroke-miterlimit:10;}
	.st1{fill:#343375;}
	.st2{fill:#FCB74E;}
	.st3{fill:#00A995;}
	.st4{fill:#0098A2;}
</style>
<path class="st0" d="M0.5,31.4c-6.2,146.1,211.7,265.1,340,121C380.4,110,374.8,35.5,429,0.3"/>
<g id="supa">
	<circle class="st1" cx="376.9" cy="80.2" r="6.5"/>
	<g>
		<g>
			<path class="st1" d="M392,82.1c-0.3,0-0.5,0-0.7,0c-0.2,0-0.4-0.1-0.6-0.1c-0.2-0.1-0.4-0.1-0.6-0.2v-1.4
				c0.3,0.2,0.6,0.4,0.9,0.5s0.6,0.1,0.9,0.1c0.2,0,0.4,0,0.5-0.1c0.1-0.1,0.2-0.2,0.2-0.4c0-0.1-0.1-0.2-0.2-0.3S392,80,391.8,80
				c-0.2-0.1-0.4-0.1-0.7-0.2c-0.1-0.1-0.3-0.1-0.4-0.2c-0.1-0.1-0.3-0.2-0.4-0.3c-0.1-0.1-0.2-0.2-0.3-0.4s-0.1-0.4-0.1-0.6
				c0-0.2,0-0.5,0.1-0.7c0.1-0.2,0.2-0.4,0.4-0.6c0.2-0.2,0.4-0.3,0.7-0.4c0.3-0.1,0.6-0.1,0.9-0.1c0.2,0,0.4,0,0.6,0
				c0.2,0,0.3,0.1,0.5,0.1s0.3,0.1,0.5,0.2v1.4c-0.1-0.1-0.3-0.2-0.4-0.3c-0.2-0.1-0.3-0.2-0.5-0.2c-0.2-0.1-0.3-0.1-0.5-0.1
				c-0.1,0-0.3,0-0.4,0c-0.1,0-0.2,0.1-0.3,0.2s-0.1,0.2-0.1,0.3c0,0.1,0,0.2,0.1,0.3s0.2,0.1,0.4,0.2s0.3,0.1,0.5,0.2
				c0.2,0.1,0.4,0.1,0.6,0.2c0.2,0.1,0.3,0.2,0.5,0.3c0.1,0.1,0.2,0.3,0.3,0.4c0.1,0.2,0.1,0.4,0.1,0.6c0,0.3-0.1,0.6-0.2,0.9
				c-0.2,0.3-0.4,0.5-0.7,0.6S392.4,82.1,392,82.1z"/>
			<path class="st1" d="M396.7,82.1c-0.4,0-0.7-0.1-1-0.2c-0.3-0.1-0.5-0.3-0.7-0.5s-0.2-0.6-0.2-1v-2.5h1.3v2.4
				c0,0.2,0,0.4,0.2,0.5c0.1,0.1,0.3,0.2,0.5,0.2s0.4-0.1,0.5-0.2c0.1-0.1,0.2-0.3,0.2-0.5v-2.4h1.2v2.5c0,0.6-0.2,1-0.5,1.3
				C397.7,81.9,397.3,82.1,396.7,82.1z"/>
			<path class="st1" d="M401.9,82.1c-0.1,0-0.2,0-0.3,0s-0.3,0-0.5-0.1c-0.2-0.1-0.3-0.2-0.4-0.3l0.2-0.4v2.1h-1.3v-4.5
				c0-0.2,0-0.3,0.2-0.5c0.1-0.1,0.2-0.2,0.4-0.3s0.4-0.1,0.6-0.2s0.5-0.1,0.8-0.1c0.4,0,0.8,0.1,1.1,0.2c0.3,0.1,0.6,0.4,0.7,0.7
				c0.2,0.3,0.3,0.8,0.3,1.3c0,0.4-0.1,0.8-0.2,1.1c-0.1,0.3-0.3,0.6-0.6,0.7C402.5,82,402.2,82.1,401.9,82.1z M401.4,81
				c0.2,0,0.4,0,0.5-0.1c0.1-0.1,0.2-0.2,0.3-0.3c0.1-0.2,0.1-0.4,0.1-0.7c0-0.2,0-0.4-0.1-0.6s-0.1-0.3-0.3-0.3
				c-0.1-0.1-0.3-0.1-0.5-0.1c-0.2,0-0.4,0-0.5,0.1c-0.1,0-0.1,0.1-0.1,0.2v1.8c0.1,0,0.2,0.1,0.3,0.1C401.2,81,401.3,81,401.4,81z"
				/>
			<path class="st1" d="M406.2,82.1c-0.4,0-0.8-0.1-1.1-0.2c-0.3-0.2-0.6-0.4-0.7-0.7c-0.2-0.3-0.3-0.7-0.3-1.1
				c0-0.7,0.2-1.3,0.5-1.6c0.4-0.4,0.9-0.6,1.5-0.6c0.4,0,0.8,0.1,1.1,0.3c0.3,0.2,0.5,0.5,0.6,0.8c0.1,0.4,0.2,0.8,0.2,1.4h-3
				l-0.2-0.8h2.1l-0.2,0.4c0-0.4-0.1-0.7-0.2-0.9c-0.1-0.2-0.3-0.3-0.5-0.3c-0.1,0-0.2,0-0.3,0.1c-0.1,0.1-0.2,0.2-0.3,0.3
				c-0.1,0.2-0.1,0.4-0.1,0.6c0,0.4,0.1,0.6,0.3,0.8c0.2,0.2,0.5,0.3,0.9,0.3c0.1,0,0.3,0,0.4-0.1c0.1,0,0.3-0.1,0.4-0.1
				c0.1,0,0.2-0.1,0.3-0.1v1.1c-0.2,0.1-0.4,0.1-0.6,0.2C406.8,82.1,406.6,82.1,406.2,82.1z"/>
			<path class="st1" d="M408.9,82v-3.6c0.1-0.1,0.2-0.2,0.4-0.2c0.2-0.1,0.4-0.2,0.7-0.2c0.2-0.1,0.5-0.1,0.7-0.1
				c0.3,0,0.5,0,0.7,0.1c0.2,0,0.3,0.1,0.4,0.2V79c-0.1,0-0.2,0-0.3-0.1s-0.3,0-0.4,0c-0.2,0-0.3,0-0.4,0c-0.1,0-0.2,0-0.3,0V82
				H408.9z"/>
			<path class="st1" d="M413.7,82l-1.7-4h1.4l1.2,3h-0.3l1-3h1.4l-1.7,4H413.7z"/>
			<path class="st1" d="M417.4,77.4v-1h1.4v1H417.4z M417.4,82v-4h1.3l0,4H417.4z"/>
			<path class="st1" d="M420.9,82.1c-0.3,0-0.5,0-0.7-0.1c-0.2-0.1-0.4-0.1-0.6-0.2v-1.1c0.1,0.1,0.2,0.1,0.4,0.2
				c0.1,0.1,0.3,0.1,0.5,0.2s0.4,0.1,0.6,0.1c0.2,0,0.3,0,0.3-0.1s0.1-0.1,0.1-0.2s0-0.1-0.1-0.2c-0.1,0-0.2-0.1-0.3-0.1
				c-0.1,0-0.3-0.1-0.4-0.1c-0.1,0-0.2-0.1-0.4-0.1s-0.2-0.1-0.3-0.2c-0.1-0.1-0.2-0.2-0.2-0.4c-0.1-0.1-0.1-0.3-0.1-0.5
				c0-0.3,0.1-0.5,0.2-0.7c0.1-0.2,0.2-0.3,0.4-0.4s0.4-0.2,0.6-0.2c0.2,0,0.4-0.1,0.6-0.1c0.3,0,0.6,0,0.8,0.1
				c0.2,0.1,0.4,0.1,0.5,0.2l0,1c-0.2-0.1-0.4-0.2-0.5-0.3s-0.4-0.1-0.6-0.1c-0.2,0-0.3,0-0.4,0.1c-0.1,0.1-0.1,0.1-0.1,0.2
				s0,0.2,0.1,0.2c0.1,0,0.1,0.1,0.2,0.1s0.2,0.1,0.3,0.1c0.1,0,0.3,0.1,0.4,0.1c0.1,0,0.3,0.1,0.4,0.2c0.1,0.1,0.2,0.2,0.3,0.3
				c0.1,0.1,0.1,0.3,0.1,0.6c0,0.3-0.1,0.6-0.3,0.8s-0.4,0.3-0.7,0.4C421.6,82,421.3,82.1,420.9,82.1z"/>
			<path class="st1" d="M425.5,82.1c-0.4,0-0.8-0.1-1.1-0.2c-0.3-0.2-0.6-0.4-0.7-0.7c-0.2-0.3-0.3-0.7-0.3-1.1
				c0-0.7,0.2-1.3,0.5-1.6c0.4-0.4,0.9-0.6,1.5-0.6c0.4,0,0.8,0.1,1.1,0.3c0.3,0.2,0.5,0.5,0.6,0.8c0.1,0.4,0.2,0.8,0.2,1.4h-3
				l-0.2-0.8h2.1l-0.2,0.4c0-0.4-0.1-0.7-0.2-0.9c-0.1-0.2-0.3-0.3-0.5-0.3c-0.1,0-0.2,0-0.3,0.1c-0.1,0.1-0.2,0.2-0.3,0.3
				c-0.1,0.2-0.1,0.4-0.1,0.6c0,0.4,0.1,0.6,0.3,0.8c0.2,0.2,0.5,0.3,0.9,0.3c0.1,0,0.3,0,0.4-0.1c0.1,0,0.3-0.1,0.4-0.1
				c0.1,0,0.2-0.1,0.3-0.1v1.1c-0.2,0.1-0.4,0.1-0.6,0.2C426.1,82.1,425.8,82.1,425.5,82.1z"/>
			<path class="st1" d="M430,82.1c-0.4,0-0.7-0.1-1-0.2c-0.3-0.1-0.5-0.3-0.7-0.5s-0.2-0.6-0.2-1v-2.5h1.3v2.4c0,0.2,0,0.4,0.2,0.5
				c0.1,0.1,0.3,0.2,0.5,0.2s0.4-0.1,0.5-0.2c0.1-0.1,0.2-0.3,0.2-0.5v-2.4h1.2v2.5c0,0.6-0.2,1-0.5,1.3
				C431.1,81.9,430.6,82.1,430,82.1z"/>
			<path class="st1" d="M432.9,82v-3.6c0.1-0.1,0.2-0.2,0.4-0.2c0.2-0.1,0.4-0.2,0.7-0.2c0.2-0.1,0.5-0.1,0.7-0.1
				c0.3,0,0.5,0,0.7,0.1c0.2,0,0.3,0.1,0.4,0.2V79c-0.1,0-0.2,0-0.3-0.1s-0.3,0-0.4,0c-0.2,0-0.3,0-0.4,0c-0.1,0-0.2,0-0.3,0V82
				H432.9z"/>
		</g>

	</g>
</g>
<g id="cont">
	<circle class="st2" cx="333" cy="160.4" r="6.5"/>
	<g>

		<g>
			<path class="st2" d="M346.5,167.8v-5.3h2.7c0.6,0,1.1,0.1,1.5,0.4c0.4,0.3,0.5,0.7,0.5,1.3c0,0.2,0,0.4-0.1,0.7
				c-0.1,0.2-0.2,0.4-0.4,0.6c-0.2,0.2-0.4,0.3-0.7,0.3l-0.2-0.5l1.6,2.5h-1.8l-1.3-2.3l0.6,0.5h-1v1.8H346.5z M347.9,165h1
				c0.2,0,0.3-0.1,0.5-0.2s0.2-0.3,0.2-0.6c0-0.2-0.1-0.4-0.2-0.5s-0.3-0.2-0.4-0.2h-1.1V165z"/>
			<path class="st2" d="M354.1,168c-0.4,0-0.8-0.1-1.1-0.2c-0.3-0.2-0.6-0.4-0.7-0.7c-0.2-0.3-0.3-0.7-0.3-1.1
				c0-0.7,0.2-1.3,0.5-1.6c0.4-0.4,0.9-0.6,1.5-0.6c0.4,0,0.8,0.1,1.1,0.3c0.3,0.2,0.5,0.5,0.6,0.8c0.1,0.4,0.2,0.8,0.2,1.4h-3
				l-0.2-0.8h2.1l-0.2,0.4c0-0.4-0.1-0.7-0.2-0.9c-0.1-0.2-0.3-0.3-0.5-0.3c-0.1,0-0.2,0-0.3,0.1c-0.1,0.1-0.2,0.2-0.3,0.3
				c-0.1,0.2-0.1,0.4-0.1,0.6c0,0.4,0.1,0.6,0.3,0.8c0.2,0.2,0.5,0.3,0.9,0.3c0.1,0,0.3,0,0.4-0.1c0.1,0,0.3-0.1,0.4-0.1
				c0.1,0,0.2-0.1,0.3-0.1v1.1c-0.2,0.1-0.4,0.1-0.6,0.2C354.7,167.9,354.4,168,354.1,168z"/>
			<path class="st2" d="M358,167.8h-1.3v-5.5h1.3V167.8z"/>
			<path class="st2" d="M360.9,168c-0.4,0-0.8-0.1-1.1-0.2c-0.3-0.2-0.6-0.4-0.7-0.7c-0.2-0.3-0.3-0.7-0.3-1.1
				c0-0.7,0.2-1.3,0.5-1.6c0.4-0.4,0.9-0.6,1.5-0.6c0.4,0,0.8,0.1,1.1,0.3c0.3,0.2,0.5,0.5,0.6,0.8c0.1,0.4,0.2,0.8,0.2,1.4h-3
				l-0.2-0.8h2.1l-0.2,0.4c0-0.4-0.1-0.7-0.2-0.9c-0.1-0.2-0.3-0.3-0.5-0.3c-0.1,0-0.2,0-0.3,0.1c-0.1,0.1-0.2,0.2-0.3,0.3
				c-0.1,0.2-0.1,0.4-0.1,0.6c0,0.4,0.1,0.6,0.3,0.8c0.2,0.2,0.5,0.3,0.9,0.3c0.1,0,0.3,0,0.4-0.1c0.1,0,0.3-0.1,0.4-0.1
				c0.1,0,0.2-0.1,0.3-0.1v1.1c-0.2,0.1-0.4,0.1-0.6,0.2C361.5,167.9,361.2,168,360.9,168z"/>
			<path class="st2" d="M365.4,167.9c-0.3,0-0.6,0-0.8-0.1c-0.3-0.1-0.5-0.2-0.7-0.4c-0.2-0.2-0.4-0.4-0.5-0.6
				c-0.1-0.3-0.2-0.5-0.2-0.9c0-0.4,0-0.7,0.2-0.9s0.2-0.5,0.4-0.7c0.2-0.2,0.4-0.3,0.7-0.4c0.3-0.1,0.6-0.1,0.9-0.1
				c0.2,0,0.5,0,0.7,0.1c0.2,0,0.4,0.1,0.6,0.2v1.1c-0.2-0.1-0.4-0.2-0.5-0.2s-0.4-0.1-0.5-0.1c-0.3,0-0.6,0.1-0.8,0.2
				c-0.2,0.2-0.3,0.4-0.3,0.7c0,0.4,0.1,0.7,0.3,0.8s0.5,0.3,0.9,0.3c0.2,0,0.4,0,0.6-0.1c0.2-0.1,0.3-0.2,0.5-0.2v1.1
				c-0.2,0.1-0.4,0.2-0.6,0.2C366,167.9,365.7,167.9,365.4,167.9z"/>
			<path class="st2" d="M369.3,168c-0.5,0-0.9-0.1-1.1-0.3s-0.4-0.6-0.4-1v-1.9h-0.6v-1h0.6v-1.1h1.4v1.1h0.9v1h-0.9v1.8
				c0,0.1,0,0.2,0.1,0.3c0.1,0.1,0.1,0.1,0.3,0.1c0.1,0,0.2,0,0.3-0.1c0.1,0,0.2-0.1,0.2-0.1v1.1c-0.1,0.1-0.3,0.1-0.4,0.1
				C369.5,168,369.4,168,369.3,168z"/>
			<path class="st2" d="M372.7,168c-0.4,0-0.8-0.1-1.1-0.2c-0.3-0.2-0.6-0.4-0.7-0.7c-0.2-0.3-0.3-0.7-0.3-1.1
				c0-0.7,0.2-1.3,0.5-1.6c0.4-0.4,0.9-0.6,1.5-0.6c0.4,0,0.8,0.1,1.1,0.3c0.3,0.2,0.5,0.5,0.6,0.8c0.1,0.4,0.2,0.8,0.2,1.4h-3
				l-0.2-0.8h2.1l-0.2,0.4c0-0.4-0.1-0.7-0.2-0.9c-0.1-0.2-0.3-0.3-0.5-0.3c-0.1,0-0.2,0-0.3,0.1c-0.1,0.1-0.2,0.2-0.3,0.3
				c-0.1,0.2-0.1,0.4-0.1,0.6c0,0.4,0.1,0.6,0.3,0.8c0.2,0.2,0.5,0.3,0.9,0.3c0.1,0,0.3,0,0.4-0.1c0.1,0,0.3-0.1,0.4-0.1
				c0.1,0,0.2-0.1,0.3-0.1v1.1c-0.2,0.1-0.4,0.1-0.6,0.2C373.3,167.9,373.1,168,372.7,168z"/>
			<path class="st2" d="M377.3,168c-0.4,0-0.7-0.1-1-0.2c-0.3-0.1-0.5-0.3-0.7-0.5s-0.2-0.6-0.2-1v-2.5h1.3v2.4c0,0.2,0,0.4,0.2,0.5
				c0.1,0.1,0.3,0.2,0.5,0.2s0.4-0.1,0.5-0.2c0.1-0.1,0.2-0.3,0.2-0.5v-2.4h1.2v2.5c0,0.6-0.2,1-0.5,1.3
				C378.3,167.8,377.9,168,377.3,168z"/>
			<path class="st2" d="M380.2,167.8v-3.6c0.1-0.1,0.2-0.2,0.4-0.2c0.2-0.1,0.4-0.2,0.7-0.2c0.2-0.1,0.5-0.1,0.7-0.1
				c0.3,0,0.5,0,0.7,0.1c0.2,0,0.3,0.1,0.4,0.2v0.9c-0.1,0-0.2,0-0.3-0.1s-0.3,0-0.4,0c-0.2,0-0.3,0-0.4,0c-0.1,0-0.2,0-0.3,0v3.1
				H380.2z"/>
		</g>
	</g>
</g>
<g id="rev">
	<circle class="st3" cx="243.6" cy="212.2" r="6.5"/>
	<g>
		<g>
			<path class="st3" d="M253.1,229.4c-0.9,0-1.5-0.2-2-0.7c-0.5-0.4-0.7-1.1-0.7-2.1c0-0.9,0.2-1.6,0.6-2.1s1.1-0.7,2-0.7
				c0.3,0,0.6,0,0.9,0.1c0.3,0.1,0.6,0.2,0.8,0.3v1.2c-0.3-0.2-0.6-0.3-0.8-0.4c-0.3-0.1-0.5-0.1-0.7-0.1c-0.3,0-0.5,0.1-0.7,0.2
				c-0.2,0.1-0.4,0.3-0.5,0.5c-0.1,0.2-0.2,0.6-0.2,1c0,0.4,0.1,0.8,0.2,1c0.1,0.2,0.3,0.4,0.5,0.5c0.2,0.1,0.5,0.1,0.8,0.1
				c0.2,0,0.4,0,0.6-0.1c0.2-0.1,0.5-0.2,0.8-0.4v1.2c-0.1,0.1-0.3,0.1-0.5,0.2s-0.4,0.1-0.6,0.1
				C253.5,229.4,253.3,229.4,253.1,229.4z"/>
			<path class="st3" d="M257.6,229.4c-0.7,0-1.2-0.2-1.6-0.5c-0.3-0.4-0.5-0.9-0.5-1.6c0-0.8,0.2-1.3,0.5-1.6
				c0.3-0.3,0.9-0.5,1.6-0.5c0.5,0,0.8,0.1,1.2,0.2c0.3,0.1,0.5,0.4,0.7,0.7c0.2,0.3,0.2,0.7,0.2,1.2c0,0.7-0.2,1.3-0.5,1.6
				C258.8,229.3,258.3,229.4,257.6,229.4z M257.6,228.4c0.2,0,0.3,0,0.4-0.1c0.1-0.1,0.2-0.2,0.3-0.4s0.1-0.4,0.1-0.6
				c0-0.3,0-0.5-0.1-0.7c-0.1-0.2-0.2-0.3-0.3-0.3c-0.1-0.1-0.3-0.1-0.4-0.1c-0.2,0-0.3,0-0.4,0.1c-0.1,0.1-0.2,0.2-0.3,0.3
				c-0.1,0.2-0.1,0.4-0.1,0.7c0,0.4,0.1,0.7,0.2,0.9S257.3,228.4,257.6,228.4z"/>
			<path class="st3" d="M260.5,225.6c0.1-0.1,0.2-0.1,0.4-0.2c0.2-0.1,0.4-0.1,0.6-0.1c0.2,0,0.4-0.1,0.6-0.1c0.2,0,0.4,0,0.6,0
				c0.4,0,0.7,0,0.9,0.1c0.3,0.1,0.5,0.2,0.6,0.4c0.1,0.2,0.2,0.5,0.2,0.8v2.7h-1.3v-2.4c0-0.1,0-0.2,0-0.3s-0.1-0.1-0.1-0.2
				c-0.1-0.1-0.1-0.1-0.2-0.1s-0.2,0-0.3,0c-0.1,0-0.2,0-0.3,0c-0.1,0-0.2,0.1-0.2,0.1v2.9h-1.3V225.6z"/>
			<path class="st3" d="M267.1,229.5c-0.5,0-0.9-0.1-1.1-0.3s-0.4-0.6-0.4-1v-1.9h-0.6v-1h0.6v-1.1h1.4v1.1h0.9v1H267v1.8
				c0,0.1,0,0.2,0.1,0.3c0.1,0.1,0.1,0.1,0.3,0.1c0.1,0,0.2,0,0.3-0.1c0.1,0,0.2-0.1,0.2-0.1v1.1c-0.1,0.1-0.3,0.1-0.4,0.1
				C267.3,229.5,267.2,229.5,267.1,229.5z"/>
			<path class="st3" d="M268.7,229.3v-3.6c0.1-0.1,0.2-0.2,0.4-0.2c0.2-0.1,0.4-0.2,0.7-0.2c0.2-0.1,0.5-0.1,0.7-0.1
				c0.3,0,0.5,0,0.7,0.1c0.2,0,0.3,0.1,0.4,0.2v0.9c-0.1,0-0.2,0-0.3-0.1s-0.3,0-0.4,0c-0.2,0-0.3,0-0.4,0c-0.1,0-0.2,0-0.3,0v3.1
				H268.7z"/>
			<path class="st3" d="M274,229.4c-0.7,0-1.2-0.2-1.6-0.5c-0.3-0.4-0.5-0.9-0.5-1.6c0-0.8,0.2-1.3,0.5-1.6c0.3-0.3,0.9-0.5,1.6-0.5
				c0.5,0,0.8,0.1,1.2,0.2c0.3,0.1,0.5,0.4,0.7,0.7c0.2,0.3,0.2,0.7,0.2,1.2c0,0.7-0.2,1.3-0.5,1.6
				C275.2,229.3,274.6,229.4,274,229.4z M272.8,224.7l0.7-1h1.1l0.7,1h-0.9l-0.4-0.4l-0.4,0.4H272.8z M274,228.4
				c0.2,0,0.3,0,0.4-0.1s0.2-0.2,0.3-0.4s0.1-0.4,0.1-0.6c0-0.3,0-0.5-0.1-0.7c-0.1-0.2-0.2-0.3-0.3-0.3s-0.3-0.1-0.4-0.1
				c-0.2,0-0.3,0-0.4,0.1c-0.1,0.1-0.2,0.2-0.3,0.3c-0.1,0.2-0.1,0.4-0.1,0.7c0,0.4,0.1,0.7,0.2,0.9S273.7,228.4,274,228.4z"/>
			<path class="st3" d="M278.1,229.3h-1.3v-5.5h1.3V229.3z"/>
			<path class="st3" d="M281,229.4c-0.4,0-0.8-0.1-1.1-0.2c-0.3-0.2-0.6-0.4-0.7-0.7c-0.2-0.3-0.3-0.7-0.3-1.1
				c0-0.7,0.2-1.3,0.5-1.6c0.4-0.4,0.9-0.6,1.5-0.6c0.4,0,0.8,0.1,1.1,0.3c0.3,0.2,0.5,0.5,0.6,0.8c0.1,0.4,0.2,0.8,0.2,1.4h-3
				l-0.2-0.8h2.1l-0.2,0.4c0-0.4-0.1-0.7-0.2-0.9c-0.1-0.2-0.3-0.3-0.5-0.3c-0.1,0-0.2,0-0.3,0.1c-0.1,0.1-0.2,0.2-0.3,0.3
				c-0.1,0.2-0.1,0.4-0.1,0.6c0,0.4,0.1,0.6,0.3,0.8c0.2,0.2,0.5,0.3,0.9,0.3c0.1,0,0.3,0,0.4-0.1c0.1,0,0.3-0.1,0.4-0.1
				c0.1,0,0.2-0.1,0.3-0.1v1.1c-0.2,0.1-0.4,0.1-0.6,0.2C281.6,229.4,281.3,229.4,281,229.4z"/>
			<path class="st3" d="M285.6,229.4c-0.4,0-0.7-0.1-1-0.2c-0.3-0.1-0.5-0.3-0.7-0.5s-0.2-0.6-0.2-1v-2.5h1.3v2.4
				c0,0.2,0,0.4,0.2,0.5c0.1,0.1,0.3,0.2,0.5,0.2s0.4-0.1,0.5-0.2c0.1-0.1,0.2-0.3,0.2-0.5v-2.4h1.2v2.5c0,0.6-0.2,1-0.5,1.3
				C286.6,229.3,286.1,229.4,285.6,229.4z"/>
			<path class="st3" d="M288.4,229.3v-3.6c0.1-0.1,0.2-0.2,0.4-0.2c0.2-0.1,0.4-0.2,0.7-0.2c0.2-0.1,0.5-0.1,0.7-0.1
				c0.3,0,0.5,0,0.7,0.1c0.2,0,0.3,0.1,0.4,0.2v0.9c-0.1,0-0.2,0-0.3-0.1s-0.3,0-0.4,0c-0.2,0-0.3,0-0.4,0c-0.1,0-0.2,0-0.3,0v3.1
				H288.4z"/>
		</g>
			</g>
</g>
<g id="inves">
	<circle class="st4" cx="123.4" cy="203.1" r="6.5"/>
	<g>
		<g>
			<path class="st4" d="M120.7,224.4v-5.3h1.4v5.3H120.7z"/>
			<path class="st4" d="M123.2,220.7c0.1-0.1,0.2-0.1,0.4-0.2c0.2-0.1,0.4-0.1,0.6-0.1c0.2,0,0.4-0.1,0.6-0.1c0.2,0,0.4,0,0.6,0
				c0.4,0,0.7,0,0.9,0.1c0.3,0.1,0.5,0.2,0.6,0.4c0.1,0.2,0.2,0.5,0.2,0.8v2.7h-1.3V222c0-0.1,0-0.2,0-0.3s-0.1-0.1-0.1-0.2
				c-0.1-0.1-0.1-0.1-0.2-0.1s-0.2,0-0.3,0c-0.1,0-0.2,0-0.3,0c-0.1,0-0.2,0.1-0.2,0.1v2.9h-1.3V220.7z"/>
			<path class="st4" d="M129.3,224.4l-1.7-4h1.4l1.2,3h-0.3l1-3h1.4l-1.7,4H129.3z"/>
			<path class="st4" d="M134.6,224.5c-0.4,0-0.8-0.1-1.1-0.2c-0.3-0.2-0.6-0.4-0.7-0.7c-0.2-0.3-0.3-0.7-0.3-1.1
				c0-0.7,0.2-1.3,0.5-1.6c0.4-0.4,0.9-0.6,1.5-0.6c0.4,0,0.8,0.1,1.1,0.3c0.3,0.2,0.5,0.5,0.6,0.8c0.1,0.4,0.2,0.8,0.2,1.4h-3
				l-0.2-0.8h2.1l-0.2,0.4c0-0.4-0.1-0.7-0.2-0.9c-0.1-0.2-0.3-0.3-0.5-0.3c-0.1,0-0.2,0-0.3,0.1c-0.1,0.1-0.2,0.2-0.3,0.3
				c-0.1,0.2-0.1,0.4-0.1,0.6c0,0.4,0.1,0.6,0.3,0.8c0.2,0.2,0.5,0.3,0.9,0.3c0.1,0,0.3,0,0.4-0.1c0.1,0,0.3-0.1,0.4-0.1
				c0.1,0,0.2-0.1,0.3-0.1v1.1c-0.2,0.1-0.4,0.1-0.6,0.2C135.2,224.5,134.9,224.5,134.6,224.5z"/>
			<path class="st4" d="M138.4,224.5c-0.3,0-0.5,0-0.7-0.1c-0.2-0.1-0.4-0.1-0.6-0.2v-1.1c0.1,0.1,0.2,0.1,0.4,0.2
				c0.1,0.1,0.3,0.1,0.5,0.2s0.4,0.1,0.6,0.1c0.2,0,0.3,0,0.3-0.1s0.1-0.1,0.1-0.2s0-0.1-0.1-0.2c-0.1,0-0.2-0.1-0.3-0.1
				c-0.1,0-0.3-0.1-0.4-0.1c-0.1,0-0.2-0.1-0.4-0.1s-0.2-0.1-0.3-0.2c-0.1-0.1-0.2-0.2-0.2-0.4c-0.1-0.1-0.1-0.3-0.1-0.5
				c0-0.3,0.1-0.5,0.2-0.7c0.1-0.2,0.2-0.3,0.4-0.4s0.4-0.2,0.6-0.2c0.2,0,0.4-0.1,0.6-0.1c0.3,0,0.6,0,0.8,0.1
				c0.2,0.1,0.4,0.1,0.5,0.2l0,1c-0.2-0.1-0.4-0.2-0.5-0.3s-0.4-0.1-0.6-0.1c-0.2,0-0.3,0-0.4,0.1c-0.1,0.1-0.1,0.1-0.1,0.2
				s0,0.2,0.1,0.2c0.1,0,0.1,0.1,0.2,0.1s0.2,0.1,0.3,0.1c0.1,0,0.3,0.1,0.4,0.1c0.1,0,0.3,0.1,0.4,0.2c0.1,0.1,0.2,0.2,0.3,0.3
				c0.1,0.1,0.1,0.3,0.1,0.6c0,0.3-0.1,0.6-0.3,0.8s-0.4,0.3-0.7,0.4C139,224.5,138.7,224.5,138.4,224.5z"/>
			<path class="st4" d="M142.8,224.6c-0.5,0-0.9-0.1-1.1-0.3s-0.4-0.6-0.4-1v-1.9h-0.6v-1h0.6v-1.1h1.4v1.1h0.9v1h-0.9v1.8
				c0,0.1,0,0.2,0.1,0.3c0.1,0.1,0.1,0.1,0.3,0.1c0.1,0,0.2,0,0.3-0.1c0.1,0,0.2-0.1,0.2-0.1v1.1c-0.1,0.1-0.3,0.1-0.4,0.1
				C143,224.6,142.9,224.6,142.8,224.6z"/>
			<path class="st4" d="M144.4,219.9v-1h1.4v1H144.4z M144.4,224.4v-4h1.3l0,4H144.4z"/>
			<path class="st4" d="M148.3,224.5c-0.4,0-0.7-0.1-0.9-0.2c-0.3-0.1-0.5-0.4-0.6-0.7c-0.1-0.3-0.2-0.7-0.2-1.1
				c0-0.4,0.1-0.8,0.2-1.1c0.1-0.3,0.3-0.5,0.5-0.7c0.2-0.2,0.4-0.3,0.7-0.4c0.3-0.1,0.6-0.1,1-0.1c0.4,0,0.7,0,0.9,0.1
				c0.3,0.1,0.4,0.2,0.6,0.4s0.2,0.4,0.2,0.6v3.1c0,0.3,0,0.6-0.1,0.8s-0.2,0.4-0.4,0.6c-0.2,0.1-0.4,0.3-0.7,0.3s-0.6,0.1-0.9,0.1
				c-0.4,0-0.7,0-1-0.1c-0.3-0.1-0.5-0.1-0.6-0.2v-1.2c0.1,0,0.2,0.1,0.4,0.1c0.2,0.1,0.3,0.1,0.5,0.1c0.2,0,0.4,0.1,0.6,0.1
				c0.2,0,0.4,0,0.5-0.1c0.1-0.1,0.2-0.2,0.3-0.3s0.1-0.2,0.1-0.4v-0.7l0.2,0.2c-0.1,0.1-0.2,0.2-0.3,0.3c-0.1,0.1-0.2,0.2-0.4,0.2
				S148.5,224.5,148.3,224.5z M148.7,223.6c0.1,0,0.2,0,0.3,0s0.2-0.1,0.3-0.1v-1.7c0-0.1,0-0.2-0.1-0.2s-0.1-0.1-0.2-0.1
				c-0.1,0-0.2,0-0.3,0c-0.2,0-0.4,0-0.5,0.1s-0.2,0.2-0.3,0.4c-0.1,0.2-0.1,0.4-0.1,0.6c0,0.3,0.1,0.6,0.2,0.8
				C148.2,223.5,148.4,223.6,148.7,223.6z"/>
			<path class="st4" d="M153.1,224.5c-0.3,0-0.5,0-0.7-0.1s-0.4-0.1-0.6-0.2c-0.2-0.1-0.3-0.3-0.4-0.4c-0.1-0.2-0.1-0.4-0.1-0.7
				c0-0.2,0-0.4,0.2-0.6c0.1-0.2,0.3-0.3,0.5-0.4c0.2-0.1,0.5-0.2,0.8-0.2c0.2,0,0.3,0,0.5,0.1c0.2,0,0.3,0.1,0.5,0.2
				s0.2,0.1,0.3,0.2l0,0.6c-0.1-0.1-0.2-0.1-0.4-0.1c-0.1,0-0.3-0.1-0.4-0.1c-0.2,0-0.4,0-0.5,0.1c-0.1,0.1-0.2,0.2-0.2,0.3
				c0,0.1,0,0.2,0.1,0.2c0.1,0.1,0.1,0.1,0.2,0.2c0.1,0,0.2,0.1,0.3,0.1c0.3,0,0.4,0,0.5,0c0.1,0,0.1-0.1,0.1-0.2V222
				c0-0.2-0.1-0.4-0.2-0.5c-0.2-0.1-0.4-0.2-0.6-0.2c-0.2,0-0.5,0-0.7,0.1c-0.2,0.1-0.4,0.2-0.6,0.3v-1.2c0.1-0.1,0.3-0.2,0.6-0.2
				s0.6-0.1,1-0.1c0.1,0,0.2,0,0.4,0c0.2,0,0.3,0.1,0.5,0.1c0.2,0.1,0.3,0.1,0.5,0.2c0.1,0.1,0.3,0.2,0.3,0.4
				c0.1,0.2,0.1,0.4,0.1,0.6l0,1.9c0,0.2-0.1,0.4-0.2,0.5c-0.2,0.1-0.4,0.2-0.7,0.3C153.9,224.5,153.5,224.5,153.1,224.5z"/>
			<path class="st4" d="M157.8,224.6c-0.5,0-0.9-0.1-1.1-0.3s-0.4-0.6-0.4-1v-1.9h-0.6v-1h0.6v-1.1h1.4v1.1h0.9v1h-0.9v1.8
				c0,0.1,0,0.2,0.1,0.3c0.1,0.1,0.1,0.1,0.3,0.1c0.1,0,0.2,0,0.3-0.1c0.1,0,0.2-0.1,0.2-0.1v1.1c-0.1,0.1-0.3,0.1-0.4,0.1
				C158.1,224.6,157.9,224.6,157.8,224.6z"/>
			<path class="st4" d="M161.3,224.5c-0.4,0-0.8-0.1-1.1-0.2c-0.3-0.2-0.6-0.4-0.7-0.7c-0.2-0.3-0.3-0.7-0.3-1.1
				c0-0.7,0.2-1.3,0.5-1.6c0.4-0.4,0.9-0.6,1.5-0.6c0.4,0,0.8,0.1,1.1,0.3c0.3,0.2,0.5,0.5,0.6,0.8c0.1,0.4,0.2,0.8,0.2,1.4h-3
				L160,222h2.1l-0.2,0.4c0-0.4-0.1-0.7-0.2-0.9c-0.1-0.2-0.3-0.3-0.5-0.3c-0.1,0-0.2,0-0.3,0.1c-0.1,0.1-0.2,0.2-0.3,0.3
				c-0.1,0.2-0.1,0.4-0.1,0.6c0,0.4,0.1,0.6,0.3,0.8c0.2,0.2,0.5,0.3,0.9,0.3c0.1,0,0.3,0,0.4-0.1c0.1,0,0.3-0.1,0.4-0.1
				c0.1,0,0.2-0.1,0.3-0.1v1.1c-0.2,0.1-0.4,0.1-0.6,0.2C161.9,224.5,161.6,224.5,161.3,224.5z"/>
			<path class="st4" d="M165.9,224.5c-0.4,0-0.7-0.1-1-0.2c-0.3-0.1-0.5-0.3-0.7-0.5s-0.2-0.6-0.2-1v-2.5h1.3v2.4
				c0,0.2,0,0.4,0.2,0.5c0.1,0.1,0.3,0.2,0.5,0.2s0.4-0.1,0.5-0.2c0.1-0.1,0.2-0.3,0.2-0.5v-2.4h1.2v2.5c0,0.6-0.2,1-0.5,1.3
				C166.9,224.4,166.5,224.5,165.9,224.5z"/>
			<path class="st4" d="M168.8,224.4v-3.6c0.1-0.1,0.2-0.2,0.4-0.2c0.2-0.1,0.4-0.2,0.7-0.2c0.2-0.1,0.5-0.1,0.7-0.1
				c0.3,0,0.5,0,0.7,0.1c0.2,0,0.3,0.1,0.4,0.2v0.9c-0.1,0-0.2,0-0.3-0.1s-0.3,0-0.4,0c-0.2,0-0.3,0-0.4,0c-0.1,0-0.2,0-0.3,0v3.1
				H168.8z"/>
		</g>
			</g>
</g>
</svg>
