<?xml version="1.0" encoding="utf-8"?>
<!-- Generator: Adobe Illustrator 23.0.3, SVG Export Plug-In . SVG Version: 6.00 Build 0)  -->
<svg version="1.1" id="Calque_1" xmlns="http://www.w3.org/2000/svg" xmlns:xlink="http://www.w3.org/1999/xlink" x="0px" y="0px"
	 viewBox="0 0 324.4 408.26" style="enable-background:new 0 0 324.4 408.26;" xml:space="preserve">
<style type="text/css">
	.st0{display:none;fill:#65C8D0;stroke:#001BA2;stroke-width:0.25;stroke-miterlimit:10;}
	.st1{fill:#0495A0;}
	.st2{display:none;opacity:0.24;fill:url(#SVGID_1_);}
	.st3{display:none;opacity:0.24;fill:url(#SVGID_2_);}
	.st4{display:none;fill:#666666;}
	.st5{opacity:0.51;fill:#FFFFFF;}
	.st6{fill:#7BBD8F;}
	.st7{fill:#FFBA4D;}
	.st8{fill:#353275;}
	.st9{opacity:0.22;fill:url(#SVGID_3_);}
	.st10{opacity:0.12;fill:url(#SVGID_4_);}
	.st11{display:none;fill:#FFBA4D;}
	.st12{display:none;opacity:0.12;fill:url(#SVGID_5_);}
	.st13{opacity:0.22;fill:url(#SVGID_6_);}
	.st14{display:none;opacity:0.68;fill:url(#SVGID_7_);}
	.st15{opacity:0.22;fill:url(#SVGID_8_);}
	.st16{opacity:0.22;fill:url(#SVGID_9_);}
	.st17{opacity:0.22;fill:url(#SVGID_10_);}
	.st18{opacity:0.22;fill:url(#SVGID_11_);}
	.st19{opacity:0.22;fill:url(#SVGID_12_);}
	.st20{opacity:0.22;fill:url(#SVGID_13_);}
	.st21{opacity:0.15;fill:url(#SVGID_14_);}
	.st22{opacity:0.22;fill:url(#SVGID_15_);}
	.st23{fill:none;stroke:#FFBA4D;stroke-miterlimit:10;}
	.st24{display:none;}
	.st25{display:inline;}
	.st26{fill:url(#SVGID_16_);}
	.st27{fill:url(#SVGID_17_);}
</style>
<path class="st0" d="M178.23-2.3h13.47c0,0,13.28,0,13.37,18.89c0.1,18.89,0.1,18.89,0.1,18.89H191.7c0,0-13.47,0-13.47-18.89
	S178.23-2.3,178.23-2.3z"/>
<path class="st1" d="M190.43,203.57l-0.17-38.12h-37.95l-0.17-37.78h72.82c1.89,0,3.42,2.3,3.42,5.14v109.22c0,0-1.53,0-3.42,0
	h-69.23c-1.89,0-3.42,0-3.42,0l-0.17-38.46"/>
<path class="st1" d="M147.17,279.64h-28c-2.84,0-5.14-2.3-5.14-5.14V170.6c0-2.84,2.3-5.14,5.14-5.14h28c2.84,0,5.14,2.3,5.14,5.14
	V274.5C152.31,277.34,150.01,279.64,147.17,279.64z"/>
<polygon class="st1" points="152.31,279.64 127.81,279.64 127.81,203.74 114.03,203.74 114.03,165.45 152.31,165.45 "/>
<linearGradient id="SVGID_1_" gradientUnits="userSpaceOnUse" x1="213.7758" y1="283.2622" x2="127.3067" y2="159.7673" gradientTransform="matrix(-1 0 0 -1 342.4123 407.1447)">
	<stop  offset="0.3567" style="stop-color:#FFFFFF"/>
	<stop  offset="0.4109" style="stop-color:#FBFBFB"/>
	<stop  offset="0.4649" style="stop-color:#EFEFEF"/>
	<stop  offset="0.5187" style="stop-color:#DBDBDB"/>
	<stop  offset="0.5725" style="stop-color:#BFBFBF"/>
	<stop  offset="0.6263" style="stop-color:#9B9B9B"/>
	<stop  offset="0.6802" style="stop-color:#6F6F6F"/>
	<stop  offset="0.7331" style="stop-color:#3B3B3B"/>
	<stop  offset="0.7859" style="stop-color:#000000"/>
</linearGradient>
<path class="st2" d="M119.17,127.5h104.07c2.84,0,5.14,2.3,5.14,5.14v104.07c0,2.84-2.3,5.14-5.14,5.14H119.17
	c-2.84,0-5.14-2.3-5.14-5.14V132.64C114.03,129.8,116.33,127.5,119.17,127.5z"/>
<linearGradient id="SVGID_2_" gradientUnits="userSpaceOnUse" x1="211.4376" y1="260.9817" x2="134.8983" y2="151.6684" gradientTransform="matrix(-1 0 0 -1 342.4123 407.1447)">
	<stop  offset="0.3567" style="stop-color:#FFFFFF"/>
	<stop  offset="0.4109" style="stop-color:#FBFBFB"/>
	<stop  offset="0.4649" style="stop-color:#EFEFEF"/>
	<stop  offset="0.5187" style="stop-color:#DBDBDB"/>
	<stop  offset="0.5725" style="stop-color:#BFBFBF"/>
	<stop  offset="0.6263" style="stop-color:#9B9B9B"/>
	<stop  offset="0.6802" style="stop-color:#6F6F6F"/>
	<stop  offset="0.7331" style="stop-color:#3B3B3B"/>
	<stop  offset="0.7859" style="stop-color:#000000"/>
</linearGradient>
<path class="st3" d="M152.31,241.93v37.78h-33.14c-2.78-0.07-5.14-2.3-5.14-5.14l0-109.12h38.12v-37.78l71.1-0.1
	c2.84,0,5.14,2.3,5.14,5.14v104.04v5.28"/>
<rect x="232.36" y="187.5" class="st4" width="24.57" height="28.58"/>
<rect x="114.03" y="165.45" class="st5" width="38.12" height="38.12"/>
<rect x="152.15" y="127.33" class="st5" width="38.12" height="38.12"/>
<rect x="77.35" y="134.99" class="st6" width="27.21" height="27.21"/>
<rect x="119.21" y="82.37" class="st7" width="30.27" height="30.27"/>
<rect x="54.16" y="71.72" class="st8" width="17.47" height="17.47"/>
<linearGradient id="SVGID_3_" gradientUnits="userSpaceOnUse" x1="54.5495" y1="71.9878" x2="72.6907" y2="90.3882">
	<stop  offset="0" style="stop-color:#FFFFFF"/>
	<stop  offset="0.1913" style="stop-color:#D1D1D1"/>
	<stop  offset="0.6222" style="stop-color:#5E5E5E"/>
	<stop  offset="0.9579" style="stop-color:#000000"/>
</linearGradient>
<rect x="54.16" y="71.72" class="st9" width="17.47" height="17.47"/>
<linearGradient id="SVGID_4_" gradientUnits="userSpaceOnUse" x1="119.879" y1="82.8328" x2="167.1971" y2="130.827" gradientTransform="matrix(-1 0 0 -1 268.6952 195.0163)">
	<stop  offset="0" style="stop-color:#FFFFFF"/>
	<stop  offset="0.1536" style="stop-color:#CBCBCB"/>
	<stop  offset="0.485" style="stop-color:#5F5F5F"/>
	<stop  offset="0.7145" style="stop-color:#1B1B1B"/>
	<stop  offset="0.8213" style="stop-color:#000000"/>
</linearGradient>
<polygon class="st10" points="119.21,82.37 149.48,82.37 149.48,112.64 119.21,112.64 "/>
<rect x="238.67" y="326.79" class="st11" width="11.39" height="11.39"/>
<linearGradient id="SVGID_5_" gradientUnits="userSpaceOnUse" x1="18.8872" y1="-142.9884" x2="36.6953" y2="-124.9258" gradientTransform="matrix(-1 0 0 -1 268.6952 195.0163)">
	<stop  offset="0" style="stop-color:#FFFFFF"/>
	<stop  offset="0.1536" style="stop-color:#CBCBCB"/>
	<stop  offset="0.485" style="stop-color:#5F5F5F"/>
	<stop  offset="0.7145" style="stop-color:#1B1B1B"/>
	<stop  offset="0.8213" style="stop-color:#000000"/>
</linearGradient>
<polygon class="st12" points="238.67,326.79 250.06,326.79 250.06,338.18 238.67,338.18 "/>
<linearGradient id="SVGID_6_" gradientUnits="userSpaceOnUse" x1="79.3503" y1="30.0583" x2="138.6713" y2="90.2269" gradientTransform="matrix(1 0 0 1 73.7171 98.1038)">
	<stop  offset="0" style="stop-color:#FFFFFF"/>
	<stop  offset="0.1263" style="stop-color:#E6E6E6"/>
	<stop  offset="0.3961" style="stop-color:#A4A4A4"/>
	<stop  offset="0.7845" style="stop-color:#3C3C3C"/>
	<stop  offset="1" style="stop-color:#000000"/>
</linearGradient>
<rect x="152.15" y="127.67" class="st13" width="38.12" height="37.78"/>
<linearGradient id="SVGID_7_" gradientUnits="userSpaceOnUse" x1="78.6117" y1="146.8066" x2="165.8121" y2="235.2529" gradientTransform="matrix(1 0 0 1 73.7171 98.1038)">
	<stop  offset="0.2119" style="stop-color:#FFFFFF"/>
	<stop  offset="0.2934" style="stop-color:#FFFEFC"/>
	<stop  offset="0.3652" style="stop-color:#FFF9F1"/>
	<stop  offset="0.4334" style="stop-color:#FFF2DF"/>
	<stop  offset="0.4994" style="stop-color:#FFE9C5"/>
	<stop  offset="0.5638" style="stop-color:#FFDCA4"/>
	<stop  offset="0.6262" style="stop-color:#FFCD7D"/>
	<stop  offset="0.6874" style="stop-color:#FFBA4E"/>
	<stop  offset="0.6886" style="stop-color:#FFBA4D"/>
</linearGradient>
<rect x="152.15" y="241.69" class="st14" width="88.26" height="95.58"/>
<linearGradient id="SVGID_8_" gradientUnits="userSpaceOnUse" x1="116.7091" y1="30.8091" x2="176.0301" y2="90.9778" gradientTransform="matrix(1 0 0 1 73.7171 98.1038)">
	<stop  offset="0" style="stop-color:#FFFFFF"/>
	<stop  offset="0.1263" style="stop-color:#E6E6E6"/>
	<stop  offset="0.3961" style="stop-color:#A4A4A4"/>
	<stop  offset="0.7845" style="stop-color:#3C3C3C"/>
	<stop  offset="1" style="stop-color:#000000"/>
</linearGradient>
<polygon class="st15" points="228.39,165.45 190.27,165.45 190.27,127.67 223.24,127.67 225.05,127.98 226.65,128.95 227.66,130.2 
	228.14,131.23 228.39,132.81 "/>
<linearGradient id="SVGID_9_" gradientUnits="userSpaceOnUse" x1="117.4707" y1="68.0104" x2="176.7917" y2="128.1791" gradientTransform="matrix(0 1 -1 0 295.7349 48.9028)">
	<stop  offset="0" style="stop-color:#FFFFFF"/>
	<stop  offset="0.1263" style="stop-color:#E6E6E6"/>
	<stop  offset="0.3961" style="stop-color:#A4A4A4"/>
	<stop  offset="0.7845" style="stop-color:#3C3C3C"/>
	<stop  offset="1" style="stop-color:#000000"/>
</linearGradient>
<polygon class="st16" points="190.43,203.57 190.43,165.45 228.22,165.45 228.22,203.57 "/>
<linearGradient id="SVGID_10_" gradientUnits="userSpaceOnUse" x1="155.7187" y1="68.3898" x2="215.1721" y2="128.6927" gradientTransform="matrix(0 -1 1 0 122.5818 396.6987)">
	<stop  offset="0" style="stop-color:#FFFFFF"/>
	<stop  offset="0.1263" style="stop-color:#E6E6E6"/>
	<stop  offset="0.3961" style="stop-color:#A4A4A4"/>
	<stop  offset="0.7845" style="stop-color:#3C3C3C"/>
	<stop  offset="1" style="stop-color:#000000"/>
</linearGradient>
<polygon class="st17" points="228.39,203.74 228.39,241.86 190.43,241.86 190.43,203.74 "/>
<linearGradient id="SVGID_11_" gradientUnits="userSpaceOnUse" x1="155.7187" y1="30.1013" x2="215.1721" y2="90.4042" gradientTransform="matrix(0 1 -1 0 219.8306 48.9028)">
	<stop  offset="0" style="stop-color:#FFFFFF"/>
	<stop  offset="0.1263" style="stop-color:#E6E6E6"/>
	<stop  offset="0.3961" style="stop-color:#A4A4A4"/>
	<stop  offset="0.7845" style="stop-color:#3C3C3C"/>
	<stop  offset="1" style="stop-color:#000000"/>
</linearGradient>
<polygon class="st18" points="152.31,241.86 152.31,203.74 190.27,203.74 190.27,241.86 "/>
<linearGradient id="SVGID_12_" gradientUnits="userSpaceOnUse" x1="193.8795" y1="30.2265" x2="253.2006" y2="90.3951" gradientTransform="matrix(-1 0 0 -1 345.1041 271.4251)">
	<stop  offset="0" style="stop-color:#FFFFFF"/>
	<stop  offset="0.1263" style="stop-color:#E6E6E6"/>
	<stop  offset="0.3961" style="stop-color:#A4A4A4"/>
	<stop  offset="0.7845" style="stop-color:#3C3C3C"/>
	<stop  offset="1" style="stop-color:#000000"/>
</linearGradient>
<polygon class="st19" points="114.03,203.91 152.15,203.91 152.15,241.69 114.03,241.69 "/>
<linearGradient id="SVGID_13_" gradientUnits="userSpaceOnUse" x1="194.0271" y1="-7.8712" x2="253.5461" y2="52.4983" gradientTransform="matrix(0 -1 1 0 122.5818 472.9393)">
	<stop  offset="0" style="stop-color:#FFFFFF"/>
	<stop  offset="0.1263" style="stop-color:#E6E6E6"/>
	<stop  offset="0.3961" style="stop-color:#A4A4A4"/>
	<stop  offset="0.7845" style="stop-color:#3C3C3C"/>
	<stop  offset="1" style="stop-color:#000000"/>
</linearGradient>
<polygon class="st20" points="152.31,241.78 152.31,279.64 114.03,279.64 114.03,241.78 "/>
<linearGradient id="SVGID_14_" gradientUnits="userSpaceOnUse" x1="164.7337" y1="33.2297" x2="207.2616" y2="76.3653" gradientTransform="matrix(0 1 -1 0 137.3771 -29.1407)">
	<stop  offset="0" style="stop-color:#FFFFFF"/>
	<stop  offset="0.1536" style="stop-color:#CBCBCB"/>
	<stop  offset="0.485" style="stop-color:#5F5F5F"/>
	<stop  offset="0.7145" style="stop-color:#1B1B1B"/>
	<stop  offset="0.8213" style="stop-color:#000000"/>
</linearGradient>
<polygon class="st21" points="77.35,162.2 77.35,134.99 104.56,134.99 104.56,162.2 "/>
<linearGradient id="SVGID_15_" gradientUnits="userSpaceOnUse" x1="195.4369" y1="-13.2399" x2="255.2855" y2="47.4639" gradientTransform="matrix(1 0 0 1 -80.5671 179.2747)">
	<stop  offset="0" style="stop-color:#FFFFFF"/>
	<stop  offset="0.0736" style="stop-color:#F8F8F8"/>
	<stop  offset="0.1778" style="stop-color:#E6E6E6"/>
	<stop  offset="0.3004" style="stop-color:#C7C7C7"/>
	<stop  offset="0.4369" style="stop-color:#9D9D9D"/>
	<stop  offset="0.5849" style="stop-color:#666666"/>
	<stop  offset="0.7402" style="stop-color:#252525"/>
	<stop  offset="0.8213" style="stop-color:#000000"/>
</linearGradient>
<rect x="114.03" y="165.45" class="st22" width="38.29" height="38.29"/>
<line class="st23" x1="249.55" y1="295" x2="249.62" y2="338.28"/>
<line class="st23" x1="206" y1="338.18" x2="250.06" y2="338.18"/>
<g class="st24">
	<g class="st25">
		<g>
			<path class="st8" d="M170.18,251.99v28h-2.16v-28H170.18z"/>
			<path class="st8" d="M204.02,279.98l-8.44-12.6h-0.04l-8.36,12.6h-2.52l9.56-14.24l-9.16-13.76h2.52l8,11.96h0.04l8.16-11.96
				h2.52l-9.44,13.6l9.72,14.4H204.02z"/>
			<path class="st8" d="M223.22,251.99v28h-2.16v-28H223.22z"/>
		</g>
	</g>
</g>
<g>
	<g>
		<g>
			<path class="st1" d="M168.86,253.73h3.34v26.25h-3.34V253.73z"/>
			<path class="st1" d="M192.04,266.42l-7.14-12.69h3.68l3.58,6.72c0.66,1.2,1.22,2.29,2.04,3.81h0.16
				c0.71-1.53,1.22-2.61,1.85-3.81l3.49-6.72h3.52l-7.14,12.86l7.65,13.39h-3.69l-3.85-7.07c-0.69-1.31-1.4-2.62-2.24-4.22h-0.16
				c-0.76,1.6-1.42,2.91-2.08,4.22l-3.79,7.07h-3.52L192.04,266.42z"/>
			<path class="st1" d="M215.9,253.73h3.34v26.25h-3.34V253.73z"/>
		</g>
	</g>
</g>
<g class="st24">
	<g class="st25">
		<g>
			<path class="st8" d="M168.58,302.99h2.16v26h15.04l-0.4,2h-16.8V302.99z"/>
			<path class="st8" d="M202.89,302.99v28h-2.16v-28H202.89z"/>
			<path class="st8" d="M221.13,302.99h9.76c5.36,0,8.24,2.84,8.24,6.88c0,3.32-2,5.48-4.32,6.12c2,0.56,5.32,2.52,5.32,6.92
				c0,5.6-4.2,8.08-9.08,8.08h-9.92V302.99z M230.17,315.02c4.84,0,6.68-1.8,6.68-5.04c0-2.76-1.92-5-5.84-5h-7.76v10.04H230.17z
				 M223.25,328.98h7.88c3.68,0,6.76-1.84,6.76-5.96c0-3.56-2.28-6-7.92-6h-6.72V328.98z"/>
		</g>
	</g>
</g>
<g>
	<g>
		<g>
			<path class="st1" d="M168.9,297.58h3.34V321h11.46v2.83h-14.8V297.58z"/>
			<path class="st1" d="M196.34,297.58h3.34v26.25h-3.34V297.58z"/>
			<path class="st1" d="M214.86,297.58h7.79c5.34,0,9.03,1.81,9.03,6.43c0,2.59-1.38,4.9-3.83,5.7v0.16
				c3.14,0.62,5.34,2.69,5.34,6.28c0,5.16-4.08,7.68-9.93,7.68h-8.39V297.58z M222.08,308.75c4.46,0,6.31-1.65,6.31-4.31
				c0-3.07-2.1-4.21-6.16-4.21h-4.04v8.52H222.08z M222.77,321.18c4.49,0,7.13-1.62,7.13-5.15c0-3.23-2.54-4.71-7.13-4.71h-4.57
				v9.87H222.77z"/>
		</g>
	</g>
</g>
<linearGradient id="SVGID_16_" gradientUnits="userSpaceOnUse" x1="151.9787" y1="160.1702" x2="151.9787" y2="160.1702">
	<stop  offset="0.3567" style="stop-color:#FFFFFF"/>
	<stop  offset="0.4109" style="stop-color:#FBFBFB"/>
	<stop  offset="0.4649" style="stop-color:#EFEFEF"/>
	<stop  offset="0.5187" style="stop-color:#DBDBDB"/>
	<stop  offset="0.5725" style="stop-color:#BFBFBF"/>
	<stop  offset="0.6263" style="stop-color:#9B9B9B"/>
	<stop  offset="0.6802" style="stop-color:#6F6F6F"/>
	<stop  offset="0.7331" style="stop-color:#3B3B3B"/>
	<stop  offset="0.7859" style="stop-color:#000000"/>
</linearGradient>
<path class="st26" d="M151.98,160.17"/>
<linearGradient id="SVGID_17_" gradientUnits="userSpaceOnUse" x1="156.3192" y1="159.2766" x2="156.3192" y2="159.2766">
	<stop  offset="0.3567" style="stop-color:#FFFFFF"/>
	<stop  offset="0.4109" style="stop-color:#FBFBFB"/>
	<stop  offset="0.4649" style="stop-color:#EFEFEF"/>
	<stop  offset="0.5187" style="stop-color:#DBDBDB"/>
	<stop  offset="0.5725" style="stop-color:#BFBFBF"/>
	<stop  offset="0.6263" style="stop-color:#9B9B9B"/>
	<stop  offset="0.6802" style="stop-color:#6F6F6F"/>
	<stop  offset="0.7331" style="stop-color:#3B3B3B"/>
	<stop  offset="0.7859" style="stop-color:#000000"/>
</linearGradient>
<path class="st27" d="M156.32,159.28"/>
</svg>
