<?xml version="1.0" encoding="UTF-8"?>
<svg width="287px" height="96px" viewBox="0 0 287 96" version="1.1" xmlns="http://www.w3.org/2000/svg" xmlns:xlink="http://www.w3.org/1999/xlink">
  <g id="gaelo-logo-white" fill="#FFFFFF">
      <path d="M72.1892857,58.361194 L72.1892857,68.0149254 L46.8571429,68.0149254 C41.4392857,68.0149254 37.1928571,63.6268657 37.1928571,58.361194 L72.1892857,58.361194 Z" id="bed" fill-rule="nonzero"></path>
      <g id="atoms" fill-rule="nonzero">
          <path d="M44.6607143,24.1343284 C40.8535714,30.1313433 36.7535714,37.2985075 32.3607143,45.6358209 C28.8464286,52.2179104 25.7714286,58.6537313 22.9892857,64.6507463 C22.8428571,64.2119403 22.6964286,63.7731343 22.55,63.1880597 C22.55,63.041791 22.55,62.8955224 22.4035714,62.7492537 C25.0392857,57.0447761 27.9678571,51.0477612 31.1892857,44.9044776 C34.5571429,38.3223881 38.8035714,30.8626866 43.1964286,23.9880597 C43.6357143,23.9880597 43.9285714,23.9880597 44.3678571,23.9880597 C44.3678571,24.1343284 44.5142857,24.1343284 44.6607143,24.1343284 Z" id="Path"></path>
          <path d="M23.4285714,87.4686567 C17.5714286,95.2208955 14.9357143,96.5373134 13.6178571,96.5373134 C13.1785714,96.5373134 12.8857143,96.3910448 12.7392857,96.2447761 C12.0071429,95.8059701 9.81071429,94.6358209 14.7892857,80.5940299 C15.0821429,80.8865672 15.375,81.3253731 15.8142857,81.7641791 C12.4464286,91.4179104 12.5928571,94.7820896 13.4714286,95.0746269 C14.2035714,95.3671642 16.8392857,94.0507463 22.2571429,86.7373134 C22.4035714,86.8835821 22.6964286,87.0298507 22.8428571,87.1761194 C23.1357143,87.1761194 23.2821429,87.3223881 23.4285714,87.4686567 Z" id="Path"></path>
          <path d="M6.44285714,59.0925373 C6.00357143,58.361194 5.41785714,57.7761194 4.97857143,57.0447761 C1.90357143,52.6567164 -1.17142857,47.0985075 0.878571429,44.758209 C1.90357143,43.7343284 3.66071429,43.5880597 6.15,44.4656716 C6.15,44.9044776 6.00357143,45.3432836 6.00357143,45.7820896 C3.075,44.758209 2.05,45.3432836 1.75714286,45.6358209 C0.878571429,46.6597015 1.46428571,49.8776119 5.85714286,56.1671642 C5.85714286,56.1671642 6.00357143,56.3134328 6.00357143,56.3134328 C6.15,57.4835821 6.29642857,58.2149254 6.44285714,59.0925373 Z" id="Path"></path>
          <path d="M55.6428571,96.0985075 C55.0571429,96.6835821 54.325,96.9761194 53.3,96.9761194 C50.5178571,96.9761194 46.4178571,94.9283582 43.1964286,92.880597 C42.6107143,92.5880597 42.025,92.1492537 41.4392857,91.7104478 C42.025,91.7104478 42.6107143,91.7104478 43.3428571,91.7104478 L43.6357143,91.7104478 C43.7821429,91.7104478 43.9285714,91.7104478 44.075,91.7104478 C50.6642857,95.6597015 53.8857143,96.0985075 54.7642857,95.0746269 C55.35,94.3432836 55.2035714,92.880597 54.325,90.8328358 C54.7642857,90.8328358 55.2035714,90.6865672 55.6428571,90.5402985 C56.6678571,93.1731343 56.6678571,95.0746269 55.6428571,96.0985075 Z" id="Path"></path>
          <path d="M63.2571429,1.17014925 C62.0857143,0.585074627 60.3285714,1.46268657 58.1321429,3.65671642 C57.6928571,3.51044776 57.2535714,3.3641791 56.8142857,3.3641791 C55.2035714,3.3641791 53.8857143,4.68059701 53.8857143,6.28955224 C53.8857143,6.87462687 54.0321429,7.45970149 54.325,7.89850746 C53.5928571,8.92238806 52.7142857,9.94626866 51.9821429,10.9701493 C52.5678571,10.9701493 53.0071429,11.1164179 53.5928571,11.1164179 C54.1785714,10.238806 54.9107143,9.50746269 55.4964286,8.7761194 C55.9357143,9.06865672 56.375,9.06865672 56.8142857,9.06865672 C58.425,9.06865672 59.7428571,7.75223881 59.7428571,6.14328358 C59.7428571,5.55820896 59.5964286,4.97313433 59.1571429,4.53432836 C60.9142857,2.77910448 62.0857143,2.04776119 62.6714286,2.34029851 C63.4035714,2.63283582 63.55,5.26567164 61.3535714,12.5791045 C61.7928571,12.7253731 62.2321429,12.8716418 62.6714286,12.8716418 C65.7464286,2.48656716 63.8428571,1.60895522 63.2571429,1.17014925 Z" id="Path"></path>
      </g>
      <g id="G" transform="translate(5.857143, 10.238806)" fill-rule="nonzero">
          <path d="M9.51785714,69.038806 C10.25,66.8447761 11.275,64.5044776 12.3,62.0179104 C11.4214286,61.1402985 10.5428571,60.2626866 9.66428571,59.3850746 C9.225,59.6776119 8.78571429,59.8238806 8.2,59.8238806 C6.58928571,59.8238806 5.27142857,58.5074627 5.27142857,56.8985075 C5.27142857,56.3134328 5.41785714,55.7283582 5.85714286,55.1432836 C3.95357143,52.9492537 2.05,50.7552239 0.585714286,48.7074627 C0.439285714,47.8298507 0.439285714,46.9522388 0.292857143,46.0746269 C2.05,48.7074627 4.39285714,51.4865672 6.88214286,54.2656716 C7.32142857,54.119403 7.76071429,53.9731343 8.2,53.9731343 C9.81071429,53.9731343 11.1285714,55.2895522 11.1285714,56.8985075 C11.1285714,57.4835821 10.9821429,57.9223881 10.6892857,58.361194 C11.4214286,59.0925373 12.1535714,59.8238806 12.8857143,60.7014925 C14.0571429,58.0686567 15.2285714,55.2895522 16.5464286,52.5104478 C16.5464286,52.6567164 16.5464286,52.8029851 16.6928571,52.9492537 C15.6678571,49.438806 15.2285714,45.3432836 15.2285714,40.6626866 C15.2285714,35.9820896 15.8142857,31.7402985 16.6928571,28.3761194 C17.7178571,25.0119403 18.8892857,22.3791045 20.3535714,20.6238806 C21.6714286,18.8686567 23.4285714,17.4059701 25.4785714,16.3820896 C27.675,15.2119403 29.725,14.6268657 31.6285714,14.3343284 C33.6785714,14.041791 36.0214286,13.8955224 38.6571429,13.8955224 C38.2178571,13.8955224 37.925,13.8955224 37.4857143,13.8955224 C40.5607143,8.92238806 43.6357143,4.3880597 46.4178571,0.585074627 C47.0035714,0.585074627 47.4428571,0.731343284 48.0285714,0.731343284 C45.3928571,4.09552239 42.4642857,8.48358209 39.0964286,13.8955224 C46.5642857,13.8955224 53.7392857,15.358209 60.7678571,18.2835821 L63.8428571,19.6 L63.8428571,5.11940299 L62.3785714,4.53432836 C54.325,1.60895522 45.9785714,0 37.3392857,0 C33.6785714,0 30.1642857,0.292537313 27.0892857,0.87761194 C23.8678571,1.46268657 20.5,2.77910448 17.1321429,4.53432836 C13.7642857,6.4358209 10.8357143,8.92238806 8.34642857,11.8477612 C5.85714286,14.7731343 3.95357143,18.8686567 2.34285714,23.841791 C0.878571429,28.8149254 0,34.519403 0,40.8089552 C0,47.2447761 0.732142857,52.8029851 2.19642857,57.7761194 C3.66071429,62.7492537 5.71071429,66.6985075 8.2,69.7701493 C8.63928571,70.3552239 9.225,70.9402985 9.81071429,71.5253731 C9.51785714,71.2328358 9.225,70.9402985 8.93214286,70.5014925 C9.225,69.9164179 9.37142857,69.6238806 9.51785714,69.038806 Z" id="Path"></path>
          <path d="M16.6928571,66.4059701 C15.5214286,65.2358209 14.35,64.2119403 13.325,63.1880597 C12.4464286,65.3820896 11.5678571,67.5761194 10.8357143,69.6238806 C10.5428571,70.3552239 10.3964286,70.9402985 10.1035714,71.5253731 C12.1535714,73.719403 14.4964286,75.4746269 17.1321429,76.9373134 C20.5,78.838806 23.8678571,80.0089552 27.0892857,80.7402985 C30.3107143,81.3253731 33.6785714,81.6179104 37.4857143,81.6179104 C36.9,81.6179104 36.3142857,81.6179104 35.5821429,81.6179104 C29.8714286,77.8149254 23.1357143,72.5492537 16.6928571,66.4059701 Z" id="Path"></path>
          <path d="M51.5428571,60.2626866 L51.5428571,65.9671642 C47.15,67.1373134 42.7571429,67.5761194 38.5107143,67.5761194 C35.875,67.5761194 33.5321429,67.4298507 31.4821429,67.1373134 C29.5785714,66.8447761 27.3821429,66.1134328 25.1857143,65.0895522 C23.1357143,64.0656716 21.3785714,62.6029851 19.9142857,60.8477612 C18.45,59.0925373 17.2785714,56.4597015 16.2535714,53.0955224 C16.4,53.5343284 16.5464286,54.119403 16.6928571,54.558209 C15.5214286,57.0447761 14.4964286,59.5313433 13.4714286,61.8716418 C14.6428571,63.041791 15.9607143,64.358209 17.2785714,65.5283582 C24.4535714,72.2567164 31.775,77.961194 37.7785714,81.6179104 C37.7785714,81.6179104 37.7785714,81.6179104 37.925,81.6179104 C37.7785714,81.6179104 37.6321429,81.6179104 37.4857143,81.6179104 C47.0035714,81.6179104 56.2285714,79.5701493 64.8678571,75.4746269 L66.1857143,74.8895522 L66.1857143,60.4089552 L51.5428571,60.4089552 L51.5428571,60.2626866 Z" id="Path"></path>
      </g>
      <path d="M101.475,29.2537313 C95.1785714,29.2537313 89.175,30.2776119 83.6107143,32.4716418 L82.1464286,33.0567164 L82.1464286,46.5134328 L85.075,45.4895522 C90.3464286,43.7343284 95.325,42.8567164 100.010714,42.8567164 C104.842857,42.8567164 108.210714,43.7343284 110.260714,45.3432836 C111.725,46.6597015 112.75,48.7074627 113.189286,51.3402985 C110.7,51.0477612 108.064286,50.9014925 105.428571,50.9014925 C96.7892857,50.9014925 89.7607143,52.6567164 84.6357143,56.0208955 C79.2178571,59.5313433 76.5821429,64.6507463 76.5821429,70.9402985 C76.5821429,72.2567164 76.7285714,73.719403 76.875,75.0358209 C77.1678571,76.4985075 77.7535714,78.2537313 78.7785714,80.4477612 C79.8035714,82.641791 81.2678571,84.5432836 83.025,86.1522388 C84.7821429,87.761194 87.4178571,89.0776119 90.9321429,90.2477612 C94.3,91.4179104 98.2535714,92.0029851 102.646429,92.0029851 C106.892857,92.0029851 110.846429,91.4179104 114.067857,90.3940299 C117.435714,89.2238806 120.071429,87.9074627 121.828571,86.2985075 C123.585714,84.6895522 125.05,82.7880597 126.075,80.7402985 C127.1,78.6925373 127.685714,76.9373134 127.978571,75.6208955 C128.271429,74.3044776 128.417857,72.9880597 128.417857,71.5253731 L128.417857,54.9970149 C128.417857,46.8059701 126.075,40.3701493 121.242857,35.8358209 C116.557143,31.4477612 109.821429,29.2537313 101.475,29.2537313 Z M92.5428571,67.4298507 C93.5678571,66.4059701 94.7392857,65.6746269 96.35,65.0895522 C98.1071429,64.5044776 99.8642857,64.0656716 101.475,63.919403 C102.939286,63.6268657 104.55,63.480597 105.867857,63.480597 C108.796429,63.480597 111.285714,63.6268657 113.482143,63.919403 L113.482143,71.0865672 C113.482143,74.3044776 112.310714,78.1074627 102.939286,78.1074627 L102.792857,78.1074627 C91.3714286,78.1074627 91.3714286,72.6955224 91.3714286,70.7940299 C91.225,69.4776119 91.6642857,68.4537313 92.5428571,67.4298507 Z" id="A" fill-rule="nonzero"></path>
      <path d="M158.875,29.2537313 C136.471429,29.2537313 131.785714,46.6597015 131.785714,61.1402985 C131.785714,66.9910448 132.664286,72.1104478 134.275,76.2059701 C135.885714,80.5940299 138.375,83.8119403 141.303571,86.0059701 C144.085714,88.0537313 147.160714,89.5164179 150.089286,90.3940299 C153.017857,91.2716418 156.385714,91.7104478 159.9,91.7104478 L160.192857,91.7104478 C167.807143,91.7104478 174.689286,90.3940299 180.839286,87.9074627 L182.157143,87.3223881 L182.157143,72.841791 L178.935714,74.5970149 C173.957143,77.2298507 167.660714,78.5462687 160.485714,78.5462687 C153.017857,78.5462687 148.771429,75.3283582 147.160714,68.4537313 L185.525,68.4537313 L185.671429,66.4059701 C185.964286,63.919403 185.964286,61.1402985 185.964286,58.5074627 C185.964286,49.7313433 183.475,42.5641791 178.642857,37.2985075 C173.810714,32.0328358 167.221429,29.2537313 158.875,29.2537313 Z M170.882143,54.8507463 L146.867857,54.8507463 C147.453571,50.6089552 148.478571,47.5373134 150.089286,45.7820896 C151.846429,43.880597 154.921429,42.8567164 158.875,42.8567164 C161.071429,42.8567164 163.121429,43.2955224 164.732143,44.1731343 C166.342857,45.0507463 167.514286,46.0746269 168.246429,47.5373134 C169.125,49.1462687 169.857143,50.7552239 170.296429,52.2179104 C170.589286,53.241791 170.735714,53.9731343 170.882143,54.8507463 Z" id="E" fill-rule="nonzero"></path>
      <rect id="L" fill-rule="nonzero" x="189.771429" y="8.62985075" width="14.7892857" height="82.2029851"></rect>
      <g id="patient_1_" transform="translate(36.607143, 43.880597)" fill-rule="nonzero">
          <path d="M11.4214286,6.28955224 C11.4214286,9.36119403 8.93214286,11.8477612 6.00357143,11.8477612 C5.85714286,11.8477612 5.71071429,11.8477612 5.56428571,11.8477612 C2.78214286,11.7014925 0.439285714,9.36119403 0.439285714,6.4358209 C0.439285714,3.51044776 2.63571429,1.17014925 5.56428571,1.0238806 C5.71071429,1.0238806 5.85714286,1.0238806 6.00357143,1.0238806 C8.93214286,0.87761194 11.4214286,3.3641791 11.4214286,6.28955224 Z" id="Path"></path>
          <path d="M35.5821429,0.87761194 L35.5821429,11.8477612 L20.5,11.8477612 C17.425,11.8477612 15.0821429,9.36119403 15.0821429,6.4358209 C15.0821429,3.3641791 17.5714286,1.0238806 20.5,1.0238806 L35.5821429,1.0238806 L35.5821429,0.87761194 Z" id="Path"></path>
      </g>
      <path d="M284.657143,34.080597 C283.192857,29.1074627 281.142857,25.158209 278.653571,22.2328358 C276.164286,19.3074627 273.235714,16.8208955 269.867857,14.919403 C266.5,13.0179104 263.132143,11.8477612 259.910714,11.1164179 C256.689286,10.5313433 253.321429,10.238806 249.660714,10.238806 C246.146429,10.238806 242.632143,10.5313433 239.410714,11.1164179 C236.189286,11.7014925 232.821429,13.0179104 229.307143,14.919403 C225.792857,16.8208955 222.864286,19.3074627 220.375,22.2328358 C217.885714,25.158209 215.982143,29.2537313 214.371429,34.080597 C212.907143,38.9074627 212.175,44.6119403 212.175,51.0477612 C212.175,57.4835821 212.907143,63.041791 214.371429,68.0149254 C215.835714,72.9880597 217.885714,76.9373134 220.375,79.8626866 C222.864286,82.7880597 225.792857,85.2746269 229.307143,87.1761194 C232.675,89.0776119 236.042857,90.2477612 239.410714,90.9791045 C242.632143,91.5641791 246,91.8567164 249.660714,91.8567164 C253.175,91.8567164 256.689286,91.5641791 259.910714,90.9791045 C263.132143,90.3940299 266.5,89.0776119 269.867857,87.1761194 C273.235714,85.2746269 276.310714,82.7880597 278.653571,79.8626866 C281.142857,76.9373134 283.046429,72.841791 284.657143,68.0149254 C286.121429,63.1880597 286.853571,57.4835821 286.853571,51.0477612 C287,44.6119403 286.267857,38.9074627 284.657143,34.080597 Z M249.660714,23.9880597 C252.15,23.9880597 254.346429,24.1343284 256.25,24.4268657 C258.007143,24.719403 260.057143,25.4507463 262.107143,26.4746269 C264.157143,27.4985075 265.767857,28.961194 267.085714,30.7164179 C268.403571,32.4716418 269.575,35.1044776 270.453571,38.4686567 C271.478571,41.9791045 271.917857,46.0746269 271.917857,50.9014925 C271.917857,55.5820896 271.478571,59.8238806 270.453571,63.1880597 C269.575,66.5522388 268.403571,69.1850746 267.085714,70.9402985 C265.767857,72.6955224 264.157143,74.158209 262.107143,75.1820896 C260.057143,76.3522388 258.007143,76.9373134 256.25,77.2298507 C254.346429,77.5223881 252.15,77.6686567 249.660714,77.6686567 C247.171429,77.6686567 244.975,77.5223881 243.071429,77.2298507 C241.314286,76.9373134 239.264286,76.2059701 237.214286,75.1820896 C235.164286,74.158209 233.553571,72.6955224 232.235714,70.9402985 C230.917857,69.1850746 229.746429,66.5522388 228.721429,63.1880597 C227.696429,59.6776119 227.257143,55.5820896 227.257143,50.9014925 C227.257143,46.2208955 227.696429,41.9791045 228.721429,38.6149254 C229.746429,35.2507463 230.771429,32.6179104 232.235714,30.8626866 C233.553571,29.1074627 235.164286,27.6447761 237.214286,26.6208955 C239.264286,25.4507463 241.314286,24.8656716 243.071429,24.5731343 C244.975,24.1343284 247.171429,23.9880597 249.660714,23.9880597 Z" id="O_1_" fill-rule="nonzero"></path>
  </g>
</svg>